Graphik-ExtralightItalic.ufo
<glyph name="exclam" format="2">
  <advance width="262"/>
  <unicode hex="0021"/>
  <outline>
    <contour>
      <point x="102" y="165" type="line"/>
      <point x="184" y="715" type="line"/>
      <point x="222" y="715" type="line"/>
      <point x="130" y="165" type="line"/>
    </contour>
    <contour>
      <point x="93" y="-5" type="curve" smooth="yes"/>
      <point x="77" y="-5"/>
      <point x="64" y="8"/>
      <point x="64" y="24" type="curve" smooth="yes"/>
      <point x="64" y="40"/>
      <point x="76" y="53"/>
      <point x="93" y="53" type="curve" smooth="yes"/>
      <point x="109" y="53"/>
      <point x="122" y="40"/>
      <point x="122" y="24" type="curve" smooth="yes"/>
      <point x="122" y="8"/>
      <point x="109" y="-5"/>
    </contour>
  </outline>
</glyph>
<glyph name="quotedbl" format="2">
  <advance width="261"/>
  <unicode hex="0022"/>
  <outline>
    <contour>
      <point x="103" y="529" type="line"/>
      <point x="127" y="715" type="line"/>
      <point x="165" y="715" type="line"/>
      <point x="130" y="529" type="line"/>
    </contour>
    <contour>
      <point x="214" y="529" type="line"/>
      <point x="238" y="715" type="line"/>
      <point x="275" y="715" type="line"/>
      <point x="241" y="529" type="line"/>
    </contour>
  </outline>
</glyph>
<glyph name="numbersign" format="2">
  <advance width="484"/>
  <unicode hex="0023"/>
  <outline>
    <contour>
      <point x="254" y="99" type="line"/>
      <point x="302" y="303" type="line"/>
      <point x="167" y="303" type="line"/>
      <point x="119" y="99" type="line"/>
      <point x="89" y="99" type="line"/>
      <point x="137" y="303" type="line"/>
      <point x="42" y="303" type="line"/>
      <point x="46" y="333" type="line"/>
      <point x="144" y="333" type="line"/>
      <point x="184" y="505" type="line"/>
      <point x="88" y="505" type="line"/>
      <point x="92" y="535" type="line"/>
      <point x="191" y="535" type="line"/>
      <point x="234" y="715" type="line"/>
      <point x="264" y="715" type="line"/>
      <point x="221" y="535" type="line"/>
      <point x="356" y="535" type="line"/>
      <point x="399" y="715" type="line"/>
      <point x="429" y="715" type="line"/>
      <point x="386" y="535" type="line"/>
      <point x="484" y="535" type="line"/>
      <point x="479" y="505" type="line"/>
      <point x="379" y="505" type="line"/>
      <point x="339" y="333" type="line"/>
      <point x="438" y="333" type="line"/>
      <point x="433" y="303" type="line"/>
      <point x="332" y="303" type="line"/>
      <point x="284" y="99" type="line"/>
    </contour>
    <contour>
      <point x="214" y="505" type="line"/>
      <point x="174" y="333" type="line"/>
      <point x="309" y="333" type="line"/>
      <point x="349" y="505" type="line"/>
    </contour>
  </outline>
</glyph>
<glyph name="dollar" format="2">
  <advance width="591"/>
  <unicode hex="0024"/>
  <outline>
    <contour>
      <point x="281" y="-7" type="curve" smooth="yes"/>
      <point x="265" y="-7" type="line"/>
      <point x="245" y="-135" type="line"/>
      <point x="215" y="-135" type="line"/>
      <point x="235" y="-4" type="line"/>
      <point x="117" y="9"/>
      <point x="36" y="77"/>
      <point x="30" y="197" type="curve"/>
      <point x="64" y="197" type="line"/>
      <point x="73" y="98"/>
      <point x="135" y="37"/>
      <point x="240" y="25" type="curve"/>
      <point x="293" y="360" type="line"/>
      <point x="165" y="397"/>
      <point x="108" y="444"/>
      <point x="108" y="533" type="curve" smooth="yes"/>
      <point x="108" y="652"/>
      <point x="207" y="722"/>
      <point x="337" y="722" type="curve" smooth="yes"/>
      <point x="350" y="722" type="line"/>
      <point x="365" y="813" type="line"/>
      <point x="395" y="813" type="line"/>
      <point x="380" y="719" type="line"/>
      <point x="481" y="707"/>
      <point x="549" y="651"/>
      <point x="557" y="553" type="curve"/>
      <point x="524" y="553" type="line"/>
      <point x="512" y="635"/>
      <point x="458" y="679"/>
      <point x="375" y="689" type="curve"/>
      <point x="327" y="383" type="line"/>
      <point x="460" y="346"/>
      <point x="524" y="307"/>
      <point x="524" y="204" type="curve" smooth="yes"/>
      <point x="524" y="71"/>
      <point x="423" y="-7"/>
    </contour>
    <contour>
      <point x="489" y="202" type="curve" smooth="yes"/>
      <point x="489" y="285"/>
      <point x="440" y="318"/>
      <point x="322" y="352" type="curve"/>
      <point x="270" y="23" type="line"/>
      <point x="281" y="23" type="line" smooth="yes"/>
      <point x="404" y="23"/>
      <point x="489" y="86"/>
    </contour>
    <contour>
      <point x="143" y="534" type="curve" smooth="yes"/>
      <point x="143" y="466"/>
      <point x="184" y="426"/>
      <point x="298" y="391" type="curve"/>
      <point x="346" y="692" type="line"/>
      <point x="335" y="692" type="line" smooth="yes"/>
      <point x="222" y="692"/>
      <point x="143" y="638"/>
    </contour>
  </outline>
</glyph>
<glyph name="percent" format="2">
  <advance width="755"/>
  <unicode hex="0025"/>
  <outline>
    <contour>
      <point x="122" y="548" type="curve" smooth="yes"/>
      <point x="123" y="484"/>
      <point x="163" y="435"/>
      <point x="231" y="435" type="curve" smooth="yes"/>
      <point x="308" y="435"/>
      <point x="361" y="493"/>
      <point x="360" y="576" type="curve" smooth="yes"/>
      <point x="359" y="638"/>
      <point x="320" y="692"/>
      <point x="250" y="692" type="curve" smooth="yes"/>
      <point x="173" y="692"/>
      <point x="122" y="627"/>
    </contour>
    <contour>
      <point x="231" y="407" type="curve" smooth="yes"/>
      <point x="149" y="407"/>
      <point x="90" y="467"/>
      <point x="90" y="549" type="curve" smooth="yes"/>
      <point x="90" y="641"/>
      <point x="158" y="720"/>
      <point x="251" y="720" type="curve" smooth="yes"/>
      <point x="332" y="720"/>
      <point x="393" y="658"/>
      <point x="393" y="576" type="curve" smooth="yes"/>
      <point x="393" y="477"/>
      <point x="321" y="407"/>
    </contour>
    <contour>
      <point x="84" y="0" type="line"/>
      <point x="663" y="715" type="line"/>
      <point x="699" y="715" type="line"/>
      <point x="120" y="0" type="line"/>
    </contour>
    <contour>
      <point x="422" y="135" type="curve" smooth="yes"/>
      <point x="423" y="72"/>
      <point x="463" y="22"/>
      <point x="531" y="22" type="curve" smooth="yes"/>
      <point x="607" y="22"/>
      <point x="661" y="81"/>
      <point x="660" y="164" type="curve" smooth="yes"/>
      <point x="659" y="226"/>
      <point x="620" y="279"/>
      <point x="550" y="279" type="curve" smooth="yes"/>
      <point x="472" y="279"/>
      <point x="422" y="214"/>
    </contour>
    <contour>
      <point x="531" y="-6" type="curve" smooth="yes"/>
      <point x="449" y="-6"/>
      <point x="389" y="54"/>
      <point x="389" y="136" type="curve" smooth="yes"/>
      <point x="389" y="228"/>
      <point x="457" y="307"/>
      <point x="551" y="307" type="curve" smooth="yes"/>
      <point x="632" y="307"/>
      <point x="692" y="245"/>
      <point x="692" y="163" type="curve" smooth="yes"/>
      <point x="692" y="64"/>
      <point x="621" y="-6"/>
    </contour>
  </outline>
</glyph>
<glyph name="ampersand" format="2">
  <advance width="644"/>
  <unicode hex="0026"/>
  <outline>
    <contour>
      <point x="570" y="0" type="line"/>
      <point x="529" y="0" type="line"/>
      <point x="452" y="114" type="line"/>
      <point x="404" y="55"/>
      <point x="329" y="-7"/>
      <point x="230" y="-7" type="curve" smooth="yes"/>
      <point x="126" y="-7"/>
      <point x="34" y="51"/>
      <point x="34" y="172" type="curve" smooth="yes"/>
      <point x="34" y="299"/>
      <point x="136" y="359"/>
      <point x="249" y="405" type="curve"/>
      <point x="214" y="457"/>
      <point x="190" y="504"/>
      <point x="190" y="557" type="curve" smooth="yes"/>
      <point x="190" y="649"/>
      <point x="257" y="719"/>
      <point x="351" y="719" type="curve" smooth="yes"/>
      <point x="432" y="719"/>
      <point x="485" y="663"/>
      <point x="485" y="586" type="curve" smooth="yes"/>
      <point x="485" y="480"/>
      <point x="380" y="430"/>
      <point x="296" y="395" type="curve"/>
      <point x="457" y="164" type="line"/>
      <point x="586" y="357" type="line"/>
      <point x="621" y="357" type="line"/>
      <point x="473" y="140" type="line"/>
    </contour>
    <contour>
      <point x="71" y="173" type="curve" smooth="yes"/>
      <point x="71" y="80"/>
      <point x="137" y="23"/>
      <point x="231" y="23" type="curve" smooth="yes"/>
      <point x="317" y="23"/>
      <point x="390" y="82"/>
      <point x="436" y="138" type="curve"/>
      <point x="264" y="383" type="line"/>
      <point x="166" y="342"/>
      <point x="71" y="293"/>
    </contour>
    <contour>
      <point x="350" y="690" type="curve" smooth="yes"/>
      <point x="276" y="691"/>
      <point x="224" y="635"/>
      <point x="224" y="559" type="curve" smooth="yes"/>
      <point x="224" y="511"/>
      <point x="248" y="467"/>
      <point x="282" y="417" type="curve"/>
      <point x="356" y="449"/>
      <point x="451" y="488"/>
      <point x="451" y="586" type="curve" smooth="yes"/>
      <point x="451" y="645"/>
      <point x="416" y="690"/>
    </contour>
  </outline>
</glyph>
<glyph name="quotesingle" format="2">
  <advance width="151"/>
  <unicode hex="0027"/>
  <outline>
    <contour>
      <point x="103" y="529" type="line"/>
      <point x="127" y="715" type="line"/>
      <point x="165" y="715" type="line"/>
      <point x="130" y="529" type="line"/>
    </contour>
  </outline>
</glyph>
<glyph name="parenleft" format="2">
  <advance width="285"/>
  <unicode hex="0028"/>
  <outline>
    <contour>
      <point x="163" y="-148" type="line"/>
      <point x="102" y="-57"/>
      <point x="57" y="64"/>
      <point x="57" y="210" type="curve" smooth="yes"/>
      <point x="57" y="438"/>
      <point x="157" y="634"/>
      <point x="302" y="773" type="curve"/>
      <point x="340" y="773" type="line"/>
      <point x="185" y="619"/>
      <point x="92" y="430"/>
      <point x="92" y="210" type="curve" smooth="yes"/>
      <point x="92" y="67"/>
      <point x="138" y="-52"/>
      <point x="197" y="-148" type="curve"/>
    </contour>
  </outline>
</glyph>
<glyph name="parenright" format="2">
  <advance width="285"/>
  <unicode hex="0029"/>
  <outline>
    <contour>
      <point x="137" y="774" type="line"/>
      <point x="197" y="683"/>
      <point x="243" y="562"/>
      <point x="243" y="416" type="curve" smooth="yes"/>
      <point x="243" y="188"/>
      <point x="142" y="-8"/>
      <point x="-3" y="-147" type="curve"/>
      <point x="-41" y="-147" type="line"/>
      <point x="114" y="7"/>
      <point x="208" y="196"/>
      <point x="208" y="416" type="curve" smooth="yes"/>
      <point x="208" y="559"/>
      <point x="162" y="678"/>
      <point x="103" y="774" type="curve"/>
    </contour>
  </outline>
</glyph>
<glyph name="asterisk" format="2">
  <advance width="415"/>
  <unicode hex="002A"/>
  <outline>
    <contour>
      <point x="143" y="440" type="line"/>
      <point x="120" y="461" type="line"/>
      <point x="235" y="573" type="line"/>
      <point x="104" y="629" type="line"/>
      <point x="119" y="658" type="line"/>
      <point x="246" y="596" type="line"/>
      <point x="267" y="743" type="line"/>
      <point x="299" y="743" type="line"/>
      <point x="273" y="594" type="line"/>
      <point x="416" y="636" type="line"/>
      <point x="421" y="607" type="line"/>
      <point x="277" y="571" type="line"/>
      <point x="352" y="444" type="line"/>
      <point x="324" y="428" type="line"/>
      <point x="252" y="556" type="line"/>
    </contour>
  </outline>
</glyph>
<glyph name="plus" format="2">
  <advance width="505"/>
  <unicode hex="002B"/>
  <outline>
    <contour>
      <point x="212" y="113" type="line"/>
      <point x="246" y="327" type="line"/>
      <point x="46" y="327" type="line"/>
      <point x="51" y="357" type="line"/>
      <point x="251" y="357" type="line"/>
      <point x="285" y="572" type="line"/>
      <point x="317" y="572" type="line"/>
      <point x="282" y="357" type="line"/>
      <point x="482" y="357" type="line"/>
      <point x="477" y="327" type="line"/>
      <point x="277" y="327" type="line"/>
      <point x="244" y="113" type="line"/>
    </contour>
  </outline>
</glyph>
<glyph name="comma" format="2">
  <advance width="195"/>
  <unicode hex="002C"/>
  <outline>
    <contour>
      <point x="3" y="-113" type="line"/>
      <point x="-20" y="-100" type="line"/>
      <point x="61" y="60" type="line"/>
      <point x="93" y="44" type="line"/>
    </contour>
  </outline>
</glyph>
<glyph name="hyphen" format="2">
  <advance width="333"/>
  <unicode hex="002D"/>
  <outline>
    <contour>
      <point x="60" y="262" type="line"/>
      <point x="66" y="295" type="line"/>
      <point x="272" y="295" type="line"/>
      <point x="267" y="262" type="line"/>
    </contour>
  </outline>
</glyph>
<glyph name="slash" format="2">
  <advance width="383"/>
  <unicode hex="002F"/>
  <outline>
    <contour>
      <point x="-48" y="-148" type="line"/>
      <point x="387" y="776" type="line"/>
      <point x="422" y="776" type="line"/>
      <point x="-14" y="-148" type="line"/>
    </contour>
  </outline>
</glyph>
<glyph name="zero" format="2">
  <advance width="646"/>
  <unicode hex="0030"/>
  <outline>
    <contour>
      <point x="305" y="-7" type="curve" smooth="yes"/>
      <point x="133" y="-7"/>
      <point x="59" y="104"/>
      <point x="59" y="252" type="curve" smooth="yes"/>
      <point x="59" y="282"/>
      <point x="61" y="311"/>
      <point x="66" y="341" type="curve" smooth="yes"/>
      <point x="77" y="412" type="line" smooth="yes"/>
      <point x="109" y="609"/>
      <point x="218" y="722"/>
      <point x="375" y="722" type="curve" smooth="yes"/>
      <point x="544" y="722"/>
      <point x="613" y="609"/>
      <point x="614" y="464" type="curve" smooth="yes"/>
      <point x="614" y="435"/>
      <point x="612" y="404"/>
      <point x="607" y="375" type="curve" smooth="yes"/>
      <point x="595" y="304" type="line" smooth="yes"/>
      <point x="563" y="105"/>
      <point x="465" y="-7"/>
    </contour>
    <contour>
      <point x="306" y="24" type="curve" smooth="yes"/>
      <point x="447" y="24"/>
      <point x="530" y="121"/>
      <point x="560" y="307" type="curve" smooth="yes"/>
      <point x="572" y="378" type="line" smooth="yes"/>
      <point x="576" y="406"/>
      <point x="578" y="435"/>
      <point x="578" y="464" type="curve" smooth="yes"/>
      <point x="578" y="590"/>
      <point x="522" y="692"/>
      <point x="374" y="692" type="curve" smooth="yes"/>
      <point x="235" y="692"/>
      <point x="141" y="591"/>
      <point x="112" y="409" type="curve" smooth="yes"/>
      <point x="101" y="339" type="line" smooth="yes"/>
      <point x="96" y="310"/>
      <point x="94" y="281"/>
      <point x="94" y="252" type="curve" smooth="yes"/>
      <point x="95" y="124"/>
      <point x="151" y="24"/>
    </contour>
  </outline>
</glyph>
<glyph name="one" format="2">
  <advance width="348"/>
  <unicode hex="0031"/>
  <outline>
    <contour>
      <point x="147" y="0" type="line"/>
      <point x="254" y="673" type="line"/>
      <point x="71" y="560" type="line"/>
      <point x="76" y="595" type="line"/>
      <point x="269" y="715" type="line"/>
      <point x="296" y="715" type="line"/>
      <point x="183" y="0" type="line"/>
    </contour>
  </outline>
</glyph>
<glyph name="two" format="2">
  <advance width="527"/>
  <unicode hex="0032"/>
  <outline>
    <contour>
      <point x="-31" y="0" type="line"/>
      <point x="-29" y="9" type="line"/>
      <point x="313" y="297" type="line" smooth="yes"/>
      <point x="401" y="371"/>
      <point x="467" y="443"/>
      <point x="467" y="546" type="curve" smooth="yes"/>
      <point x="467" y="633"/>
      <point x="411" y="692"/>
      <point x="314" y="692" type="curve" smooth="yes"/>
      <point x="220" y="692"/>
      <point x="141" y="642"/>
      <point x="112" y="515" type="curve"/>
      <point x="78" y="515" type="line"/>
      <point x="105" y="656"/>
      <point x="202" y="722"/>
      <point x="315" y="722" type="curve" smooth="yes"/>
      <point x="428" y="722"/>
      <point x="502" y="653"/>
      <point x="502" y="547" type="curve" smooth="yes"/>
      <point x="502" y="431"/>
      <point x="429" y="356"/>
      <point x="335" y="278" type="curve" smooth="yes"/>
      <point x="41" y="31" type="line"/>
      <point x="440" y="31" type="line"/>
      <point x="435" y="0" type="line"/>
    </contour>
  </outline>
</glyph>
<glyph name="three" format="2">
  <advance width="544"/>
  <unicode hex="0033"/>
  <outline>
    <contour>
      <point x="246" y="-7" type="curve" smooth="yes"/>
      <point x="116" y="-7"/>
      <point x="23" y="67"/>
      <point x="23" y="196" type="curve"/>
      <point x="57" y="196" type="line"/>
      <point x="59" y="88"/>
      <point x="130" y="24"/>
      <point x="247" y="24" type="curve" smooth="yes"/>
      <point x="359" y="24"/>
      <point x="449" y="85"/>
      <point x="449" y="215" type="curve" smooth="yes"/>
      <point x="449" y="292"/>
      <point x="403" y="359"/>
      <point x="293" y="359" type="curve" smooth="yes"/>
      <point x="249" y="359" type="line"/>
      <point x="254" y="390" type="line"/>
      <point x="306" y="390" type="line" smooth="yes"/>
      <point x="399" y="390"/>
      <point x="476" y="441"/>
      <point x="476" y="553" type="curve" smooth="yes"/>
      <point x="476" y="637"/>
      <point x="419" y="691"/>
      <point x="326" y="691" type="curve" smooth="yes"/>
      <point x="230" y="691"/>
      <point x="156" y="633"/>
      <point x="134" y="533" type="curve"/>
      <point x="101" y="533" type="line"/>
      <point x="121" y="649"/>
      <point x="217" y="722"/>
      <point x="327" y="722" type="curve" smooth="yes"/>
      <point x="429" y="722"/>
      <point x="511" y="663"/>
      <point x="511" y="554" type="curve" smooth="yes"/>
      <point x="511" y="461"/>
      <point x="457" y="394"/>
      <point x="366" y="374" type="curve"/>
      <point x="439" y="356"/>
      <point x="485" y="296"/>
      <point x="485" y="214" type="curve" smooth="yes"/>
      <point x="485" y="71"/>
      <point x="378" y="-7"/>
    </contour>
  </outline>
</glyph>
<glyph name="four" format="2">
  <advance width="581"/>
  <unicode hex="0034"/>
  <outline>
    <contour>
      <point x="363" y="0" type="line"/>
      <point x="389" y="167" type="line"/>
      <point x="15" y="167" type="line"/>
      <point x="17" y="178" type="line"/>
      <point x="457" y="715" type="line"/>
      <point x="512" y="715" type="line"/>
      <point x="430" y="198" type="line"/>
      <point x="529" y="198" type="line"/>
      <point x="524" y="167" type="line"/>
      <point x="425" y="167" type="line"/>
      <point x="399" y="0" type="line"/>
    </contour>
    <contour>
      <point x="70" y="198" type="line"/>
      <point x="395" y="198" type="line"/>
      <point x="472" y="688" type="line"/>
    </contour>
  </outline>
</glyph>
<glyph name="five" format="2">
  <advance width="545"/>
  <unicode hex="0035"/>
  <outline>
    <contour>
      <point x="239" y="-7" type="curve" smooth="yes"/>
      <point x="117" y="-7"/>
      <point x="29" y="63"/>
      <point x="22" y="178" type="curve"/>
      <point x="56" y="178" type="line"/>
      <point x="64" y="86"/>
      <point x="130" y="24"/>
      <point x="239" y="24" type="curve" smooth="yes"/>
      <point x="376" y="24"/>
      <point x="454" y="122"/>
      <point x="454" y="258" type="curve" smooth="yes"/>
      <point x="454" y="356"/>
      <point x="390" y="430"/>
      <point x="286" y="430" type="curve" smooth="yes"/>
      <point x="201" y="430"/>
      <point x="145" y="394"/>
      <point x="102" y="347" type="curve"/>
      <point x="88" y="347" type="line"/>
      <point x="147" y="715" type="line"/>
      <point x="529" y="715" type="line"/>
      <point x="524" y="684" type="line"/>
      <point x="173" y="684" type="line"/>
      <point x="128" y="397" type="line"/>
      <point x="160" y="429"/>
      <point x="219" y="461"/>
      <point x="293" y="461" type="curve" smooth="yes"/>
      <point x="410" y="461"/>
      <point x="490" y="378"/>
      <point x="490" y="259" type="curve" smooth="yes"/>
      <point x="490" y="108"/>
      <point x="396" y="-7"/>
    </contour>
  </outline>
</glyph>
<glyph name="six" format="2">
  <advance width="588"/>
  <unicode hex="0036"/>
  <outline>
    <contour>
      <point x="283" y="-7" type="curve" smooth="yes"/>
      <point x="143" y="-7"/>
      <point x="60" y="72"/>
      <point x="60" y="221" type="curve" smooth="yes"/>
      <point x="60" y="253"/>
      <point x="65" y="285"/>
      <point x="69" y="314" type="curve" smooth="yes"/>
      <point x="80" y="378" type="line" smooth="yes"/>
      <point x="118" y="617"/>
      <point x="220" y="722"/>
      <point x="376" y="722" type="curve" smooth="yes"/>
      <point x="487" y="722"/>
      <point x="558" y="668"/>
      <point x="565" y="566" type="curve"/>
      <point x="531" y="566" type="line"/>
      <point x="523" y="648"/>
      <point x="471" y="691"/>
      <point x="375" y="691" type="curve" smooth="yes"/>
      <point x="240" y="691"/>
      <point x="152" y="602"/>
      <point x="115" y="380" type="curve" smooth="yes"/>
      <point x="106" y="324" type="line"/>
      <point x="150" y="408"/>
      <point x="233" y="449"/>
      <point x="320" y="449" type="curve" smooth="yes"/>
      <point x="439" y="449"/>
      <point x="534" y="381"/>
      <point x="534" y="254" type="curve" smooth="yes"/>
      <point x="534" y="105"/>
      <point x="435" y="-7"/>
    </contour>
    <contour>
      <point x="96" y="206" type="curve" smooth="yes"/>
      <point x="96" y="96"/>
      <point x="164" y="23"/>
      <point x="283" y="23" type="curve" smooth="yes"/>
      <point x="417" y="23"/>
      <point x="499" y="123"/>
      <point x="499" y="253" type="curve" smooth="yes"/>
      <point x="499" y="358"/>
      <point x="424" y="419"/>
      <point x="314" y="419" type="curve" smooth="yes"/>
      <point x="195" y="419"/>
      <point x="96" y="334"/>
    </contour>
  </outline>
</glyph>
<glyph name="seven" format="2">
  <advance width="491"/>
  <unicode hex="0037"/>
  <outline>
    <contour>
      <point x="105" y="0" type="line"/>
      <point x="491" y="685" type="line"/>
      <point x="91" y="685" type="line"/>
      <point x="96" y="715" type="line"/>
      <point x="544" y="715" type="line"/>
      <point x="543" y="708" type="line"/>
      <point x="143" y="0" type="line"/>
    </contour>
  </outline>
</glyph>
<glyph name="eight" format="2">
  <advance width="568"/>
  <unicode hex="0038"/>
  <outline>
    <contour>
      <point x="268" y="-7" type="curve" smooth="yes"/>
      <point x="154" y="-7"/>
      <point x="40" y="54"/>
      <point x="40" y="182" type="curve" smooth="yes"/>
      <point x="40" y="304"/>
      <point x="125" y="373"/>
      <point x="239" y="390" type="curve"/>
      <point x="174" y="409"/>
      <point x="122" y="462"/>
      <point x="122" y="541" type="curve" smooth="yes"/>
      <point x="122" y="654"/>
      <point x="225" y="722"/>
      <point x="336" y="722" type="curve" smooth="yes"/>
      <point x="438" y="722"/>
      <point x="528" y="656"/>
      <point x="528" y="553" type="curve" smooth="yes"/>
      <point x="528" y="451"/>
      <point x="465" y="398"/>
      <point x="370" y="382" type="curve"/>
      <point x="452" y="360"/>
      <point x="511" y="298"/>
      <point x="511" y="208" type="curve" smooth="yes"/>
      <point x="511" y="62"/>
      <point x="396" y="-7"/>
    </contour>
    <contour>
      <point x="75" y="185" type="curve" smooth="yes"/>
      <point x="75" y="77"/>
      <point x="168" y="24"/>
      <point x="270" y="24" type="curve" smooth="yes"/>
      <point x="382" y="24"/>
      <point x="476" y="83"/>
      <point x="476" y="208" type="curve" smooth="yes"/>
      <point x="476" y="304"/>
      <point x="399" y="370"/>
      <point x="288" y="370" type="curve" smooth="yes"/>
      <point x="176" y="370"/>
      <point x="75" y="311"/>
    </contour>
    <contour>
      <point x="157" y="542" type="curve" smooth="yes"/>
      <point x="156" y="462"/>
      <point x="221" y="400"/>
      <point x="322" y="400" type="curve" smooth="yes"/>
      <point x="412" y="400"/>
      <point x="493" y="444"/>
      <point x="493" y="552" type="curve" smooth="yes"/>
      <point x="493" y="635"/>
      <point x="426" y="692"/>
      <point x="334" y="692" type="curve" smooth="yes"/>
      <point x="245" y="692"/>
      <point x="158" y="642"/>
    </contour>
  </outline>
</glyph>
<glyph name="nine" format="2">
  <advance width="586"/>
  <unicode hex="0039"/>
  <outline>
    <contour>
      <point x="248" y="-7" type="curve" smooth="yes"/>
      <point x="139" y="-7"/>
      <point x="58" y="47"/>
      <point x="47" y="156" type="curve"/>
      <point x="81" y="156" type="line"/>
      <point x="93" y="66"/>
      <point x="155" y="24"/>
      <point x="250" y="24" type="curve" smooth="yes"/>
      <point x="381" y="24"/>
      <point x="465" y="99"/>
      <point x="502" y="335" type="curve" smooth="yes"/>
      <point x="511" y="391" type="line"/>
      <point x="468" y="308"/>
      <point x="385" y="266"/>
      <point x="298" y="266" type="curve" smooth="yes"/>
      <point x="181" y="266"/>
      <point x="83" y="334"/>
      <point x="83" y="464" type="curve" smooth="yes"/>
      <point x="83" y="614"/>
      <point x="185" y="722"/>
      <point x="337" y="722" type="curve" smooth="yes"/>
      <point x="471" y="722"/>
      <point x="557" y="642"/>
      <point x="557" y="496" type="curve" smooth="yes"/>
      <point x="557" y="464"/>
      <point x="552" y="431"/>
      <point x="548" y="402" type="curve" smooth="yes"/>
      <point x="537" y="334" type="line" smooth="yes"/>
      <point x="495" y="73"/>
      <point x="398" y="-7"/>
    </contour>
    <contour>
      <point x="119" y="465" type="curve" smooth="yes"/>
      <point x="119" y="357"/>
      <point x="195" y="295"/>
      <point x="301" y="295" type="curve" smooth="yes"/>
      <point x="421" y="295"/>
      <point x="522" y="380"/>
      <point x="522" y="509" type="curve" smooth="yes"/>
      <point x="522" y="618"/>
      <point x="455" y="692"/>
      <point x="336" y="692" type="curve" smooth="yes"/>
      <point x="202" y="692"/>
      <point x="119" y="596"/>
    </contour>
  </outline>
</glyph>
<glyph name="colon" format="2">
  <advance width="202"/>
  <unicode hex="003A"/>
  <outline>
    <contour>
      <point x="62" y="-5" type="curve" smooth="yes"/>
      <point x="46" y="-5"/>
      <point x="33" y="8"/>
      <point x="33" y="24" type="curve" smooth="yes"/>
      <point x="33" y="40"/>
      <point x="45" y="53"/>
      <point x="62" y="53" type="curve" smooth="yes"/>
      <point x="78" y="53"/>
      <point x="91" y="40"/>
      <point x="91" y="24" type="curve" smooth="yes"/>
      <point x="91" y="8"/>
      <point x="78" y="-5"/>
    </contour>
    <contour>
      <point x="117" y="337" type="curve" smooth="yes"/>
      <point x="100" y="337"/>
      <point x="88" y="350"/>
      <point x="88" y="366" type="curve" smooth="yes"/>
      <point x="88" y="382"/>
      <point x="100" y="395"/>
      <point x="116" y="395" type="curve" smooth="yes"/>
      <point x="133" y="395"/>
      <point x="145" y="382"/>
      <point x="145" y="366" type="curve" smooth="yes"/>
      <point x="145" y="350"/>
      <point x="133" y="337"/>
    </contour>
  </outline>
</glyph>
<glyph name="semicolon" format="2">
  <advance width="202"/>
  <unicode hex="003B"/>
  <outline>
    <contour>
      <point x="-4" y="-113" type="line"/>
      <point x="-27" y="-100" type="line"/>
      <point x="54" y="60" type="line"/>
      <point x="87" y="44" type="line"/>
    </contour>
    <contour>
      <point x="119" y="337" type="curve" smooth="yes"/>
      <point x="102" y="337"/>
      <point x="90" y="350"/>
      <point x="90" y="366" type="curve" smooth="yes"/>
      <point x="90" y="382"/>
      <point x="102" y="395"/>
      <point x="118" y="395" type="curve" smooth="yes"/>
      <point x="135" y="395"/>
      <point x="147" y="382"/>
      <point x="147" y="366" type="curve" smooth="yes"/>
      <point x="147" y="350"/>
      <point x="135" y="337"/>
    </contour>
  </outline>
</glyph>
<glyph name="less" format="2">
  <advance width="491"/>
  <unicode hex="003C"/>
  <outline>
    <contour>
      <point x="409" y="110" type="line"/>
      <point x="57" y="324" type="line"/>
      <point x="59" y="333" type="line"/>
      <point x="475" y="530" type="line"/>
      <point x="470" y="496" type="line"/>
      <point x="108" y="326" type="line"/>
      <point x="414" y="143" type="line"/>
    </contour>
  </outline>
</glyph>
<glyph name="equal" format="2">
  <advance width="484"/>
  <unicode hex="003D"/>
  <outline>
    <contour>
      <point x="33" y="224" type="line"/>
      <point x="38" y="254" type="line"/>
      <point x="442" y="254" type="line"/>
      <point x="437" y="224" type="line"/>
    </contour>
    <contour>
      <point x="58" y="383" type="line"/>
      <point x="63" y="413" type="line"/>
      <point x="467" y="413" type="line"/>
      <point x="462" y="383" type="line"/>
    </contour>
  </outline>
</glyph>
<glyph name="greater" format="2">
  <advance width="491"/>
  <unicode hex="003E"/>
  <outline>
    <contour>
      <point x="100" y="530" type="line"/>
      <point x="451" y="317" type="line"/>
      <point x="450" y="307" type="line"/>
      <point x="33" y="110" type="line"/>
      <point x="39" y="145" type="line"/>
      <point x="400" y="315" type="line"/>
      <point x="95" y="498" type="line"/>
    </contour>
  </outline>
</glyph>
<glyph name="question" format="2">
  <advance width="469"/>
  <unicode hex="003F"/>
  <outline>
    <contour>
      <point x="177" y="165" type="line"/>
      <point x="187" y="231" type="line" smooth="yes"/>
      <point x="200" y="316"/>
      <point x="247" y="353"/>
      <point x="315" y="407" type="curve" smooth="yes"/>
      <point x="378" y="456"/>
      <point x="433" y="492"/>
      <point x="433" y="578" type="curve" smooth="yes"/>
      <point x="433" y="658"/>
      <point x="367" y="692"/>
      <point x="295" y="692" type="curve" smooth="yes"/>
      <point x="202" y="692"/>
      <point x="134" y="637"/>
      <point x="114" y="530" type="curve"/>
      <point x="80" y="530" type="line"/>
      <point x="99" y="653"/>
      <point x="186" y="722"/>
      <point x="297" y="722" type="curve" smooth="yes"/>
      <point x="390" y="722"/>
      <point x="468" y="674"/>
      <point x="468" y="578" type="curve" smooth="yes"/>
      <point x="468" y="476"/>
      <point x="401" y="437"/>
      <point x="333" y="383" type="curve" smooth="yes"/>
      <point x="269" y="333"/>
      <point x="231" y="302"/>
      <point x="219" y="228" type="curve" smooth="yes"/>
      <point x="209" y="165" type="line"/>
    </contour>
    <contour>
      <point x="172" y="-5" type="curve" smooth="yes"/>
      <point x="155" y="-5"/>
      <point x="143" y="8"/>
      <point x="143" y="24" type="curve" smooth="yes"/>
      <point x="143" y="40"/>
      <point x="155" y="53"/>
      <point x="171" y="53" type="curve" smooth="yes"/>
      <point x="188" y="53"/>
      <point x="200" y="40"/>
      <point x="200" y="24" type="curve" smooth="yes"/>
      <point x="200" y="8"/>
      <point x="188" y="-5"/>
    </contour>
  </outline>
</glyph>
<glyph name="at" format="2">
  <advance width="905"/>
  <unicode hex="0040"/>
  <outline>
    <contour>
      <point x="650" y="462" type="line"/>
      <point x="613" y="229" type="line" smooth="yes"/>
      <point x="600" y="152"/>
      <point x="620" y="99"/>
      <point x="689" y="99" type="curve" smooth="yes"/>
      <point x="764" y="99"/>
      <point x="835" y="169"/>
      <point x="835" y="322" type="curve" smooth="yes"/>
      <point x="835" y="517"/>
      <point x="704" y="660"/>
      <point x="478" y="660" type="curve" smooth="yes"/>
      <point x="265" y="660"/>
      <point x="84" y="488"/>
      <point x="84" y="261" type="curve" smooth="yes"/>
      <point x="84" y="61"/>
      <point x="212" y="-119"/>
      <point x="463" y="-119" type="curve" smooth="yes"/>
      <point x="609" y="-119"/>
      <point x="704" y="-64"/>
      <point x="758" y="0" type="curve"/>
      <point x="791" y="0" type="line"/>
      <point x="743" y="-77"/>
      <point x="625" y="-147"/>
      <point x="463" y="-147" type="curve" smooth="yes"/>
      <point x="194" y="-147"/>
      <point x="51" y="46"/>
      <point x="51" y="260" type="curve" smooth="yes"/>
      <point x="51" y="504"/>
      <point x="254" y="688"/>
      <point x="478" y="688" type="curve" smooth="yes"/>
      <point x="717" y="688"/>
      <point x="866" y="530"/>
      <point x="866" y="324" type="curve" smooth="yes"/>
      <point x="866" y="143"/>
      <point x="768" y="72"/>
      <point x="688" y="72" type="curve" smooth="yes"/>
      <point x="619" y="72"/>
      <point x="581" y="109"/>
      <point x="580" y="179" type="curve"/>
      <point x="558" y="125"/>
      <point x="503" y="65"/>
      <point x="420" y="65" type="curve" smooth="yes"/>
      <point x="331" y="65"/>
      <point x="267" y="127"/>
      <point x="267" y="230" type="curve" smooth="yes"/>
      <point x="267" y="353"/>
      <point x="350" y="471"/>
      <point x="467" y="471" type="curve" smooth="yes"/>
      <point x="541" y="471"/>
      <point x="591" y="426"/>
      <point x="601" y="364" type="curve"/>
      <point x="616" y="462" type="line"/>
    </contour>
    <contour>
      <point x="424" y="93" type="curve" smooth="yes"/>
      <point x="512" y="93"/>
      <point x="589" y="188"/>
      <point x="589" y="300" type="curve" smooth="yes"/>
      <point x="590" y="387"/>
      <point x="543" y="442"/>
      <point x="469" y="442" type="curve" smooth="yes"/>
      <point x="371" y="442"/>
      <point x="302" y="341"/>
      <point x="302" y="229" type="curve" smooth="yes"/>
      <point x="302" y="144"/>
      <point x="351" y="93"/>
    </contour>
  </outline>
</glyph>
<glyph name="B" format="2">
  <advance width="592"/>
  <unicode hex="0042"/>
  <outline>
    <contour>
      <point x="52" y="0" type="line"/>
      <point x="165" y="715" type="line"/>
      <point x="350" y="715" type="line" smooth="yes"/>
      <point x="469" y="715"/>
      <point x="541" y="658"/>
      <point x="540" y="554" type="curve" smooth="yes"/>
      <point x="540" y="450"/>
      <point x="479" y="395"/>
      <point x="382" y="373" type="curve"/>
      <point x="475" y="359"/>
      <point x="525" y="300"/>
      <point x="525" y="215" type="curve" smooth="yes"/>
      <point x="525" y="78"/>
      <point x="427" y="0"/>
      <point x="288" y="0" type="curve" smooth="yes"/>
    </contour>
    <contour>
      <point x="91" y="30" type="line"/>
      <point x="288" y="30" type="line" smooth="yes"/>
      <point x="407" y="30"/>
      <point x="490" y="94"/>
      <point x="490" y="216" type="curve" smooth="yes"/>
      <point x="490" y="303"/>
      <point x="432" y="358"/>
      <point x="307" y="358" type="curve" smooth="yes"/>
      <point x="143" y="358" type="line"/>
    </contour>
    <contour>
      <point x="148" y="387" type="line"/>
      <point x="309" y="387" type="line" smooth="yes"/>
      <point x="411" y="387"/>
      <point x="505" y="431"/>
      <point x="505" y="553" type="curve" smooth="yes"/>
      <point x="505" y="637"/>
      <point x="448" y="685"/>
      <point x="349" y="685" type="curve" smooth="yes"/>
      <point x="195" y="685" type="line"/>
    </contour>
  </outline>
</glyph>
<glyph name="C" format="2">
  <advance width="724"/>
  <unicode hex="0043"/>
  <outline>
    <contour>
      <point x="371" y="-7" type="curve" smooth="yes"/>
      <point x="180" y="-7"/>
      <point x="59" y="115"/>
      <point x="59" y="312" type="curve" smooth="yes"/>
      <point x="59" y="534"/>
      <point x="205" y="722"/>
      <point x="435" y="722" type="curve" smooth="yes"/>
      <point x="568" y="722"/>
      <point x="682" y="645"/>
      <point x="700" y="506" type="curve"/>
      <point x="667" y="506" type="line"/>
      <point x="645" y="625"/>
      <point x="555" y="692"/>
      <point x="434" y="692" type="curve" smooth="yes"/>
      <point x="223" y="692"/>
      <point x="97" y="519"/>
      <point x="97" y="312" type="curve" smooth="yes"/>
      <point x="97" y="132"/>
      <point x="199" y="24"/>
      <point x="371" y="24" type="curve" smooth="yes"/>
      <point x="502" y="24"/>
      <point x="604" y="97"/>
      <point x="646" y="225" type="curve"/>
      <point x="681" y="225" type="line"/>
      <point x="637" y="76"/>
      <point x="515" y="-7"/>
    </contour>
  </outline>
</glyph>
<glyph name="F" format="2">
  <advance width="540"/>
  <unicode hex="0046"/>
  <outline>
    <contour>
      <point x="52" y="0" type="line"/>
      <point x="165" y="715" type="line"/>
      <point x="564" y="715" type="line"/>
      <point x="559" y="685" type="line"/>
      <point x="196" y="685" type="line"/>
      <point x="147" y="381" type="line"/>
      <point x="435" y="381" type="line"/>
      <point x="430" y="351" type="line"/>
      <point x="143" y="351" type="line"/>
      <point x="88" y="0" type="line"/>
    </contour>
  </outline>
</glyph>
<glyph name="H" format="2">
  <advance width="709"/>
  <unicode hex="0048"/>
  <outline>
    <contour>
      <point x="52" y="0" type="line"/>
      <point x="165" y="715" type="line"/>
      <point x="201" y="715" type="line"/>
      <point x="147" y="376" type="line"/>
      <point x="596" y="376" type="line"/>
      <point x="650" y="715" type="line"/>
      <point x="686" y="715" type="line"/>
      <point x="573" y="0" type="line"/>
      <point x="537" y="0" type="line"/>
      <point x="592" y="345" type="line"/>
      <point x="142" y="345" type="line"/>
      <point x="88" y="0" type="line"/>
    </contour>
  </outline>
</glyph>
<glyph name="K" format="2">
  <advance width="588"/>
  <unicode hex="004B"/>
  <outline>
    <contour>
      <point x="517" y="0" type="line"/>
      <point x="474" y="0" type="line"/>
      <point x="152" y="368" type="line"/>
      <point x="567" y="715" type="line"/>
      <point x="612" y="715" type="line"/>
      <point x="195" y="368" type="line"/>
    </contour>
    <contour>
      <point x="52" y="0" type="line"/>
      <point x="165" y="715" type="line"/>
      <point x="201" y="715" type="line"/>
      <point x="88" y="0" type="line"/>
    </contour>
  </outline>
</glyph>
<glyph name="L" format="2">
  <advance width="528"/>
  <unicode hex="004C"/>
  <outline>
    <contour>
      <point x="52" y="0" type="line"/>
      <point x="165" y="715" type="line"/>
      <point x="201" y="715" type="line"/>
      <point x="92" y="31" type="line"/>
      <point x="453" y="31" type="line"/>
      <point x="448" y="0" type="line"/>
    </contour>
  </outline>
</glyph>
<glyph name="M" format="2">
  <advance width="849"/>
  <unicode hex="004D"/>
  <outline>
    <contour>
      <point x="52" y="0" type="line"/>
      <point x="165" y="715" type="line"/>
      <point x="217" y="715" type="line"/>
      <point x="386" y="66" type="line"/>
      <point x="766" y="715" type="line"/>
      <point x="820" y="715" type="line"/>
      <point x="707" y="0" type="line"/>
      <point x="671" y="0" type="line"/>
      <point x="777" y="672" type="line"/>
      <point x="383" y="0" type="line"/>
      <point x="369" y="0" type="line"/>
      <point x="192" y="672" type="line"/>
      <point x="86" y="0" type="line"/>
    </contour>
  </outline>
</glyph>
<glyph name="P" format="2">
  <advance width="559"/>
  <unicode hex="0050"/>
  <outline>
    <contour>
      <point x="52" y="0" type="line"/>
      <point x="165" y="715" type="line"/>
      <point x="332" y="715" type="line" smooth="yes"/>
      <point x="464" y="715"/>
      <point x="552" y="662"/>
      <point x="552" y="539" type="curve" smooth="yes"/>
      <point x="552" y="380"/>
      <point x="446" y="315"/>
      <point x="297" y="315" type="curve" smooth="yes"/>
      <point x="137" y="315" type="line"/>
      <point x="87" y="0" type="line"/>
    </contour>
    <contour>
      <point x="141" y="345" type="line"/>
      <point x="299" y="345" type="line" smooth="yes"/>
      <point x="434" y="345"/>
      <point x="517" y="401"/>
      <point x="517" y="539" type="curve" smooth="yes"/>
      <point x="517" y="645"/>
      <point x="442" y="685"/>
      <point x="329" y="685" type="curve" smooth="yes"/>
      <point x="195" y="685" type="line"/>
    </contour>
  </outline>
</glyph>
<glyph name="Q" format="2">
  <advance width="788"/>
  <unicode hex="0051"/>
  <outline>
    <contour>
      <point x="384" y="-7" type="curve" smooth="yes"/>
      <point x="183" y="-7"/>
      <point x="59" y="136"/>
      <point x="59" y="326" type="curve" smooth="yes"/>
      <point x="59" y="536"/>
      <point x="214" y="722"/>
      <point x="436" y="722" type="curve" smooth="yes"/>
      <point x="631" y="722"/>
      <point x="757" y="577"/>
      <point x="757" y="392" type="curve" smooth="yes"/>
      <point x="757" y="262"/>
      <point x="700" y="142"/>
      <point x="605" y="68" type="curve"/>
      <point x="685" y="-21" type="line"/>
      <point x="661" y="-42" type="line"/>
      <point x="579" y="49" type="line"/>
      <point x="524" y="14"/>
      <point x="458" y="-7"/>
    </contour>
    <contour>
      <point x="384" y="24" type="curve" smooth="yes"/>
      <point x="450" y="24"/>
      <point x="509" y="42"/>
      <point x="558" y="73" type="curve"/>
      <point x="450" y="195" type="line"/>
      <point x="474" y="216" type="line"/>
      <point x="584" y="92" type="line"/>
      <point x="669" y="159"/>
      <point x="720" y="270"/>
      <point x="721" y="392" type="curve" smooth="yes"/>
      <point x="721" y="554"/>
      <point x="616" y="692"/>
      <point x="435" y="692" type="curve" smooth="yes"/>
      <point x="232" y="692"/>
      <point x="98" y="523"/>
      <point x="96" y="326" type="curve" smooth="yes"/>
      <point x="94" y="157"/>
      <point x="204" y="24"/>
    </contour>
  </outline>
</glyph>
<glyph name="U" format="2">
  <advance width="674"/>
  <unicode hex="0055"/>
  <outline>
    <contour>
      <point x="318" y="-5" type="curve" smooth="yes"/>
      <point x="137" y="-5"/>
      <point x="53" y="95"/>
      <point x="80" y="267" type="curve" smooth="yes"/>
      <point x="151" y="715" type="line"/>
      <point x="187" y="715" type="line"/>
      <point x="116" y="267" type="line" smooth="yes"/>
      <point x="92" y="111"/>
      <point x="157" y="26"/>
      <point x="319" y="26" type="curve" smooth="yes"/>
      <point x="459" y="26"/>
      <point x="530" y="95"/>
      <point x="553" y="242" type="curve" smooth="yes"/>
      <point x="628" y="715" type="line"/>
      <point x="664" y="715" type="line"/>
      <point x="589" y="239" type="line" smooth="yes"/>
      <point x="564" y="80"/>
      <point x="483" y="-5"/>
    </contour>
  </outline>
</glyph>
<glyph name="V" format="2">
  <advance width="621"/>
  <unicode hex="0056"/>
  <outline>
    <contour>
      <point x="249" y="0" type="line"/>
      <point x="92" y="715" type="line"/>
      <point x="127" y="715" type="line"/>
      <point x="277" y="38" type="line"/>
      <point x="626" y="715" type="line"/>
      <point x="661" y="715" type="line"/>
      <point x="292" y="0" type="line"/>
    </contour>
  </outline>
</glyph>
<glyph name="X" format="2">
  <advance width="618"/>
  <unicode hex="0058"/>
  <outline>
    <contour>
      <point x="-5" y="0" type="line"/>
      <point x="307" y="374" type="line"/>
      <point x="132" y="715" type="line"/>
      <point x="169" y="715" type="line"/>
      <point x="333" y="398" type="line"/>
      <point x="594" y="715" type="line"/>
      <point x="634" y="715" type="line"/>
      <point x="348" y="369" type="line"/>
      <point x="539" y="0" type="line"/>
      <point x="501" y="0" type="line"/>
      <point x="322" y="345" type="line"/>
      <point x="35" y="0" type="line"/>
    </contour>
  </outline>
</glyph>
<glyph name="bracketleft" format="2">
  <advance width="331"/>
  <unicode hex="005B"/>
  <outline>
    <contour>
      <point x="30" y="-148" type="line"/>
      <point x="176" y="776" type="line"/>
      <point x="371" y="776" type="line"/>
      <point x="366" y="748" type="line"/>
      <point x="207" y="748" type="line"/>
      <point x="70" y="-120" type="line"/>
      <point x="229" y="-120" type="line"/>
      <point x="224" y="-148" type="line"/>
    </contour>
  </outline>
</glyph>
<glyph name="backslash" format="2">
  <advance width="383"/>
  <unicode hex="005C"/>
  <outline>
    <contour>
      <point x="267" y="-148" type="line"/>
      <point x="121" y="776" type="line"/>
      <point x="154" y="776" type="line"/>
      <point x="300" y="-148" type="line"/>
    </contour>
  </outline>
</glyph>
<glyph name="bracketright" format="2">
  <advance width="331"/>
  <unicode hex="005D"/>
  <outline>
    <contour>
      <point x="-26" y="-148" type="line"/>
      <point x="-21" y="-120" type="line"/>
      <point x="139" y="-120" type="line"/>
      <point x="276" y="748" type="line"/>
      <point x="116" y="748" type="line"/>
      <point x="121" y="776" type="line"/>
      <point x="314" y="776" type="line"/>
      <point x="168" y="-148" type="line"/>
    </contour>
  </outline>
</glyph>
<glyph name="asciicircum" format="2">
  <advance width="461"/>
  <unicode hex="005E"/>
  <outline>
    <contour>
      <point x="73" y="431" type="line"/>
      <point x="284" y="715" type="line"/>
      <point x="317" y="715" type="line"/>
      <point x="439" y="431" type="line"/>
      <point x="404" y="431" type="line"/>
      <point x="296" y="682" type="line"/>
      <point x="110" y="431" type="line"/>
    </contour>
  </outline>
</glyph>
<glyph name="grave" format="2">
  <advance width="400"/>
  <unicode hex="0060"/>
  <outline>
    <contour>
      <point x="241" y="600" type="line"/>
      <point x="178" y="747" type="line"/>
      <point x="218" y="747" type="line"/>
      <point x="269" y="600" type="line"/>
    </contour>
  </outline>
</glyph>
<glyph name="b" format="2">
  <advance width="596"/>
  <unicode hex="0062"/>
  <outline>
    <contour>
      <point x="303" y="-8" type="curve" smooth="yes"/>
      <point x="175" y="-8"/>
      <point x="113" y="82"/>
      <point x="98" y="155" type="curve"/>
      <point x="73" y="0" type="line"/>
      <point x="39" y="0" type="line"/>
      <point x="161" y="773" type="line"/>
      <point x="195" y="773" type="line"/>
      <point x="135" y="394" type="line"/>
      <point x="173" y="470"/>
      <point x="249" y="531"/>
      <point x="349" y="531" type="curve" smooth="yes"/>
      <point x="466" y="531"/>
      <point x="558" y="438"/>
      <point x="558" y="295" type="curve" smooth="yes"/>
      <point x="558" y="130"/>
      <point x="470" y="-8"/>
    </contour>
    <contour>
      <point x="301" y="22" type="curve" smooth="yes"/>
      <point x="448" y="22"/>
      <point x="523" y="142"/>
      <point x="523" y="294" type="curve" smooth="yes"/>
      <point x="523" y="424"/>
      <point x="443" y="502"/>
      <point x="345" y="502" type="curve" smooth="yes"/>
      <point x="201" y="502"/>
      <point x="113" y="369"/>
      <point x="111" y="233" type="curve" smooth="yes"/>
      <point x="110" y="101"/>
      <point x="191" y="22"/>
    </contour>
  </outline>
</glyph>
<glyph name="c" format="2">
  <advance width="543"/>
  <unicode hex="0063"/>
  <outline>
    <contour>
      <point x="272" y="-7" type="curve" smooth="yes"/>
      <point x="128" y="-7"/>
      <point x="41" y="91"/>
      <point x="41" y="231" type="curve" smooth="yes"/>
      <point x="41" y="402"/>
      <point x="155" y="530"/>
      <point x="311" y="530" type="curve" smooth="yes"/>
      <point x="421" y="530"/>
      <point x="502" y="465"/>
      <point x="509" y="359" type="curve"/>
      <point x="475" y="359" type="line"/>
      <point x="470" y="446"/>
      <point x="405" y="501"/>
      <point x="309" y="501" type="curve" smooth="yes"/>
      <point x="168" y="501"/>
      <point x="76" y="383"/>
      <point x="76" y="231" type="curve" smooth="yes"/>
      <point x="76" y="102"/>
      <point x="153" y="22"/>
      <point x="272" y="22" type="curve" smooth="yes"/>
      <point x="368" y="22"/>
      <point x="443" y="75"/>
      <point x="468" y="174" type="curve"/>
      <point x="501" y="174" type="line"/>
      <point x="474" y="55"/>
      <point x="383" y="-7"/>
    </contour>
  </outline>
</glyph>
<glyph name="d" format="2">
  <advance width="597"/>
  <unicode hex="0064"/>
  <outline>
    <contour>
      <point x="253" y="-8" type="curve" smooth="yes"/>
      <point x="130" y="-8"/>
      <point x="38" y="81"/>
      <point x="38" y="224" type="curve" smooth="yes"/>
      <point x="38" y="390"/>
      <point x="139" y="531"/>
      <point x="301" y="531" type="curve" smooth="yes"/>
      <point x="428" y="531"/>
      <point x="485" y="440"/>
      <point x="498" y="369" type="curve"/>
      <point x="563" y="773" type="line"/>
      <point x="597" y="773" type="line"/>
      <point x="501" y="169" type="line" smooth="yes"/>
      <point x="487" y="82"/>
      <point x="485" y="33"/>
      <point x="484" y="0" type="curve"/>
      <point x="451" y="0" type="line"/>
      <point x="451" y="34"/>
      <point x="457" y="91"/>
      <point x="463" y="129" type="curve"/>
      <point x="426" y="51"/>
      <point x="353" y="-8"/>
    </contour>
    <contour>
      <point x="255" y="22" type="curve" smooth="yes"/>
      <point x="399" y="22"/>
      <point x="484" y="152"/>
      <point x="485" y="290" type="curve" smooth="yes"/>
      <point x="487" y="422"/>
      <point x="410" y="501"/>
      <point x="302" y="501" type="curve" smooth="yes"/>
      <point x="159" y="501"/>
      <point x="73" y="377"/>
      <point x="73" y="225" type="curve" smooth="yes"/>
      <point x="73" y="96"/>
      <point x="153" y="22"/>
    </contour>
  </outline>
</glyph>
<glyph name="f" format="2">
  <advance width="322"/>
  <unicode hex="0066"/>
  <outline>
    <contour>
      <point x="59" y="494" type="line"/>
      <point x="64" y="523" type="line"/>
      <point x="146" y="523" type="line"/>
      <point x="162" y="622" type="line" smooth="yes"/>
      <point x="181" y="739"/>
      <point x="249" y="776"/>
      <point x="323" y="776" type="curve" smooth="yes"/>
      <point x="349" y="776"/>
      <point x="366" y="773"/>
      <point x="383" y="767" type="curve"/>
      <point x="379" y="738" type="line"/>
      <point x="361" y="744"/>
      <point x="346" y="747"/>
      <point x="324" y="747" type="curve" smooth="yes"/>
      <point x="263" y="747"/>
      <point x="213" y="720"/>
      <point x="196" y="621" type="curve" smooth="yes"/>
      <point x="180" y="523" type="line"/>
      <point x="337" y="523" type="line"/>
      <point x="332" y="494" type="line"/>
      <point x="176" y="494" type="line"/>
      <point x="98" y="0" type="line"/>
      <point x="64" y="0" type="line"/>
      <point x="142" y="494" type="line"/>
    </contour>
  </outline>
</glyph>
<glyph name="j" format="2">
  <advance width="200"/>
  <unicode hex="006A"/>
  <outline>
    <contour>
      <point x="-65" y="-186" type="curve"/>
      <point x="-60" y="-156" type="line"/>
      <point x="-2" y="-153"/>
      <point x="20" y="-126"/>
      <point x="30" y="-67" type="curve" smooth="yes"/>
      <point x="123" y="523" type="line"/>
      <point x="158" y="523" type="line"/>
      <point x="64" y="-69" type="line" smooth="yes"/>
      <point x="51" y="-151"/>
      <point x="13" y="-183"/>
    </contour>
    <contour>
      <point x="161" y="637" type="curve" smooth="yes"/>
      <point x="146" y="637"/>
      <point x="135" y="649"/>
      <point x="135" y="664" type="curve" smooth="yes"/>
      <point x="135" y="678"/>
      <point x="147" y="690"/>
      <point x="162" y="690" type="curve" smooth="yes"/>
      <point x="177" y="690"/>
      <point x="188" y="678"/>
      <point x="188" y="664" type="curve" smooth="yes"/>
      <point x="188" y="650"/>
      <point x="176" y="637"/>
    </contour>
  </outline>
</glyph>
<glyph name="k" format="2">
  <advance width="467"/>
  <unicode hex="006B"/>
  <outline>
    <contour>
      <point x="366" y="0" type="line"/>
      <point x="121" y="282" type="line"/>
      <point x="427" y="523" type="line"/>
      <point x="472" y="523" type="line"/>
      <point x="163" y="281" type="line"/>
      <point x="407" y="0" type="line"/>
    </contour>
    <contour>
      <point x="39" y="0" type="line"/>
      <point x="161" y="773" type="line"/>
      <point x="195" y="773" type="line"/>
      <point x="73" y="0" type="line"/>
    </contour>
  </outline>
</glyph>
<glyph name="l" format="2">
  <advance width="201"/>
  <unicode hex="006C"/>
  <outline>
    <contour>
      <point x="41" y="0" type="line"/>
      <point x="163" y="773" type="line"/>
      <point x="198" y="773" type="line"/>
      <point x="76" y="0" type="line"/>
    </contour>
  </outline>
</glyph>
<glyph name="m" format="2">
  <advance width="887"/>
  <unicode hex="006D"/>
  <outline>
    <contour>
      <point x="39" y="0" type="line"/>
      <point x="99" y="384" type="line" smooth="yes"/>
      <point x="110" y="453"/>
      <point x="112" y="490"/>
      <point x="114" y="523" type="curve"/>
      <point x="147" y="523" type="line"/>
      <point x="146" y="496"/>
      <point x="143" y="456"/>
      <point x="136" y="411" type="curve"/>
      <point x="172" y="477"/>
      <point x="232" y="531"/>
      <point x="321" y="531" type="curve" smooth="yes"/>
      <point x="407" y="531"/>
      <point x="465" y="485"/>
      <point x="472" y="395" type="curve"/>
      <point x="507" y="477"/>
      <point x="583" y="531"/>
      <point x="667" y="531" type="curve" smooth="yes"/>
      <point x="777" y="531"/>
      <point x="842" y="462"/>
      <point x="818" y="310" type="curve" smooth="yes"/>
      <point x="769" y="0" type="line"/>
      <point x="735" y="0" type="line"/>
      <point x="784" y="314" type="line" smooth="yes"/>
      <point x="804" y="443"/>
      <point x="757" y="501"/>
      <point x="663" y="501" type="curve" smooth="yes"/>
      <point x="575" y="501"/>
      <point x="489" y="434"/>
      <point x="471" y="315" type="curve" smooth="yes"/>
      <point x="421" y="0" type="line"/>
      <point x="387" y="0" type="line"/>
      <point x="437" y="315" type="line" smooth="yes"/>
      <point x="457" y="440"/>
      <point x="409" y="501"/>
      <point x="316" y="501" type="curve" smooth="yes"/>
      <point x="227" y="501"/>
      <point x="141" y="432"/>
      <point x="123" y="315" type="curve" smooth="yes"/>
      <point x="73" y="0" type="line"/>
    </contour>
  </outline>
</glyph>
<glyph name="n" format="2">
  <advance width="567"/>
  <unicode hex="006E"/>
  <outline>
    <contour>
      <point x="39" y="0" type="line"/>
      <point x="99" y="384" type="line" smooth="yes"/>
      <point x="110" y="453"/>
      <point x="112" y="490"/>
      <point x="114" y="523" type="curve"/>
      <point x="147" y="523" type="line"/>
      <point x="146" y="496"/>
      <point x="143" y="453"/>
      <point x="136" y="408" type="curve"/>
      <point x="171" y="475"/>
      <point x="242" y="531"/>
      <point x="338" y="531" type="curve" smooth="yes"/>
      <point x="452" y="531"/>
      <point x="521" y="459"/>
      <point x="498" y="311" type="curve" smooth="yes"/>
      <point x="449" y="0" type="line"/>
      <point x="414" y="0" type="line"/>
      <point x="464" y="316" type="line" smooth="yes"/>
      <point x="484" y="441"/>
      <point x="429" y="501"/>
      <point x="333" y="501" type="curve" smooth="yes"/>
      <point x="238" y="501"/>
      <point x="142" y="435"/>
      <point x="123" y="314" type="curve" smooth="yes"/>
      <point x="73" y="0" type="line"/>
    </contour>
  </outline>
</glyph>
<glyph name="o" format="2">
  <advance width="573"/>
  <unicode hex="006F"/>
  <outline>
    <contour>
      <point x="265" y="-7" type="curve" smooth="yes"/>
      <point x="128" y="-7"/>
      <point x="37" y="98"/>
      <point x="37" y="229" type="curve" smooth="yes"/>
      <point x="37" y="390"/>
      <point x="143" y="530"/>
      <point x="310" y="530" type="curve" smooth="yes"/>
      <point x="451" y="530"/>
      <point x="535" y="422"/>
      <point x="535" y="294" type="curve" smooth="yes"/>
      <point x="535" y="125"/>
      <point x="431" y="-7"/>
    </contour>
    <contour>
      <point x="266" y="22" type="curve" smooth="yes"/>
      <point x="411" y="22"/>
      <point x="500" y="141"/>
      <point x="500" y="294" type="curve" smooth="yes"/>
      <point x="500" y="406"/>
      <point x="432" y="501"/>
      <point x="309" y="501" type="curve" smooth="yes"/>
      <point x="159" y="501"/>
      <point x="72" y="376"/>
      <point x="72" y="229" type="curve" smooth="yes"/>
      <point x="72" y="116"/>
      <point x="145" y="22"/>
    </contour>
  </outline>
</glyph>
<glyph name="p" format="2">
  <advance width="596"/>
  <unicode hex="0070"/>
  <outline>
    <contour>
      <point x="349" y="531" type="curve" smooth="yes"/>
      <point x="466" y="531"/>
      <point x="558" y="438"/>
      <point x="558" y="295" type="curve" smooth="yes"/>
      <point x="558" y="130"/>
      <point x="470" y="-8"/>
      <point x="303" y="-8" type="curve" smooth="yes"/>
      <point x="175" y="-8"/>
      <point x="114" y="82"/>
      <point x="98" y="154" type="curve"/>
      <point x="44" y="-182" type="line"/>
      <point x="10" y="-182" type="line"/>
      <point x="95" y="354" type="line" smooth="yes"/>
      <point x="108" y="439"/>
      <point x="112" y="490"/>
      <point x="114" y="523" type="curve"/>
      <point x="147" y="523" type="line"/>
      <point x="146" y="496"/>
      <point x="140" y="434"/>
      <point x="133" y="389" type="curve"/>
      <point x="171" y="471"/>
      <point x="249" y="531"/>
    </contour>
    <contour>
      <point x="301" y="22" type="curve" smooth="yes"/>
      <point x="448" y="22"/>
      <point x="523" y="142"/>
      <point x="523" y="294" type="curve" smooth="yes"/>
      <point x="523" y="424"/>
      <point x="443" y="502"/>
      <point x="345" y="502" type="curve" smooth="yes"/>
      <point x="201" y="502"/>
      <point x="113" y="369"/>
      <point x="111" y="233" type="curve" smooth="yes"/>
      <point x="110" y="101"/>
      <point x="191" y="22"/>
    </contour>
  </outline>
</glyph>
<glyph name="q" format="2">
  <advance width="598"/>
  <unicode hex="0071"/>
  <outline>
    <contour>
      <point x="412" y="-182" type="line"/>
      <point x="460" y="126" type="line"/>
      <point x="423" y="49"/>
      <point x="353" y="-8"/>
      <point x="253" y="-8" type="curve" smooth="yes"/>
      <point x="130" y="-8"/>
      <point x="38" y="81"/>
      <point x="38" y="224" type="curve" smooth="yes"/>
      <point x="38" y="390"/>
      <point x="139" y="531"/>
      <point x="301" y="531" type="curve" smooth="yes"/>
      <point x="428" y="531"/>
      <point x="485" y="440"/>
      <point x="498" y="369" type="curve"/>
      <point x="523" y="523" type="line"/>
      <point x="557" y="523" type="line"/>
      <point x="446" y="-182" type="line"/>
    </contour>
    <contour>
      <point x="255" y="22" type="curve" smooth="yes"/>
      <point x="399" y="22"/>
      <point x="484" y="152"/>
      <point x="485" y="290" type="curve" smooth="yes"/>
      <point x="487" y="422"/>
      <point x="410" y="501"/>
      <point x="302" y="501" type="curve" smooth="yes"/>
      <point x="159" y="501"/>
      <point x="73" y="377"/>
      <point x="73" y="225" type="curve" smooth="yes"/>
      <point x="73" y="96"/>
      <point x="153" y="22"/>
    </contour>
  </outline>
</glyph>
<glyph name="v" format="2">
  <advance width="498"/>
  <unicode hex="0076"/>
  <outline>
    <contour>
      <point x="188" y="0" type="line"/>
      <point x="65" y="523" type="line"/>
      <point x="100" y="523" type="line"/>
      <point x="216" y="34" type="line"/>
      <point x="478" y="523" type="line"/>
      <point x="514" y="523" type="line"/>
      <point x="234" y="0" type="line"/>
    </contour>
  </outline>
</glyph>
<glyph name="x" format="2">
  <advance width="487"/>
  <unicode hex="0078"/>
  <outline>
    <contour>
      <point x="-16" y="0" type="line"/>
      <point x="222" y="274" type="line"/>
      <point x="79" y="523" type="line"/>
      <point x="118" y="523" type="line"/>
      <point x="246" y="298" type="line"/>
      <point x="441" y="523" type="line"/>
      <point x="481" y="523" type="line"/>
      <point x="263" y="270" type="line"/>
      <point x="418" y="0" type="line"/>
      <point x="379" y="0" type="line"/>
      <point x="238" y="247" type="line"/>
      <point x="24" y="0" type="line"/>
    </contour>
  </outline>
</glyph>
<glyph name="z" format="2">
  <advance width="462"/>
  <unicode hex="007A"/>
  <outline>
    <contour>
      <point x="-17" y="0" type="line"/>
      <point x="-16" y="7" type="line"/>
      <point x="412" y="494" type="line"/>
      <point x="91" y="494" type="line"/>
      <point x="96" y="523" type="line"/>
      <point x="473" y="523" type="line"/>
      <point x="472" y="516" type="line"/>
      <point x="46" y="30" type="line"/>
      <point x="388" y="30" type="line"/>
      <point x="382" y="0" type="line"/>
    </contour>
  </outline>
</glyph>
<glyph name="braceleft" format="2">
  <advance width="351"/>
  <unicode hex="007B"/>
  <outline>
    <contour>
      <point x="245" y="-145" type="line"/>
      <point x="114" y="-137"/>
      <point x="64" y="-67"/>
      <point x="109" y="56" type="curve" smooth="yes"/>
      <point x="151" y="173" type="line" smooth="yes"/>
      <point x="179" y="251"/>
      <point x="156" y="308"/>
      <point x="50" y="313" type="curve"/>
      <point x="55" y="340" type="line"/>
      <point x="160" y="340"/>
      <point x="199" y="384"/>
      <point x="196" y="466" type="curve" smooth="yes"/>
      <point x="191" y="592" type="line" smooth="yes"/>
      <point x="185" y="732"/>
      <point x="257" y="773"/>
      <point x="391" y="777" type="curve"/>
      <point x="386" y="749" type="line"/>
      <point x="276" y="745"/>
      <point x="218" y="716"/>
      <point x="223" y="591" type="curve" smooth="yes"/>
      <point x="228" y="467" type="line" smooth="yes"/>
      <point x="231" y="373"/>
      <point x="183" y="337"/>
      <point x="114" y="324" type="curve"/>
      <point x="181" y="307"/>
      <point x="212" y="252"/>
      <point x="181" y="166" type="curve" smooth="yes"/>
      <point x="140" y="51" type="line" smooth="yes"/>
      <point x="101" y="-59"/>
      <point x="139" y="-110"/>
      <point x="250" y="-117" type="curve"/>
    </contour>
  </outline>
</glyph>
<glyph name="bar" format="2">
  <advance width="233"/>
  <unicode hex="007C"/>
  <outline>
    <contour>
      <point x="113" y="-148" type="line"/>
      <point x="113" y="776" type="line"/>
      <point x="143" y="776" type="line"/>
      <point x="143" y="-148" type="line"/>
    </contour>
  </outline>
</glyph>
<glyph name="braceright" format="2">
  <advance width="351"/>
  <unicode hex="007D"/>
  <outline>
    <contour>
      <point x="121" y="777" type="line"/>
      <point x="252" y="769"/>
      <point x="302" y="699"/>
      <point x="257" y="576" type="curve" smooth="yes"/>
      <point x="215" y="459" type="line" smooth="yes"/>
      <point x="188" y="382"/>
      <point x="210" y="324"/>
      <point x="316" y="317" type="curve"/>
      <point x="312" y="290" type="line"/>
      <point x="207" y="292"/>
      <point x="167" y="249"/>
      <point x="170" y="166" type="curve" smooth="yes"/>
      <point x="176" y="40" type="line" smooth="yes"/>
      <point x="181" y="-100"/>
      <point x="110" y="-141"/>
      <point x="-25" y="-145" type="curve"/>
      <point x="-20" y="-117" type="line"/>
      <point x="90" y="-113"/>
      <point x="148" y="-84"/>
      <point x="143" y="42" type="curve" smooth="yes"/>
      <point x="138" y="167" type="line" smooth="yes"/>
      <point x="135" y="261"/>
      <point x="184" y="296"/>
      <point x="252" y="307" type="curve"/>
      <point x="185" y="325"/>
      <point x="154" y="381"/>
      <point x="185" y="465" type="curve" smooth="yes"/>
      <point x="226" y="581" type="line" smooth="yes"/>
      <point x="265" y="691"/>
      <point x="228" y="742"/>
      <point x="117" y="749" type="curve"/>
    </contour>
  </outline>
</glyph>
<glyph name="asciitilde" format="2">
  <advance width="433"/>
  <unicode hex="007E"/>
  <outline>
    <contour>
      <point x="46" y="237" type="line"/>
      <point x="58" y="296"/>
      <point x="92" y="336"/>
      <point x="141" y="336" type="curve" smooth="yes"/>
      <point x="204" y="336"/>
      <point x="246" y="270"/>
      <point x="296" y="270" type="curve" smooth="yes"/>
      <point x="332" y="270"/>
      <point x="355" y="301"/>
      <point x="362" y="338" type="curve"/>
      <point x="392" y="338" type="line"/>
      <point x="380" y="279"/>
      <point x="346" y="239"/>
      <point x="297" y="239" type="curve" smooth="yes"/>
      <point x="233" y="239"/>
      <point x="191" y="305"/>
      <point x="142" y="305" type="curve" smooth="yes"/>
      <point x="107" y="305"/>
      <point x="84" y="274"/>
      <point x="76" y="237" type="curve"/>
    </contour>
  </outline>
</glyph>
<glyph name="exclamdown" format="2">
  <advance width="263"/>
  <unicode hex="00A1"/>
  <outline>
    <contour>
      <point x="171" y="434" type="line"/>
      <point x="89" y="-117" type="line"/>
      <point x="51" y="-117" type="line"/>
      <point x="143" y="434" type="line"/>
    </contour>
    <contour>
      <point x="180" y="603" type="curve" smooth="yes"/>
      <point x="196" y="603"/>
      <point x="209" y="590"/>
      <point x="209" y="574" type="curve" smooth="yes"/>
      <point x="209" y="559"/>
      <point x="196" y="546"/>
      <point x="180" y="546" type="curve" smooth="yes"/>
      <point x="164" y="546"/>
      <point x="151" y="559"/>
      <point x="151" y="574" type="curve" smooth="yes"/>
      <point x="151" y="590"/>
      <point x="164" y="603"/>
    </contour>
  </outline>
</glyph>
<glyph name="cent" format="2">
  <advance width="545"/>
  <unicode hex="00A2"/>
  <outline>
    <contour>
      <point x="273" y="-7" type="curve" smooth="yes"/>
      <point x="267" y="-7"/>
      <point x="262" y="-7"/>
      <point x="256" y="-6" type="curve"/>
      <point x="236" y="-135" type="line"/>
      <point x="207" y="-135" type="line"/>
      <point x="228" y="-3" type="line"/>
      <point x="111" y="14"/>
      <point x="41" y="105"/>
      <point x="41" y="230" type="curve" smooth="yes"/>
      <point x="41" y="402"/>
      <point x="156" y="530"/>
      <point x="312" y="530" type="curve"/>
      <point x="328" y="629" type="line"/>
      <point x="357" y="629" type="line"/>
      <point x="341" y="528" type="line"/>
      <point x="436" y="518"/>
      <point x="504" y="455"/>
      <point x="511" y="359" type="curve"/>
      <point x="477" y="359" type="line"/>
      <point x="473" y="437"/>
      <point x="418" y="490"/>
      <point x="336" y="499" type="curve"/>
      <point x="261" y="22" type="line"/>
      <point x="273" y="22" type="line" smooth="yes"/>
      <point x="367" y="22"/>
      <point x="444" y="72"/>
      <point x="469" y="174" type="curve"/>
      <point x="502" y="174" type="line"/>
      <point x="476" y="52"/>
      <point x="383" y="-7"/>
    </contour>
    <contour>
      <point x="76" y="230" type="curve" smooth="yes"/>
      <point x="76" y="116"/>
      <point x="136" y="41"/>
      <point x="232" y="25" type="curve"/>
      <point x="308" y="501" type="line"/>
      <point x="169" y="500"/>
      <point x="76" y="382"/>
    </contour>
  </outline>
</glyph>
<glyph name="sterling" format="2">
  <advance width="585"/>
  <unicode hex="00A3"/>
  <outline>
    <contour>
      <point x="60" y="334" type="line"/>
      <point x="65" y="363" type="line"/>
      <point x="142" y="363" type="line"/>
      <point x="137" y="400"/>
      <point x="133" y="438"/>
      <point x="133" y="477" type="curve" smooth="yes"/>
      <point x="133" y="617"/>
      <point x="213" y="722"/>
      <point x="368" y="722" type="curve" smooth="yes"/>
      <point x="496" y="722"/>
      <point x="559" y="650"/>
      <point x="562" y="543" type="curve"/>
      <point x="527" y="543" type="line"/>
      <point x="523" y="630"/>
      <point x="475" y="691"/>
      <point x="367" y="691" type="curve" smooth="yes"/>
      <point x="237" y="691"/>
      <point x="169" y="603"/>
      <point x="169" y="477" type="curve" smooth="yes"/>
      <point x="169" y="438"/>
      <point x="173" y="401"/>
      <point x="177" y="363" type="curve"/>
      <point x="415" y="363" type="line"/>
      <point x="410" y="334" type="line"/>
      <point x="180" y="334" type="line"/>
      <point x="182" y="311"/>
      <point x="184" y="288"/>
      <point x="184" y="263" type="curve" smooth="yes"/>
      <point x="184" y="192"/>
      <point x="171" y="145"/>
      <point x="141" y="101" type="curve"/>
      <point x="221" y="92"/>
      <point x="299" y="24"/>
      <point x="381" y="24" type="curve" smooth="yes"/>
      <point x="439" y="24"/>
      <point x="487" y="63"/>
      <point x="497" y="140" type="curve"/>
      <point x="530" y="140" type="line"/>
      <point x="518" y="46"/>
      <point x="457" y="-7"/>
      <point x="380" y="-7" type="curve" smooth="yes"/>
      <point x="284" y="-7"/>
      <point x="200" y="72"/>
      <point x="126" y="72" type="curve" smooth="yes"/>
      <point x="79" y="72"/>
      <point x="47" y="42"/>
      <point x="37" y="0" type="curve"/>
      <point x="4" y="0" type="line"/>
      <point x="14" y="47"/>
      <point x="50" y="91"/>
      <point x="104" y="100" type="curve"/>
      <point x="136" y="144"/>
      <point x="150" y="194"/>
      <point x="150" y="261" type="curve" smooth="yes"/>
      <point x="150" y="285"/>
      <point x="148" y="310"/>
      <point x="145" y="334" type="curve"/>
    </contour>
  </outline>
</glyph>
<glyph name="yen" format="2">
  <advance width="531"/>
  <unicode hex="00A5"/>
  <outline>
    <contour>
      <point x="73" y="318" type="line"/>
      <point x="78" y="347" type="line"/>
      <point x="259" y="347" type="line"/>
      <point x="99" y="715" type="line"/>
      <point x="137" y="715" type="line"/>
      <point x="288" y="365" type="line"/>
      <point x="537" y="715" type="line"/>
      <point x="574" y="715" type="line"/>
      <point x="311" y="347" type="line"/>
      <point x="490" y="347" type="line"/>
      <point x="485" y="318" type="line"/>
      <point x="298" y="318" type="line"/>
      <point x="281" y="211" type="line"/>
      <point x="468" y="211" type="line"/>
      <point x="463" y="182" type="line"/>
      <point x="277" y="182" type="line"/>
      <point x="248" y="0" type="line"/>
      <point x="213" y="0" type="line"/>
      <point x="241" y="182" type="line"/>
      <point x="51" y="182" type="line"/>
      <point x="56" y="211" type="line"/>
      <point x="246" y="211" type="line"/>
      <point x="262" y="318" type="line"/>
    </contour>
  </outline>
</glyph>
<glyph name="section" format="2">
  <advance width="532"/>
  <unicode hex="00A7"/>
  <outline>
    <contour>
      <point x="216" y="-137" type="curve" smooth="yes"/>
      <point x="123" y="-137"/>
      <point x="47" y="-89"/>
      <point x="41" y="10" type="curve"/>
      <point x="76" y="10" type="line"/>
      <point x="84" y="-66"/>
      <point x="137" y="-107"/>
      <point x="217" y="-107" type="curve" smooth="yes"/>
      <point x="295" y="-108"/>
      <point x="360" y="-60"/>
      <point x="360" y="20" type="curve" smooth="yes"/>
      <point x="360" y="82"/>
      <point x="322" y="118"/>
      <point x="220" y="155" type="curve" smooth="yes"/>
      <point x="118" y="193"/>
      <point x="57" y="235"/>
      <point x="57" y="315" type="curve" smooth="yes"/>
      <point x="57" y="402"/>
      <point x="136" y="439"/>
      <point x="218" y="455" type="curve"/>
      <point x="181" y="481"/>
      <point x="158" y="518"/>
      <point x="158" y="571" type="curve" smooth="yes"/>
      <point x="158" y="658"/>
      <point x="233" y="725"/>
      <point x="332" y="724" type="curve" smooth="yes"/>
      <point x="418" y="724"/>
      <point x="485" y="681"/>
      <point x="486" y="585" type="curve"/>
      <point x="451" y="585" type="line"/>
      <point x="451" y="655"/>
      <point x="405" y="694"/>
      <point x="330" y="694" type="curve" smooth="yes"/>
      <point x="254" y="695"/>
      <point x="193" y="649"/>
      <point x="193" y="573" type="curve" smooth="yes"/>
      <point x="193" y="518"/>
      <point x="220" y="478"/>
      <point x="325" y="437" type="curve" smooth="yes"/>
      <point x="425" y="398"/>
      <point x="485" y="357"/>
      <point x="485" y="275" type="curve" smooth="yes"/>
      <point x="485" y="195"/>
      <point x="415" y="154"/>
      <point x="332" y="138" type="curve"/>
      <point x="368" y="114"/>
      <point x="395" y="75"/>
      <point x="395" y="22" type="curve" smooth="yes"/>
      <point x="395" y="-73"/>
      <point x="318" y="-137"/>
    </contour>
    <contour>
      <point x="305" y="157" type="line"/>
      <point x="381" y="168"/>
      <point x="450" y="202"/>
      <point x="450" y="273" type="curve" smooth="yes"/>
      <point x="450" y="336"/>
      <point x="401" y="370"/>
      <point x="316" y="406" type="curve" smooth="yes"/>
      <point x="243" y="437" type="line"/>
      <point x="164" y="424"/>
      <point x="92" y="394"/>
      <point x="92" y="317" type="curve" smooth="yes"/>
      <point x="92" y="255"/>
      <point x="143" y="219"/>
      <point x="228" y="187" type="curve" smooth="yes"/>
    </contour>
  </outline>
</glyph>
<glyph name="dieresis" format="2">
  <advance width="400"/>
  <unicode hex="00A8"/>
  <outline>
    <contour>
      <point x="186" y="638" type="curve" smooth="yes"/>
      <point x="171" y="638"/>
      <point x="160" y="650"/>
      <point x="160" y="664" type="curve" smooth="yes"/>
      <point x="160" y="678"/>
      <point x="171" y="690"/>
      <point x="186" y="690" type="curve" smooth="yes"/>
      <point x="201" y="690"/>
      <point x="212" y="678"/>
      <point x="212" y="664" type="curve" smooth="yes"/>
      <point x="212" y="650"/>
      <point x="200" y="638"/>
    </contour>
    <contour>
      <point x="339" y="638" type="curve" smooth="yes"/>
      <point x="324" y="638"/>
      <point x="313" y="650"/>
      <point x="313" y="664" type="curve" smooth="yes"/>
      <point x="313" y="678"/>
      <point x="325" y="690"/>
      <point x="339" y="690" type="curve" smooth="yes"/>
      <point x="354" y="690"/>
      <point x="365" y="678"/>
      <point x="365" y="664" type="curve" smooth="yes"/>
      <point x="365" y="650"/>
      <point x="354" y="638"/>
    </contour>
  </outline>
</glyph>
<glyph name="copyright" format="2">
  <advance width="844"/>
  <unicode hex="00A9"/>
  <outline>
    <contour>
      <point x="437" y="148" type="curve" smooth="yes"/>
      <point x="316" y="148"/>
      <point x="240" y="234"/>
      <point x="240" y="358" type="curve" smooth="yes"/>
      <point x="240" y="365" type="line" smooth="yes"/>
      <point x="240" y="488"/>
      <point x="327" y="575"/>
      <point x="436" y="575" type="curve" smooth="yes"/>
      <point x="524" y="575"/>
      <point x="593" y="530"/>
      <point x="607" y="445" type="curve"/>
      <point x="574" y="445" type="line"/>
      <point x="560" y="511"/>
      <point x="512" y="547"/>
      <point x="436" y="547" type="curve" smooth="yes"/>
      <point x="343" y="547"/>
      <point x="274" y="474"/>
      <point x="274" y="365" type="curve" smooth="yes"/>
      <point x="274" y="359" type="line" smooth="yes"/>
      <point x="274" y="247"/>
      <point x="337" y="177"/>
      <point x="437" y="177" type="curve" smooth="yes"/>
      <point x="512" y="177"/>
      <point x="566" y="217"/>
      <point x="580" y="288" type="curve"/>
      <point x="612" y="288" type="line"/>
      <point x="597" y="199"/>
      <point x="527" y="148"/>
    </contour>
    <contour>
      <point x="433" y="-9" type="curve" smooth="yes"/>
      <point x="230" y="-9"/>
      <point x="67" y="150"/>
      <point x="67" y="357" type="curve" smooth="yes"/>
      <point x="67" y="561"/>
      <point x="229" y="724"/>
      <point x="435" y="724" type="curve" smooth="yes"/>
      <point x="643" y="724"/>
      <point x="801" y="562"/>
      <point x="801" y="359" type="curve" smooth="yes"/>
      <point x="801" y="151"/>
      <point x="639" y="-9"/>
    </contour>
    <contour>
      <point x="433" y="17" type="curve" smooth="yes"/>
      <point x="621" y="17"/>
      <point x="772" y="163"/>
      <point x="772" y="359" type="curve" smooth="yes"/>
      <point x="772" y="551"/>
      <point x="626" y="698"/>
      <point x="435" y="698" type="curve" smooth="yes"/>
      <point x="246" y="698"/>
      <point x="96" y="550"/>
      <point x="96" y="357" type="curve" smooth="yes"/>
      <point x="96" y="162"/>
      <point x="248" y="17"/>
    </contour>
  </outline>
</glyph>
<glyph name="ordfeminine" format="2">
  <advance width="418"/>
  <unicode hex="00AA"/>
  <outline>
    <contour>
      <point x="195" y="310" type="curve" smooth="yes"/>
      <point x="109" y="310"/>
      <point x="67" y="357"/>
      <point x="67" y="418" type="curve" smooth="yes"/>
      <point x="67" y="518"/>
      <point x="153" y="543"/>
      <point x="249" y="543" type="curve" smooth="yes"/>
      <point x="356" y="543" type="line"/>
      <point x="362" y="576" type="line" smooth="yes"/>
      <point x="372" y="651"/>
      <point x="346" y="694"/>
      <point x="262" y="694" type="curve" smooth="yes"/>
      <point x="204" y="694"/>
      <point x="159" y="668"/>
      <point x="141" y="605" type="curve"/>
      <point x="108" y="605" type="line"/>
      <point x="128" y="689"/>
      <point x="196" y="722"/>
      <point x="263" y="722" type="curve" smooth="yes"/>
      <point x="365" y="722"/>
      <point x="410" y="667"/>
      <point x="395" y="573" type="curve" smooth="yes"/>
      <point x="372" y="428" type="line" smooth="yes"/>
      <point x="364" y="375"/>
      <point x="363" y="341"/>
      <point x="363" y="315" type="curve"/>
      <point x="331" y="315" type="line"/>
      <point x="330" y="334"/>
      <point x="331" y="353"/>
      <point x="333" y="376" type="curve"/>
      <point x="308" y="337"/>
      <point x="260" y="310"/>
    </contour>
    <contour>
      <point x="201" y="337" type="curve" smooth="yes"/>
      <point x="271" y="337"/>
      <point x="330" y="378"/>
      <point x="341" y="441" type="curve" smooth="yes"/>
      <point x="353" y="516" type="line"/>
      <point x="247" y="516" type="line" smooth="yes"/>
      <point x="169" y="516"/>
      <point x="100" y="502"/>
      <point x="100" y="420" type="curve" smooth="yes"/>
      <point x="100" y="372"/>
      <point x="131" y="337"/>
    </contour>
  </outline>
</glyph>
<glyph name="guillemotleft" format="2">
  <advance width="415"/>
  <unicode hex="00AB"/>
  <outline>
    <contour>
      <point x="160" y="83" type="line"/>
      <point x="51" y="261" type="line"/>
      <point x="216" y="439" type="line"/>
      <point x="254" y="439" type="line"/>
      <point x="88" y="260" type="line"/>
      <point x="194" y="83" type="line"/>
    </contour>
    <contour>
      <point x="305" y="83" type="line"/>
      <point x="196" y="261" type="line"/>
      <point x="361" y="439" type="line"/>
      <point x="399" y="439" type="line"/>
      <point x="233" y="260" type="line"/>
      <point x="339" y="83" type="line"/>
    </contour>
  </outline>
</glyph>
<glyph name="registered" format="2">
  <advance width="514"/>
  <unicode hex="00AE"/>
  <outline>
    <contour>
      <point x="220" y="389" type="line"/>
      <point x="220" y="626" type="line"/>
      <point x="293" y="626" type="line" smooth="yes"/>
      <point x="343" y="626"/>
      <point x="377" y="604"/>
      <point x="377" y="560" type="curve" smooth="yes"/>
      <point x="377" y="559" type="line" smooth="yes"/>
      <point x="377" y="521"/>
      <point x="352" y="501"/>
      <point x="317" y="496" type="curve"/>
      <point x="390" y="389" type="line"/>
      <point x="359" y="389" type="line"/>
      <point x="287" y="493" type="line"/>
      <point x="247" y="493" type="line"/>
      <point x="247" y="389" type="line"/>
    </contour>
    <contour>
      <point x="247" y="515" type="line"/>
      <point x="294" y="515" type="line" smooth="yes"/>
      <point x="332" y="515"/>
      <point x="349" y="528"/>
      <point x="349" y="558" type="curve" smooth="yes"/>
      <point x="349" y="559" type="line" smooth="yes"/>
      <point x="349" y="591"/>
      <point x="331" y="603"/>
      <point x="294" y="603" type="curve" smooth="yes"/>
      <point x="247" y="603" type="line"/>
    </contour>
    <contour>
      <point x="293" y="282" type="curve" smooth="yes"/>
      <point x="170" y="282"/>
      <point x="71" y="377"/>
      <point x="71" y="502" type="curve" smooth="yes"/>
      <point x="71" y="625"/>
      <point x="169" y="724"/>
      <point x="293" y="724" type="curve" smooth="yes"/>
      <point x="419" y="724"/>
      <point x="515" y="626"/>
      <point x="515" y="503" type="curve" smooth="yes"/>
      <point x="515" y="378"/>
      <point x="417" y="282"/>
    </contour>
    <contour>
      <point x="293" y="304" type="curve" smooth="yes"/>
      <point x="404" y="304"/>
      <point x="490" y="389"/>
      <point x="490" y="503" type="curve" smooth="yes"/>
      <point x="490" y="616"/>
      <point x="406" y="702"/>
      <point x="293" y="702" type="curve" smooth="yes"/>
      <point x="181" y="702"/>
      <point x="96" y="615"/>
      <point x="96" y="502" type="curve" smooth="yes"/>
      <point x="96" y="388"/>
      <point x="183" y="304"/>
    </contour>
  </outline>
</glyph>
<glyph name="degree" format="2">
  <advance width="395"/>
  <unicode hex="00B0"/>
  <outline>
    <contour>
      <point x="243" y="467" type="curve" smooth="yes"/>
      <point x="310" y="468"/>
      <point x="359" y="518"/>
      <point x="359" y="588" type="curve" smooth="yes"/>
      <point x="359" y="649"/>
      <point x="313" y="698"/>
      <point x="249" y="698" type="curve" smooth="yes"/>
      <point x="185" y="698"/>
      <point x="131" y="647"/>
      <point x="131" y="578" type="curve" smooth="yes"/>
      <point x="131" y="517"/>
      <point x="178" y="467"/>
    </contour>
    <contour>
      <point x="242" y="441" type="curve" smooth="yes"/>
      <point x="162" y="441"/>
      <point x="100" y="502"/>
      <point x="100" y="577" type="curve" smooth="yes"/>
      <point x="100" y="657"/>
      <point x="166" y="724"/>
      <point x="250" y="724" type="curve" smooth="yes"/>
      <point x="329" y="724"/>
      <point x="391" y="664"/>
      <point x="391" y="588" type="curve" smooth="yes"/>
      <point x="391" y="507"/>
      <point x="326" y="441"/>
    </contour>
  </outline>
</glyph>
<glyph name="plusminus" format="2">
  <advance width="505"/>
  <unicode hex="00B1"/>
  <outline>
    <contour>
      <point x="214" y="123" type="line"/>
      <point x="246" y="332" type="line"/>
      <point x="47" y="332" type="line"/>
      <point x="52" y="362" type="line"/>
      <point x="251" y="362" type="line"/>
      <point x="285" y="572" type="line"/>
      <point x="317" y="572" type="line"/>
      <point x="283" y="362" type="line"/>
      <point x="483" y="362" type="line"/>
      <point x="478" y="332" type="line"/>
      <point x="278" y="332" type="line"/>
      <point x="245" y="123" type="line"/>
    </contour>
    <contour>
      <point x="-6" y="0" type="line"/>
      <point x="-1" y="30" type="line"/>
      <point x="430" y="30" type="line"/>
      <point x="425" y="0" type="line"/>
    </contour>
  </outline>
</glyph>
<glyph name="threesuperior" format="2">
  <advance width="307"/>
  <unicode hex="00B3"/>
  <outline>
    <contour>
      <point x="184" y="367" type="curve" smooth="yes"/>
      <point x="118" y="367"/>
      <point x="63" y="401"/>
      <point x="60" y="469" type="curve"/>
      <point x="89" y="469" type="line"/>
      <point x="93" y="422"/>
      <point x="128" y="392"/>
      <point x="184" y="392" type="curve" smooth="yes"/>
      <point x="232" y="392"/>
      <point x="274" y="417"/>
      <point x="274" y="472" type="curve" smooth="yes"/>
      <point x="274" y="509"/>
      <point x="249" y="539"/>
      <point x="201" y="539" type="curve" smooth="yes"/>
      <point x="177" y="539" type="line"/>
      <point x="181" y="563" type="line"/>
      <point x="209" y="563" type="line" smooth="yes"/>
      <point x="250" y="563"/>
      <point x="284" y="585"/>
      <point x="284" y="631" type="curve" smooth="yes"/>
      <point x="284" y="672"/>
      <point x="254" y="695"/>
      <point x="212" y="695" type="curve" smooth="yes"/>
      <point x="161" y="695"/>
      <point x="130" y="664"/>
      <point x="119" y="622" type="curve"/>
      <point x="91" y="622" type="line"/>
      <point x="102" y="679"/>
      <point x="148" y="718"/>
      <point x="212" y="718" type="curve" smooth="yes"/>
      <point x="265" y="718"/>
      <point x="314" y="691"/>
      <point x="314" y="632" type="curve" smooth="yes"/>
      <point x="314" y="591"/>
      <point x="289" y="561"/>
      <point x="246" y="550" type="curve"/>
      <point x="280" y="541"/>
      <point x="305" y="513"/>
      <point x="305" y="471" type="curve" smooth="yes"/>
      <point x="305" y="405"/>
      <point x="249" y="367"/>
    </contour>
  </outline>
</glyph>
<glyph name="acute" format="2">
  <advance width="400"/>
  <unicode hex="00B4"/>
  <outline>
    <contour>
      <point x="235" y="600" type="line"/>
      <point x="328" y="747" type="line"/>
      <point x="371" y="747" type="line"/>
      <point x="265" y="600" type="line"/>
    </contour>
  </outline>
</glyph>
<glyph name="paragraph" format="2">
  <advance width="542"/>
  <unicode hex="00B6"/>
  <outline>
    <contour>
      <point x="211" y="-100" type="line"/>
      <point x="283" y="357" type="line"/>
      <point x="278" y="357" type="line" smooth="yes"/>
      <point x="163" y="357"/>
      <point x="85" y="416"/>
      <point x="85" y="520" type="curve" smooth="yes"/>
      <point x="85" y="654"/>
      <point x="186" y="715"/>
      <point x="315" y="715" type="curve" smooth="yes"/>
      <point x="518" y="715" type="line"/>
      <point x="389" y="-100" type="line"/>
      <point x="358" y="-100" type="line"/>
      <point x="483" y="689" type="line"/>
      <point x="366" y="689" type="line"/>
      <point x="241" y="-100" type="line"/>
    </contour>
  </outline>
</glyph>
<glyph name="periodcentered" format="2">
  <advance width="195"/>
  <unicode hex="00B7"/>
  <outline>
    <contour>
      <point x="106" y="293" type="curve" smooth="yes"/>
      <point x="90" y="293"/>
      <point x="77" y="306"/>
      <point x="77" y="322" type="curve" smooth="yes"/>
      <point x="77" y="338"/>
      <point x="89" y="351"/>
      <point x="106" y="351" type="curve" smooth="yes"/>
      <point x="122" y="351"/>
      <point x="135" y="338"/>
      <point x="135" y="322" type="curve" smooth="yes"/>
      <point x="135" y="306"/>
      <point x="122" y="293"/>
    </contour>
  </outline>
</glyph>
<glyph name="cedilla" format="2">
  <advance width="400"/>
  <unicode hex="00B8"/>
  <outline>
    <contour>
      <point x="144" y="-211" type="curve" smooth="yes"/>
      <point x="93" y="-211"/>
      <point x="58" y="-185"/>
      <point x="54" y="-136" type="curve"/>
      <point x="86" y="-136" type="line"/>
      <point x="88" y="-166"/>
      <point x="109" y="-183"/>
      <point x="144" y="-183" type="curve" smooth="yes"/>
      <point x="171" y="-183"/>
      <point x="202" y="-170"/>
      <point x="202" y="-130" type="curve" smooth="yes"/>
      <point x="202" y="-100"/>
      <point x="181" y="-88"/>
      <point x="158" y="-88" type="curve" smooth="yes"/>
      <point x="137" y="-88"/>
      <point x="126" y="-93"/>
      <point x="117" y="-99" type="curve"/>
      <point x="100" y="-81" type="line"/>
      <point x="156" y="0" type="line"/>
      <point x="188" y="0" type="line"/>
      <point x="143" y="-65" type="line"/>
      <point x="188" y="-50"/>
      <point x="235" y="-76"/>
      <point x="235" y="-129" type="curve" smooth="yes"/>
      <point x="235" y="-181"/>
      <point x="198" y="-211"/>
    </contour>
  </outline>
</glyph>
<glyph name="onesuperior" format="2">
  <advance width="212"/>
  <unicode hex="00B9"/>
  <outline>
    <contour>
      <point x="127" y="371" type="line"/>
      <point x="176" y="679" type="line"/>
      <point x="75" y="614" type="line"/>
      <point x="79" y="644" type="line"/>
      <point x="190" y="715" type="line"/>
      <point x="213" y="715" type="line"/>
      <point x="158" y="371" type="line"/>
    </contour>
  </outline>
</glyph>
<glyph name="ordmasculine" format="2">
  <advance width="464"/>
  <unicode hex="00BA"/>
  <outline>
    <contour>
      <point x="254" y="310" type="curve" smooth="yes"/>
      <point x="147" y="310"/>
      <point x="78" y="388"/>
      <point x="78" y="490" type="curve" smooth="yes"/>
      <point x="78" y="615"/>
      <point x="160" y="721"/>
      <point x="289" y="721" type="curve" smooth="yes"/>
      <point x="399" y="721"/>
      <point x="463" y="639"/>
      <point x="463" y="541" type="curve" smooth="yes"/>
      <point x="463" y="410"/>
      <point x="381" y="310"/>
    </contour>
    <contour>
      <point x="255" y="338" type="curve" smooth="yes"/>
      <point x="363" y="338"/>
      <point x="428" y="426"/>
      <point x="428" y="541" type="curve" smooth="yes"/>
      <point x="428" y="624"/>
      <point x="379" y="693"/>
      <point x="287" y="693" type="curve" smooth="yes"/>
      <point x="177" y="693"/>
      <point x="113" y="600"/>
      <point x="113" y="490" type="curve" smooth="yes"/>
      <point x="113" y="406"/>
      <point x="164" y="338"/>
    </contour>
  </outline>
</glyph>
<glyph name="guillemotright" format="2">
  <advance width="415"/>
  <unicode hex="00BB"/>
  <outline>
    <contour>
      <point x="253" y="439" type="line"/>
      <point x="363" y="260" type="line"/>
      <point x="197" y="83" type="line"/>
      <point x="160" y="83" type="line"/>
      <point x="325" y="263" type="line"/>
      <point x="219" y="439" type="line"/>
    </contour>
    <contour>
      <point x="108" y="439" type="line"/>
      <point x="218" y="260" type="line"/>
      <point x="52" y="83" type="line"/>
      <point x="15" y="83" type="line"/>
      <point x="180" y="263" type="line"/>
      <point x="74" y="439" type="line"/>
    </contour>
  </outline>
</glyph>
<glyph name="onequarter" format="2">
  <advance width="665"/>
  <unicode hex="00BC"/>
  <outline>
    <contour>
      <point x="130" y="371" type="line"/>
      <point x="179" y="679" type="line"/>
      <point x="78" y="614" type="line"/>
      <point x="82" y="644" type="line"/>
      <point x="193" y="715" type="line"/>
      <point x="216" y="715" type="line"/>
      <point x="161" y="371" type="line"/>
    </contour>
    <contour>
      <point x="30" y="0" type="line"/>
      <point x="620" y="715" type="line"/>
      <point x="653" y="715" type="line"/>
      <point x="63" y="0" type="line"/>
    </contour>
    <contour>
      <point x="516" y="0" type="line"/>
      <point x="528" y="77" type="line"/>
      <point x="345" y="77" type="line"/>
      <point x="347" y="88" type="line"/>
      <point x="558" y="344" type="line"/>
      <point x="600" y="344" type="line"/>
      <point x="561" y="102" type="line"/>
      <point x="610" y="102" type="line"/>
      <point x="605" y="77" type="line"/>
      <point x="558" y="77" type="line"/>
      <point x="546" y="0" type="line"/>
    </contour>
    <contour>
      <point x="388" y="102" type="line"/>
      <point x="532" y="102" type="line"/>
      <point x="567" y="320" type="line"/>
    </contour>
  </outline>
</glyph>
<glyph name="onehalf" format="2">
  <advance width="669"/>
  <unicode hex="00BD"/>
  <outline>
    <contour>
      <point x="3" y="0" type="line"/>
      <point x="593" y="715" type="line"/>
      <point x="626" y="715" type="line"/>
      <point x="36" y="0" type="line"/>
    </contour>
    <contour>
      <point x="130" y="371" type="line"/>
      <point x="179" y="679" type="line"/>
      <point x="78" y="614" type="line"/>
      <point x="82" y="644" type="line"/>
      <point x="193" y="715" type="line"/>
      <point x="216" y="715" type="line"/>
      <point x="161" y="371" type="line"/>
    </contour>
    <contour>
      <point x="356" y="0" type="line"/>
      <point x="357" y="8" type="line"/>
      <point x="507" y="133" type="line" smooth="yes"/>
      <point x="556" y="172"/>
      <point x="594" y="205"/>
      <point x="594" y="257" type="curve" smooth="yes"/>
      <point x="594" y="296"/>
      <point x="567" y="323"/>
      <point x="525" y="323" type="curve" smooth="yes"/>
      <point x="477" y="323"/>
      <point x="442" y="295"/>
      <point x="429" y="238" type="curve"/>
      <point x="401" y="238" type="line"/>
      <point x="413" y="309"/>
      <point x="465" y="348"/>
      <point x="526" y="348" type="curve" smooth="yes"/>
      <point x="584" y="348"/>
      <point x="625" y="313"/>
      <point x="625" y="258" type="curve" smooth="yes"/>
      <point x="625" y="196"/>
      <point x="582" y="162"/>
      <point x="526" y="116" type="curve" smooth="yes"/>
      <point x="415" y="25" type="line"/>
      <point x="596" y="25" type="line"/>
      <point x="591" y="0" type="line"/>
    </contour>
  </outline>
</glyph>
<glyph name="threequarters" format="2">
  <advance width="693"/>
  <unicode hex="00BE"/>
  <outline>
    <contour>
      <point x="187" y="367" type="curve" smooth="yes"/>
      <point x="121" y="367"/>
      <point x="66" y="401"/>
      <point x="63" y="469" type="curve"/>
      <point x="92" y="469" type="line"/>
      <point x="96" y="422"/>
      <point x="131" y="392"/>
      <point x="187" y="392" type="curve" smooth="yes"/>
      <point x="235" y="392"/>
      <point x="277" y="417"/>
      <point x="277" y="472" type="curve" smooth="yes"/>
      <point x="277" y="509"/>
      <point x="252" y="539"/>
      <point x="204" y="539" type="curve" smooth="yes"/>
      <point x="180" y="539" type="line"/>
      <point x="184" y="563" type="line"/>
      <point x="212" y="563" type="line" smooth="yes"/>
      <point x="253" y="563"/>
      <point x="287" y="585"/>
      <point x="287" y="631" type="curve" smooth="yes"/>
      <point x="287" y="672"/>
      <point x="257" y="695"/>
      <point x="215" y="695" type="curve" smooth="yes"/>
      <point x="164" y="695"/>
      <point x="133" y="664"/>
      <point x="122" y="622" type="curve"/>
      <point x="94" y="622" type="line"/>
      <point x="105" y="679"/>
      <point x="151" y="718"/>
      <point x="215" y="718" type="curve" smooth="yes"/>
      <point x="268" y="718"/>
      <point x="317" y="691"/>
      <point x="317" y="632" type="curve" smooth="yes"/>
      <point x="317" y="591"/>
      <point x="292" y="561"/>
      <point x="249" y="550" type="curve"/>
      <point x="283" y="541"/>
      <point x="308" y="513"/>
      <point x="308" y="471" type="curve" smooth="yes"/>
      <point x="308" y="405"/>
      <point x="252" y="367"/>
    </contour>
    <contour>
      <point x="81" y="0" type="line"/>
      <point x="671" y="715" type="line"/>
      <point x="704" y="715" type="line"/>
      <point x="114" y="0" type="line"/>
    </contour>
    <contour>
      <point x="543" y="0" type="line"/>
      <point x="555" y="77" type="line"/>
      <point x="372" y="77" type="line"/>
      <point x="374" y="88" type="line"/>
      <point x="585" y="344" type="line"/>
      <point x="627" y="344" type="line"/>
      <point x="588" y="102" type="line"/>
      <point x="637" y="102" type="line"/>
      <point x="632" y="77" type="line"/>
      <point x="585" y="77" type="line"/>
      <point x="573" y="0" type="line"/>
    </contour>
    <contour>
      <point x="415" y="102" type="line"/>
      <point x="559" y="102" type="line"/>
      <point x="594" y="320" type="line"/>
    </contour>
  </outline>
</glyph>
<glyph name="questiondown" format="2">
  <advance width="469"/>
  <unicode hex="00BF"/>
  <outline>
    <contour>
      <point x="301" y="434" type="line"/>
      <point x="291" y="367" type="line" smooth="yes"/>
      <point x="278" y="282"/>
      <point x="231" y="245"/>
      <point x="163" y="192" type="curve" smooth="yes"/>
      <point x="100" y="142"/>
      <point x="45" y="106"/>
      <point x="45" y="20" type="curve" smooth="yes"/>
      <point x="45" y="-60"/>
      <point x="111" y="-94"/>
      <point x="183" y="-94" type="curve" smooth="yes"/>
      <point x="277" y="-94"/>
      <point x="345" y="-39"/>
      <point x="365" y="68" type="curve"/>
      <point x="398" y="68" type="line"/>
      <point x="379" y="-55"/>
      <point x="293" y="-124"/>
      <point x="181" y="-124" type="curve" smooth="yes"/>
      <point x="88" y="-124"/>
      <point x="10" y="-76"/>
      <point x="10" y="20" type="curve" smooth="yes"/>
      <point x="10" y="122"/>
      <point x="77" y="161"/>
      <point x="145" y="215" type="curve" smooth="yes"/>
      <point x="209" y="265"/>
      <point x="248" y="297"/>
      <point x="259" y="370" type="curve" smooth="yes"/>
      <point x="269" y="434" type="line"/>
    </contour>
    <contour>
      <point x="307" y="603" type="curve" smooth="yes"/>
      <point x="323" y="603"/>
      <point x="335" y="590"/>
      <point x="335" y="574" type="curve" smooth="yes"/>
      <point x="335" y="559"/>
      <point x="323" y="546"/>
      <point x="307" y="546" type="curve" smooth="yes"/>
      <point x="291" y="546"/>
      <point x="278" y="559"/>
      <point x="278" y="574" type="curve" smooth="yes"/>
      <point x="278" y="590"/>
      <point x="290" y="603"/>
    </contour>
  </outline>
</glyph>
<glyph name="Acircumflex" format="2">
  <advance width="635"/>
  <unicode hex="00C2"/>
  <outline>
    <contour>
      <point x="530" y="0" type="line"/>
      <point x="480" y="228" type="line"/>
      <point x="141" y="228" type="line"/>
      <point x="22" y="0" type="line"/>
      <point x="-14" y="0" type="line"/>
      <point x="361" y="715" type="line"/>
      <point x="409" y="715" type="line"/>
      <point x="565" y="0" type="line"/>
    </contour>
    <contour>
      <point x="380" y="687" type="line"/>
      <point x="156" y="258" type="line"/>
      <point x="473" y="258" type="line"/>
    </contour>
    <contour>
      <point x="257" y="771" type="line"/>
      <point x="384" y="891" type="line"/>
      <point x="417" y="891" type="line"/>
      <point x="513" y="771" type="line"/>
      <point x="484" y="771" type="line"/>
      <point x="398" y="862" type="line"/>
      <point x="289" y="771" type="line"/>
    </contour>
  </outline>
</glyph>
<glyph name="Atilde" format="2">
  <advance width="635"/>
  <unicode hex="00C3"/>
  <outline>
    <contour>
      <point x="530" y="0" type="line"/>
      <point x="480" y="228" type="line"/>
      <point x="141" y="228" type="line"/>
      <point x="22" y="0" type="line"/>
      <point x="-14" y="0" type="line"/>
      <point x="361" y="715" type="line"/>
      <point x="409" y="715" type="line"/>
      <point x="565" y="0" type="line"/>
    </contour>
    <contour>
      <point x="380" y="687" type="line"/>
      <point x="156" y="258" type="line"/>
      <point x="473" y="258" type="line"/>
    </contour>
    <contour>
      <point x="457" y="774" type="curve" smooth="yes"/>
      <point x="407" y="774"/>
      <point x="366" y="833"/>
      <point x="327" y="833" type="curve" smooth="yes"/>
      <point x="304" y="833"/>
      <point x="280" y="814"/>
      <point x="272" y="774" type="curve"/>
      <point x="244" y="774" type="line"/>
      <point x="256" y="833"/>
      <point x="288" y="863"/>
      <point x="328" y="863" type="curve" smooth="yes"/>
      <point x="377" y="863"/>
      <point x="418" y="804"/>
      <point x="458" y="804" type="curve" smooth="yes"/>
      <point x="481" y="804"/>
      <point x="504" y="823"/>
      <point x="513" y="862" type="curve"/>
      <point x="540" y="862" type="line"/>
      <point x="529" y="804"/>
      <point x="496" y="774"/>
    </contour>
  </outline>
</glyph>
<glyph name="Adieresis" format="2">
  <advance width="635"/>
  <unicode hex="00C4"/>
  <outline>
    <contour>
      <point x="530" y="0" type="line"/>
      <point x="480" y="228" type="line"/>
      <point x="141" y="228" type="line"/>
      <point x="22" y="0" type="line"/>
      <point x="-14" y="0" type="line"/>
      <point x="361" y="715" type="line"/>
      <point x="409" y="715" type="line"/>
      <point x="565" y="0" type="line"/>
    </contour>
    <contour>
      <point x="380" y="687" type="line"/>
      <point x="156" y="258" type="line"/>
      <point x="473" y="258" type="line"/>
    </contour>
    <contour>
      <point x="475" y="788" type="curve" smooth="yes"/>
      <point x="460" y="788"/>
      <point x="449" y="799"/>
      <point x="449" y="813" type="curve" smooth="yes"/>
      <point x="449" y="827"/>
      <point x="460" y="840"/>
      <point x="475" y="840" type="curve" smooth="yes"/>
      <point x="490" y="840"/>
      <point x="501" y="828"/>
      <point x="501" y="814" type="curve" smooth="yes"/>
      <point x="501" y="800"/>
      <point x="489" y="788"/>
    </contour>
    <contour>
      <point x="308" y="788" type="curve" smooth="yes"/>
      <point x="294" y="788"/>
      <point x="282" y="799"/>
      <point x="282" y="813" type="curve" smooth="yes"/>
      <point x="282" y="827"/>
      <point x="294" y="840"/>
      <point x="309" y="840" type="curve" smooth="yes"/>
      <point x="323" y="840"/>
      <point x="334" y="828"/>
      <point x="334" y="814" type="curve" smooth="yes"/>
      <point x="334" y="800"/>
      <point x="323" y="788"/>
    </contour>
  </outline>
</glyph>
<glyph name="Aring" format="2">
  <advance width="635"/>
  <unicode hex="00C5"/>
  <outline>
    <contour>
      <point x="530" y="0" type="line"/>
      <point x="480" y="228" type="line"/>
      <point x="141" y="228" type="line"/>
      <point x="22" y="0" type="line"/>
      <point x="-14" y="0" type="line"/>
      <point x="361" y="715" type="line"/>
      <point x="409" y="715" type="line"/>
      <point x="565" y="0" type="line"/>
    </contour>
    <contour>
      <point x="380" y="687" type="line"/>
      <point x="156" y="258" type="line"/>
      <point x="473" y="258" type="line"/>
    </contour>
    <contour>
      <point x="391" y="752" type="curve" smooth="yes"/>
      <point x="339" y="752"/>
      <point x="300" y="792"/>
      <point x="300" y="839" type="curve" smooth="yes"/>
      <point x="300" y="890"/>
      <point x="343" y="932"/>
      <point x="394" y="932" type="curve" smooth="yes"/>
      <point x="447" y="932"/>
      <point x="485" y="892"/>
      <point x="485" y="844" type="curve" smooth="yes"/>
      <point x="485" y="792"/>
      <point x="444" y="752"/>
    </contour>
    <contour>
      <point x="391" y="774" type="curve" smooth="yes"/>
      <point x="430" y="774"/>
      <point x="459" y="803"/>
      <point x="459" y="844" type="curve" smooth="yes"/>
      <point x="459" y="882"/>
      <point x="433" y="909"/>
      <point x="394" y="909" type="curve" smooth="yes"/>
      <point x="356" y="909"/>
      <point x="326" y="880"/>
      <point x="326" y="839" type="curve" smooth="yes"/>
      <point x="326" y="803"/>
      <point x="353" y="774"/>
    </contour>
  </outline>
</glyph>
<glyph name="AE" format="2">
  <advance width="943"/>
  <unicode hex="00C6"/>
  <outline>
    <contour>
      <point x="-14" y="0" type="line"/>
      <point x="454" y="715" type="line"/>
      <point x="943" y="715" type="line"/>
      <point x="938" y="685" type="line"/>
      <point x="573" y="685" type="line"/>
      <point x="525" y="384" type="line"/>
      <point x="827" y="384" type="line"/>
      <point x="822" y="353" type="line"/>
      <point x="521" y="353" type="line"/>
      <point x="469" y="31" type="line"/>
      <point x="859" y="31" type="line"/>
      <point x="854" y="0" type="line"/>
      <point x="429" y="0" type="line"/>
      <point x="465" y="228" type="line"/>
      <point x="174" y="228" type="line"/>
      <point x="26" y="0" type="line"/>
    </contour>
    <contour>
      <point x="472" y="685" type="line"/>
      <point x="194" y="258" type="line"/>
      <point x="469" y="258" type="line"/>
      <point x="537" y="685" type="line"/>
    </contour>
  </outline>
</glyph>
<glyph name="Ccedilla" format="2">
  <advance width="724"/>
  <unicode hex="00C7"/>
  <outline>
    <contour>
      <point x="297" y="-211" type="curve" smooth="yes"/>
      <point x="246" y="-211"/>
      <point x="211" y="-185"/>
      <point x="207" y="-136" type="curve"/>
      <point x="239" y="-136" type="line"/>
      <point x="241" y="-166"/>
      <point x="262" y="-183"/>
      <point x="297" y="-183" type="curve" smooth="yes"/>
      <point x="324" y="-183"/>
      <point x="355" y="-170"/>
      <point x="355" y="-130" type="curve" smooth="yes"/>
      <point x="355" y="-100"/>
      <point x="334" y="-88"/>
      <point x="311" y="-88" type="curve" smooth="yes"/>
      <point x="290" y="-88"/>
      <point x="279" y="-93"/>
      <point x="270" y="-99" type="curve"/>
      <point x="253" y="-81" type="line"/>
      <point x="307" y="-2" type="line"/>
      <point x="153" y="22"/>
      <point x="59" y="138"/>
      <point x="59" y="312" type="curve" smooth="yes"/>
      <point x="59" y="534"/>
      <point x="205" y="722"/>
      <point x="435" y="722" type="curve" smooth="yes"/>
      <point x="568" y="722"/>
      <point x="682" y="645"/>
      <point x="700" y="506" type="curve"/>
      <point x="667" y="506" type="line"/>
      <point x="645" y="625"/>
      <point x="555" y="692"/>
      <point x="434" y="692" type="curve" smooth="yes"/>
      <point x="223" y="692"/>
      <point x="97" y="519"/>
      <point x="97" y="312" type="curve" smooth="yes"/>
      <point x="97" y="132"/>
      <point x="199" y="24"/>
      <point x="371" y="24" type="curve" smooth="yes"/>
      <point x="502" y="24"/>
      <point x="604" y="97"/>
      <point x="646" y="225" type="curve"/>
      <point x="681" y="225" type="line"/>
      <point x="637" y="76"/>
      <point x="515" y="-7"/>
      <point x="371" y="-7" type="curve" smooth="yes"/>
      <point x="359" y="-7"/>
      <point x="351" y="-7"/>
      <point x="336" y="-6" type="curve"/>
      <point x="296" y="-65" type="line"/>
      <point x="341" y="-50"/>
      <point x="388" y="-76"/>
      <point x="388" y="-129" type="curve" smooth="yes"/>
      <point x="388" y="-181"/>
      <point x="351" y="-211"/>
    </contour>
  </outline>
</glyph>
<glyph name="Eacute" format="2">
  <advance width="568"/>
  <unicode hex="00C9"/>
  <outline>
    <contour>
      <point x="343" y="771" type="line"/>
      <point x="421" y="891" type="line"/>
      <point x="464" y="891" type="line"/>
      <point x="374" y="771" type="line"/>
    </contour>
    <contour>
      <point x="52" y="0" type="line"/>
      <point x="165" y="715" type="line"/>
      <point x="566" y="715" type="line"/>
      <point x="561" y="685" type="line"/>
      <point x="196" y="685" type="line"/>
      <point x="148" y="384" type="line"/>
      <point x="450" y="384" type="line"/>
      <point x="445" y="353" type="line"/>
      <point x="144" y="353" type="line"/>
      <point x="92" y="31" type="line"/>
      <point x="482" y="31" type="line"/>
      <point x="476" y="0" type="line"/>
    </contour>
  </outline>
</glyph>
<glyph name="Edieresis" format="2">
  <advance width="568"/>
  <unicode hex="00CB"/>
  <outline>
    <contour>
      <point x="52" y="0" type="line"/>
      <point x="165" y="715" type="line"/>
      <point x="566" y="715" type="line"/>
      <point x="561" y="685" type="line"/>
      <point x="196" y="685" type="line"/>
      <point x="148" y="384" type="line"/>
      <point x="450" y="384" type="line"/>
      <point x="445" y="353" type="line"/>
      <point x="144" y="353" type="line"/>
      <point x="92" y="31" type="line"/>
      <point x="482" y="31" type="line"/>
      <point x="476" y="0" type="line"/>
    </contour>
    <contour>
      <point x="287" y="788" type="curve" smooth="yes"/>
      <point x="273" y="788"/>
      <point x="261" y="799"/>
      <point x="261" y="813" type="curve" smooth="yes"/>
      <point x="261" y="827"/>
      <point x="273" y="840"/>
      <point x="288" y="840" type="curve" smooth="yes"/>
      <point x="302" y="840"/>
      <point x="313" y="828"/>
      <point x="313" y="814" type="curve" smooth="yes"/>
      <point x="313" y="800"/>
      <point x="302" y="788"/>
    </contour>
    <contour>
      <point x="454" y="788" type="curve" smooth="yes"/>
      <point x="439" y="788"/>
      <point x="428" y="799"/>
      <point x="428" y="813" type="curve" smooth="yes"/>
      <point x="428" y="827"/>
      <point x="439" y="840"/>
      <point x="454" y="840" type="curve" smooth="yes"/>
      <point x="469" y="840"/>
      <point x="480" y="828"/>
      <point x="480" y="814" type="curve" smooth="yes"/>
      <point x="480" y="800"/>
      <point x="468" y="788"/>
    </contour>
  </outline>
</glyph>
<glyph name="Iacute" format="2">
  <advance width="234"/>
  <unicode hex="00CD"/>
  <outline>
    <contour>
      <point x="57" y="0" type="line"/>
      <point x="170" y="715" type="line"/>
      <point x="206" y="715" type="line"/>
      <point x="93" y="0" type="line"/>
    </contour>
    <contour>
      <point x="177" y="771" type="line"/>
      <point x="255" y="891" type="line"/>
      <point x="298" y="891" type="line"/>
      <point x="208" y="771" type="line"/>
    </contour>
  </outline>
</glyph>
<glyph name="Icircumflex" format="2">
  <advance width="234"/>
  <unicode hex="00CE"/>
  <outline>
    <contour>
      <point x="57" y="0" type="line"/>
      <point x="170" y="715" type="line"/>
      <point x="206" y="715" type="line"/>
      <point x="93" y="0" type="line"/>
    </contour>
    <contour>
      <point x="67" y="771" type="line"/>
      <point x="194" y="891" type="line"/>
      <point x="227" y="891" type="line"/>
      <point x="323" y="771" type="line"/>
      <point x="294" y="771" type="line"/>
      <point x="208" y="862" type="line"/>
      <point x="99" y="771" type="line"/>
    </contour>
  </outline>
</glyph>
<glyph name="Idieresis" format="2">
  <advance width="234"/>
  <unicode hex="00CF"/>
  <outline>
    <contour>
      <point x="57" y="0" type="line"/>
      <point x="170" y="715" type="line"/>
      <point x="206" y="715" type="line"/>
      <point x="93" y="0" type="line"/>
    </contour>
    <contour>
      <point x="119" y="788" type="curve" smooth="yes"/>
      <point x="105" y="788"/>
      <point x="93" y="799"/>
      <point x="93" y="813" type="curve" smooth="yes"/>
      <point x="93" y="827"/>
      <point x="105" y="840"/>
      <point x="120" y="840" type="curve" smooth="yes"/>
      <point x="134" y="840"/>
      <point x="145" y="828"/>
      <point x="145" y="814" type="curve" smooth="yes"/>
      <point x="145" y="800"/>
      <point x="134" y="788"/>
    </contour>
    <contour>
      <point x="286" y="788" type="curve" smooth="yes"/>
      <point x="271" y="788"/>
      <point x="260" y="799"/>
      <point x="260" y="813" type="curve" smooth="yes"/>
      <point x="260" y="827"/>
      <point x="271" y="840"/>
      <point x="286" y="840" type="curve" smooth="yes"/>
      <point x="301" y="840"/>
      <point x="312" y="828"/>
      <point x="312" y="814" type="curve" smooth="yes"/>
      <point x="312" y="800"/>
      <point x="300" y="788"/>
    </contour>
  </outline>
</glyph>
<glyph name="Eth" format="2">
  <advance width="687"/>
  <unicode hex="00D0"/>
  <outline>
    <contour>
      <point x="36" y="345" type="line"/>
      <point x="41" y="375" type="line"/>
      <point x="116" y="375" type="line"/>
      <point x="170" y="715" type="line"/>
      <point x="342" y="715" type="line" smooth="yes"/>
      <point x="558" y="715"/>
      <point x="659" y="584"/>
      <point x="659" y="411" type="curve" smooth="yes"/>
      <point x="659" y="158"/>
      <point x="502" y="0"/>
      <point x="252" y="0" type="curve" smooth="yes"/>
      <point x="57" y="0" type="line"/>
      <point x="111" y="345" type="line"/>
    </contour>
    <contour>
      <point x="97" y="31" type="line"/>
      <point x="251" y="31" type="line" smooth="yes"/>
      <point x="480" y="31"/>
      <point x="623" y="172"/>
      <point x="623" y="411" type="curve" smooth="yes"/>
      <point x="623" y="565"/>
      <point x="537" y="685"/>
      <point x="341" y="685" type="curve" smooth="yes"/>
      <point x="201" y="685" type="line"/>
      <point x="151" y="375" type="line"/>
      <point x="361" y="375" type="line"/>
      <point x="356" y="345" type="line"/>
      <point x="146" y="345" type="line"/>
    </contour>
  </outline>
</glyph>
<glyph name="Oacute" format="2">
  <advance width="788"/>
  <unicode hex="00D3"/>
  <outline>
    <contour>
      <point x="432" y="771" type="line"/>
      <point x="510" y="891" type="line"/>
      <point x="553" y="891" type="line"/>
      <point x="463" y="771" type="line"/>
    </contour>
    <contour>
      <point x="757" y="392" type="curve" smooth="yes"/>
      <point x="757" y="180"/>
      <point x="605" y="-7"/>
      <point x="384" y="-7" type="curve" smooth="yes"/>
      <point x="183" y="-7"/>
      <point x="59" y="136"/>
      <point x="59" y="326" type="curve" smooth="yes"/>
      <point x="59" y="536"/>
      <point x="214" y="722"/>
      <point x="436" y="722" type="curve" smooth="yes"/>
      <point x="631" y="722"/>
      <point x="757" y="577"/>
    </contour>
    <contour>
      <point x="721" y="392" type="curve" smooth="yes"/>
      <point x="721" y="554"/>
      <point x="616" y="692"/>
      <point x="435" y="692" type="curve" smooth="yes"/>
      <point x="232" y="692"/>
      <point x="98" y="523"/>
      <point x="96" y="326" type="curve" smooth="yes"/>
      <point x="94" y="157"/>
      <point x="204" y="24"/>
      <point x="384" y="24" type="curve" smooth="yes"/>
      <point x="586" y="24"/>
      <point x="720" y="194"/>
    </contour>
  </outline>
</glyph>
<glyph name="Otilde" format="2">
  <advance width="788"/>
  <unicode hex="00D5"/>
  <outline>
    <contour>
      <point x="517" y="774" type="curve" smooth="yes"/>
      <point x="467" y="774"/>
      <point x="426" y="833"/>
      <point x="387" y="833" type="curve" smooth="yes"/>
      <point x="364" y="833"/>
      <point x="340" y="814"/>
      <point x="332" y="774" type="curve"/>
      <point x="304" y="774" type="line"/>
      <point x="316" y="833"/>
      <point x="348" y="863"/>
      <point x="388" y="863" type="curve" smooth="yes"/>
      <point x="437" y="863"/>
      <point x="478" y="804"/>
      <point x="518" y="804" type="curve" smooth="yes"/>
      <point x="541" y="804"/>
      <point x="564" y="823"/>
      <point x="573" y="862" type="curve"/>
      <point x="600" y="862" type="line"/>
      <point x="589" y="804"/>
      <point x="556" y="774"/>
    </contour>
    <contour>
      <point x="757" y="392" type="curve" smooth="yes"/>
      <point x="757" y="180"/>
      <point x="605" y="-7"/>
      <point x="384" y="-7" type="curve" smooth="yes"/>
      <point x="183" y="-7"/>
      <point x="59" y="136"/>
      <point x="59" y="326" type="curve" smooth="yes"/>
      <point x="59" y="536"/>
      <point x="214" y="722"/>
      <point x="436" y="722" type="curve" smooth="yes"/>
      <point x="631" y="722"/>
      <point x="757" y="577"/>
    </contour>
    <contour>
      <point x="721" y="392" type="curve" smooth="yes"/>
      <point x="721" y="554"/>
      <point x="616" y="692"/>
      <point x="435" y="692" type="curve" smooth="yes"/>
      <point x="232" y="692"/>
      <point x="98" y="523"/>
      <point x="96" y="326" type="curve" smooth="yes"/>
      <point x="94" y="157"/>
      <point x="204" y="24"/>
      <point x="384" y="24" type="curve" smooth="yes"/>
      <point x="586" y="24"/>
      <point x="720" y="194"/>
    </contour>
  </outline>
</glyph>
<glyph name="Odieresis" format="2">
  <advance width="788"/>
  <unicode hex="00D6"/>
  <outline>
    <contour>
      <point x="368" y="788" type="curve" smooth="yes"/>
      <point x="354" y="788"/>
      <point x="342" y="799"/>
      <point x="342" y="813" type="curve" smooth="yes"/>
      <point x="342" y="827"/>
      <point x="354" y="840"/>
      <point x="369" y="840" type="curve" smooth="yes"/>
      <point x="383" y="840"/>
      <point x="394" y="828"/>
      <point x="394" y="814" type="curve" smooth="yes"/>
      <point x="394" y="800"/>
      <point x="383" y="788"/>
    </contour>
    <contour>
      <point x="535" y="788" type="curve" smooth="yes"/>
      <point x="520" y="788"/>
      <point x="509" y="799"/>
      <point x="509" y="813" type="curve" smooth="yes"/>
      <point x="509" y="827"/>
      <point x="520" y="840"/>
      <point x="535" y="840" type="curve" smooth="yes"/>
      <point x="550" y="840"/>
      <point x="561" y="828"/>
      <point x="561" y="814" type="curve" smooth="yes"/>
      <point x="561" y="800"/>
      <point x="549" y="788"/>
    </contour>
    <contour>
      <point x="757" y="392" type="curve" smooth="yes"/>
      <point x="757" y="180"/>
      <point x="605" y="-7"/>
      <point x="384" y="-7" type="curve" smooth="yes"/>
      <point x="183" y="-7"/>
      <point x="59" y="136"/>
      <point x="59" y="326" type="curve" smooth="yes"/>
      <point x="59" y="536"/>
      <point x="214" y="722"/>
      <point x="436" y="722" type="curve" smooth="yes"/>
      <point x="631" y="722"/>
      <point x="757" y="577"/>
    </contour>
    <contour>
      <point x="721" y="392" type="curve" smooth="yes"/>
      <point x="721" y="554"/>
      <point x="616" y="692"/>
      <point x="435" y="692" type="curve" smooth="yes"/>
      <point x="232" y="692"/>
      <point x="98" y="523"/>
      <point x="96" y="326" type="curve" smooth="yes"/>
      <point x="94" y="157"/>
      <point x="204" y="24"/>
      <point x="384" y="24" type="curve" smooth="yes"/>
      <point x="586" y="24"/>
      <point x="720" y="194"/>
    </contour>
  </outline>
</glyph>
<glyph name="multiply" format="2">
  <advance width="492"/>
  <unicode hex="00D7"/>
  <outline>
    <contour>
      <point x="62" y="150" type="line"/>
      <point x="43" y="172" type="line"/>
      <point x="228" y="337" type="line"/>
      <point x="85" y="501" type="line"/>
      <point x="107" y="522" type="line"/>
      <point x="250" y="357" type="line"/>
      <point x="436" y="522" type="line"/>
      <point x="455" y="499" type="line"/>
      <point x="270" y="335" type="line"/>
      <point x="414" y="170" type="line"/>
      <point x="391" y="150" type="line"/>
      <point x="247" y="315" type="line"/>
    </contour>
  </outline>
</glyph>
<glyph name="Udieresis" format="2">
  <advance width="674"/>
  <unicode hex="00DC"/>
  <outline>
    <contour>
      <point x="318" y="-5" type="curve" smooth="yes"/>
      <point x="137" y="-5"/>
      <point x="53" y="95"/>
      <point x="80" y="267" type="curve" smooth="yes"/>
      <point x="151" y="715" type="line"/>
      <point x="187" y="715" type="line"/>
      <point x="116" y="267" type="line" smooth="yes"/>
      <point x="92" y="111"/>
      <point x="157" y="26"/>
      <point x="319" y="26" type="curve" smooth="yes"/>
      <point x="459" y="26"/>
      <point x="530" y="95"/>
      <point x="553" y="242" type="curve" smooth="yes"/>
      <point x="628" y="715" type="line"/>
      <point x="664" y="715" type="line"/>
      <point x="589" y="239" type="line" smooth="yes"/>
      <point x="564" y="80"/>
      <point x="483" y="-5"/>
    </contour>
    <contour>
      <point x="333" y="788" type="curve" smooth="yes"/>
      <point x="319" y="788"/>
      <point x="307" y="799"/>
      <point x="307" y="813" type="curve" smooth="yes"/>
      <point x="307" y="827"/>
      <point x="319" y="840"/>
      <point x="334" y="840" type="curve" smooth="yes"/>
      <point x="348" y="840"/>
      <point x="359" y="828"/>
      <point x="359" y="814" type="curve" smooth="yes"/>
      <point x="359" y="800"/>
      <point x="348" y="788"/>
    </contour>
    <contour>
      <point x="500" y="788" type="curve" smooth="yes"/>
      <point x="485" y="788"/>
      <point x="474" y="799"/>
      <point x="474" y="813" type="curve" smooth="yes"/>
      <point x="474" y="827"/>
      <point x="485" y="840"/>
      <point x="500" y="840" type="curve" smooth="yes"/>
      <point x="515" y="840"/>
      <point x="526" y="828"/>
      <point x="526" y="814" type="curve" smooth="yes"/>
      <point x="526" y="800"/>
      <point x="514" y="788"/>
    </contour>
  </outline>
</glyph>
<glyph name="Thorn" format="2">
  <advance width="559"/>
  <unicode hex="00DE"/>
  <outline>
    <contour>
      <point x="200" y="715" type="line"/>
      <point x="176" y="565" type="line"/>
      <point x="312" y="565" type="line" smooth="yes"/>
      <point x="444" y="565"/>
      <point x="533" y="508"/>
      <point x="533" y="390" type="curve" smooth="yes"/>
      <point x="533" y="234"/>
      <point x="425" y="177"/>
      <point x="278" y="177" type="curve" smooth="yes"/>
      <point x="115" y="177" type="line"/>
      <point x="87" y="0" type="line"/>
      <point x="52" y="0" type="line"/>
      <point x="165" y="715" type="line"/>
    </contour>
    <contour>
      <point x="309" y="534" type="curve" smooth="yes"/>
      <point x="171" y="534" type="line"/>
      <point x="119" y="207" type="line"/>
      <point x="279" y="207" type="line" smooth="yes"/>
      <point x="413" y="207"/>
      <point x="497" y="256"/>
      <point x="497" y="390" type="curve" smooth="yes"/>
      <point x="497" y="493"/>
      <point x="424" y="534"/>
    </contour>
  </outline>
</glyph>
<glyph name="germandbls" format="2">
  <advance width="553"/>
  <unicode hex="00DF"/>
  <outline>
    <contour>
      <point x="282" y="-5" type="curve" smooth="yes"/>
      <point x="236" y="-5"/>
      <point x="200" y="4"/>
      <point x="173" y="18" type="curve"/>
      <point x="178" y="47" type="line"/>
      <point x="207" y="33"/>
      <point x="238" y="24"/>
      <point x="281" y="24" type="curve" smooth="yes"/>
      <point x="396" y="24"/>
      <point x="471" y="102"/>
      <point x="471" y="229" type="curve" smooth="yes"/>
      <point x="471" y="342"/>
      <point x="389" y="428"/>
      <point x="274" y="431" type="curve"/>
      <point x="280" y="460" type="line"/>
      <point x="385" y="463"/>
      <point x="471" y="518"/>
      <point x="471" y="622" type="curve" smooth="yes"/>
      <point x="471" y="705"/>
      <point x="412" y="746"/>
      <point x="338" y="747" type="curve" smooth="yes"/>
      <point x="242" y="748"/>
      <point x="180" y="683"/>
      <point x="165" y="583" type="curve" smooth="yes"/>
      <point x="73" y="0" type="line"/>
      <point x="39" y="0" type="line"/>
      <point x="131" y="585" type="line" smooth="yes"/>
      <point x="149" y="704"/>
      <point x="231" y="776"/>
      <point x="339" y="776" type="curve" smooth="yes"/>
      <point x="428" y="776"/>
      <point x="505" y="721"/>
      <point x="505" y="622" type="curve" smooth="yes"/>
      <point x="505" y="525"/>
      <point x="431" y="462"/>
      <point x="341" y="445" type="curve"/>
      <point x="428" y="423"/>
      <point x="506" y="344"/>
      <point x="506" y="228" type="curve" smooth="yes"/>
      <point x="506" y="83"/>
      <point x="417" y="-5"/>
    </contour>
  </outline>
</glyph>
<glyph name="adieresis" format="2">
  <advance width="521"/>
  <unicode hex="00E4"/>
  <outline>
    <contour>
      <point x="204" y="-7" type="curve" smooth="yes"/>
      <point x="87" y="-7"/>
      <point x="32" y="54"/>
      <point x="32" y="135" type="curve" smooth="yes"/>
      <point x="32" y="262"/>
      <point x="138" y="296"/>
      <point x="259" y="296" type="curve" smooth="yes"/>
      <point x="415" y="296" type="line"/>
      <point x="422" y="341" type="line" smooth="yes"/>
      <point x="437" y="443"/>
      <point x="400" y="501"/>
      <point x="287" y="501" type="curve" smooth="yes"/>
      <point x="207" y="501"/>
      <point x="145" y="468"/>
      <point x="120" y="380" type="curve"/>
      <point x="85" y="380" type="line"/>
      <point x="112" y="488"/>
      <point x="200" y="531"/>
      <point x="287" y="531" type="curve" smooth="yes"/>
      <point x="418" y="531"/>
      <point x="475" y="458"/>
      <point x="456" y="338" type="curve" smooth="yes"/>
      <point x="426" y="146" type="line" smooth="yes"/>
      <point x="415" y="75"/>
      <point x="413" y="33"/>
      <point x="413" y="0" type="curve"/>
      <point x="380" y="0" type="line"/>
      <point x="380" y="24"/>
      <point x="382" y="57"/>
      <point x="385" y="86" type="curve"/>
      <point x="354" y="35"/>
      <point x="290" y="-7"/>
    </contour>
    <contour>
      <point x="207" y="21" type="curve" smooth="yes"/>
      <point x="300" y="21"/>
      <point x="381" y="78"/>
      <point x="394" y="162" type="curve" smooth="yes"/>
      <point x="411" y="268" type="line"/>
      <point x="259" y="268" type="line" smooth="yes"/>
      <point x="154" y="268"/>
      <point x="66" y="245"/>
      <point x="66" y="135" type="curve" smooth="yes"/>
      <point x="66" y="71"/>
      <point x="108" y="21"/>
    </contour>
    <contour>
      <point x="231" y="638" type="curve" smooth="yes"/>
      <point x="216" y="638"/>
      <point x="205" y="650"/>
      <point x="205" y="664" type="curve" smooth="yes"/>
      <point x="205" y="678"/>
      <point x="216" y="690"/>
      <point x="231" y="690" type="curve" smooth="yes"/>
      <point x="246" y="690"/>
      <point x="257" y="678"/>
      <point x="257" y="664" type="curve" smooth="yes"/>
      <point x="257" y="650"/>
      <point x="245" y="638"/>
    </contour>
    <contour>
      <point x="384" y="638" type="curve" smooth="yes"/>
      <point x="369" y="638"/>
      <point x="358" y="650"/>
      <point x="358" y="664" type="curve" smooth="yes"/>
      <point x="358" y="678"/>
      <point x="370" y="690"/>
      <point x="384" y="690" type="curve" smooth="yes"/>
      <point x="399" y="690"/>
      <point x="410" y="678"/>
      <point x="410" y="664" type="curve" smooth="yes"/>
      <point x="410" y="650"/>
      <point x="399" y="638"/>
    </contour>
  </outline>
</glyph>
<glyph name="ae" format="2">
  <advance width="897"/>
  <unicode hex="00E6"/>
  <outline>
    <contour>
      <point x="444" y="217" type="curve" smooth="yes"/>
      <point x="444" y="93"/>
      <point x="501" y="22"/>
      <point x="622" y="22" type="curve" smooth="yes"/>
      <point x="711" y="22"/>
      <point x="774" y="63"/>
      <point x="805" y="144" type="curve"/>
      <point x="839" y="144" type="line"/>
      <point x="804" y="43"/>
      <point x="726" y="-8"/>
      <point x="621" y="-8" type="curve" smooth="yes"/>
      <point x="503" y="-8"/>
      <point x="436" y="52"/>
      <point x="417" y="150" type="curve"/>
      <point x="388" y="39"/>
      <point x="294" y="-7"/>
      <point x="204" y="-7" type="curve" smooth="yes"/>
      <point x="87" y="-7"/>
      <point x="32" y="52"/>
      <point x="32" y="133" type="curve" smooth="yes"/>
      <point x="32" y="256"/>
      <point x="139" y="292"/>
      <point x="260" y="292" type="curve" smooth="yes"/>
      <point x="416" y="292" type="line"/>
      <point x="423" y="341" type="line" smooth="yes"/>
      <point x="438" y="443"/>
      <point x="400" y="501"/>
      <point x="287" y="501" type="curve" smooth="yes"/>
      <point x="207" y="501"/>
      <point x="145" y="468"/>
      <point x="120" y="380" type="curve"/>
      <point x="85" y="380" type="line"/>
      <point x="112" y="488"/>
      <point x="200" y="531"/>
      <point x="287" y="531" type="curve" smooth="yes"/>
      <point x="392" y="531"/>
      <point x="448" y="483"/>
      <point x="455" y="402" type="curve"/>
      <point x="498" y="479"/>
      <point x="571" y="530"/>
      <point x="667" y="530" type="curve" smooth="yes"/>
      <point x="817" y="530"/>
      <point x="881" y="425"/>
      <point x="859" y="278" type="curve"/>
      <point x="856" y="264" type="line"/>
      <point x="446" y="264" type="line"/>
      <point x="445" y="249"/>
      <point x="444" y="233"/>
    </contour>
    <contour>
      <point x="206" y="21" type="curve" smooth="yes"/>
      <point x="302" y="21"/>
      <point x="382" y="76"/>
      <point x="399" y="187" type="curve" smooth="yes"/>
      <point x="411" y="264" type="line"/>
      <point x="259" y="264" type="line" smooth="yes"/>
      <point x="155" y="264"/>
      <point x="66" y="241"/>
      <point x="66" y="133" type="curve" smooth="yes"/>
      <point x="66" y="69"/>
      <point x="108" y="21"/>
    </contour>
    <contour>
      <point x="666" y="501" type="curve" smooth="yes"/>
      <point x="548" y="501"/>
      <point x="472" y="414"/>
      <point x="450" y="292" type="curve"/>
      <point x="827" y="292" type="line"/>
      <point x="842" y="414"/>
      <point x="795" y="501"/>
    </contour>
  </outline>
</glyph>
<glyph name="ccedilla" format="2">
  <advance width="543"/>
  <unicode hex="00E7"/>
  <outline>
    <contour>
      <point x="209" y="-211" type="curve" smooth="yes"/>
      <point x="158" y="-211"/>
      <point x="123" y="-185"/>
      <point x="119" y="-136" type="curve"/>
      <point x="151" y="-136" type="line"/>
      <point x="153" y="-166"/>
      <point x="174" y="-183"/>
      <point x="209" y="-183" type="curve" smooth="yes"/>
      <point x="236" y="-183"/>
      <point x="267" y="-170"/>
      <point x="267" y="-130" type="curve" smooth="yes"/>
      <point x="267" y="-100"/>
      <point x="246" y="-88"/>
      <point x="223" y="-88" type="curve" smooth="yes"/>
      <point x="202" y="-88"/>
      <point x="191" y="-93"/>
      <point x="182" y="-99" type="curve"/>
      <point x="165" y="-81" type="line"/>
      <point x="219" y="-2" type="line"/>
      <point x="107" y="18"/>
      <point x="41" y="109"/>
      <point x="41" y="231" type="curve" smooth="yes"/>
      <point x="41" y="402"/>
      <point x="155" y="530"/>
      <point x="311" y="530" type="curve" smooth="yes"/>
      <point x="421" y="530"/>
      <point x="502" y="465"/>
      <point x="509" y="359" type="curve"/>
      <point x="475" y="359" type="line"/>
      <point x="470" y="446"/>
      <point x="405" y="501"/>
      <point x="309" y="501" type="curve" smooth="yes"/>
      <point x="168" y="501"/>
      <point x="76" y="383"/>
      <point x="76" y="231" type="curve" smooth="yes"/>
      <point x="76" y="102"/>
      <point x="153" y="22"/>
      <point x="272" y="22" type="curve" smooth="yes"/>
      <point x="368" y="22"/>
      <point x="443" y="75"/>
      <point x="468" y="174" type="curve"/>
      <point x="501" y="174" type="line"/>
      <point x="474" y="55"/>
      <point x="383" y="-7"/>
      <point x="272" y="-7" type="curve" smooth="yes"/>
      <point x="265" y="-7"/>
      <point x="262" y="-7"/>
      <point x="248" y="-6" type="curve"/>
      <point x="208" y="-65" type="line"/>
      <point x="253" y="-50"/>
      <point x="300" y="-76"/>
      <point x="300" y="-129" type="curve" smooth="yes"/>
      <point x="300" y="-181"/>
      <point x="263" y="-211"/>
    </contour>
  </outline>
</glyph>
<glyph name="ecircumflex" format="2">
  <advance width="535"/>
  <unicode hex="00EA"/>
  <outline>
    <contour>
      <point x="74" y="217" type="curve" smooth="yes"/>
      <point x="74" y="93"/>
      <point x="136" y="22"/>
      <point x="257" y="22" type="curve" smooth="yes"/>
      <point x="346" y="22"/>
      <point x="411" y="63"/>
      <point x="443" y="144" type="curve"/>
      <point x="477" y="144" type="line"/>
      <point x="443" y="43"/>
      <point x="361" y="-8"/>
      <point x="256" y="-8" type="curve" smooth="yes"/>
      <point x="113" y="-8"/>
      <point x="38" y="80"/>
      <point x="38" y="218" type="curve" smooth="yes"/>
      <point x="38" y="385"/>
      <point x="140" y="530"/>
      <point x="302" y="530" type="curve" smooth="yes"/>
      <point x="452" y="530"/>
      <point x="520" y="425"/>
      <point x="497" y="278" type="curve" smooth="yes"/>
      <point x="495" y="264" type="line"/>
      <point x="76" y="264" type="line"/>
      <point x="75" y="249"/>
      <point x="74" y="233"/>
    </contour>
    <contour>
      <point x="301" y="501" type="curve" smooth="yes"/>
      <point x="182" y="501"/>
      <point x="103" y="414"/>
      <point x="80" y="293" type="curve"/>
      <point x="465" y="293" type="line"/>
      <point x="480" y="415"/>
      <point x="431" y="501"/>
    </contour>
    <contour>
      <point x="181" y="600" type="line"/>
      <point x="308" y="729" type="line"/>
      <point x="341" y="729" type="line"/>
      <point x="435" y="600" type="line"/>
      <point x="406" y="600" type="line"/>
      <point x="322" y="701" type="line"/>
      <point x="212" y="600" type="line"/>
    </contour>
  </outline>
</glyph>
<glyph name="edieresis" format="2">
  <advance width="535"/>
  <unicode hex="00EB"/>
  <outline>
    <contour>
      <point x="74" y="217" type="curve" smooth="yes"/>
      <point x="74" y="93"/>
      <point x="136" y="22"/>
      <point x="257" y="22" type="curve" smooth="yes"/>
      <point x="346" y="22"/>
      <point x="411" y="63"/>
      <point x="443" y="144" type="curve"/>
      <point x="477" y="144" type="line"/>
      <point x="443" y="43"/>
      <point x="361" y="-8"/>
      <point x="256" y="-8" type="curve" smooth="yes"/>
      <point x="113" y="-8"/>
      <point x="38" y="80"/>
      <point x="38" y="218" type="curve" smooth="yes"/>
      <point x="38" y="385"/>
      <point x="140" y="530"/>
      <point x="302" y="530" type="curve" smooth="yes"/>
      <point x="452" y="530"/>
      <point x="520" y="425"/>
      <point x="497" y="278" type="curve" smooth="yes"/>
      <point x="495" y="264" type="line"/>
      <point x="76" y="264" type="line"/>
      <point x="75" y="249"/>
      <point x="74" y="233"/>
    </contour>
    <contour>
      <point x="301" y="501" type="curve" smooth="yes"/>
      <point x="182" y="501"/>
      <point x="103" y="414"/>
      <point x="80" y="293" type="curve"/>
      <point x="465" y="293" type="line"/>
      <point x="480" y="415"/>
      <point x="431" y="501"/>
    </contour>
    <contour>
      <point x="394" y="638" type="curve" smooth="yes"/>
      <point x="379" y="638"/>
      <point x="368" y="650"/>
      <point x="368" y="664" type="curve" smooth="yes"/>
      <point x="368" y="678"/>
      <point x="380" y="690"/>
      <point x="394" y="690" type="curve" smooth="yes"/>
      <point x="409" y="690"/>
      <point x="420" y="678"/>
      <point x="420" y="664" type="curve" smooth="yes"/>
      <point x="420" y="650"/>
      <point x="409" y="638"/>
    </contour>
    <contour>
      <point x="241" y="638" type="curve" smooth="yes"/>
      <point x="226" y="638"/>
      <point x="215" y="650"/>
      <point x="215" y="664" type="curve" smooth="yes"/>
      <point x="215" y="678"/>
      <point x="226" y="690"/>
      <point x="241" y="690" type="curve" smooth="yes"/>
      <point x="256" y="690"/>
      <point x="267" y="678"/>
      <point x="267" y="664" type="curve" smooth="yes"/>
      <point x="267" y="650"/>
      <point x="255" y="638"/>
    </contour>
  </outline>
</glyph>
<glyph name="iacute" format="2">
  <advance width="200"/>
  <unicode hex="00ED"/>
  <outline>
    <contour>
      <point x="134" y="600" type="line"/>
      <point x="227" y="747" type="line"/>
      <point x="270" y="747" type="line"/>
      <point x="164" y="600" type="line"/>
    </contour>
    <contour>
      <point x="41" y="0" type="line"/>
      <point x="123" y="523" type="line"/>
      <point x="158" y="523" type="line"/>
      <point x="75" y="0" type="line"/>
    </contour>
  </outline>
</glyph>
<glyph name="icircumflex" format="2">
  <advance width="200"/>
  <unicode hex="00EE"/>
  <outline>
    <contour>
      <point x="22" y="600" type="line"/>
      <point x="149" y="729" type="line"/>
      <point x="182" y="729" type="line"/>
      <point x="276" y="600" type="line"/>
      <point x="247" y="600" type="line"/>
      <point x="163" y="701" type="line"/>
      <point x="53" y="600" type="line"/>
    </contour>
    <contour>
      <point x="41" y="0" type="line"/>
      <point x="123" y="523" type="line"/>
      <point x="158" y="523" type="line"/>
      <point x="75" y="0" type="line"/>
    </contour>
  </outline>
</glyph>
<glyph name="idieresis" format="2">
  <advance width="200"/>
  <unicode hex="00EF"/>
  <outline>
    <contour>
      <point x="98" y="638" type="curve" smooth="yes"/>
      <point x="84" y="638"/>
      <point x="72" y="650"/>
      <point x="72" y="664" type="curve" smooth="yes"/>
      <point x="72" y="678"/>
      <point x="84" y="690"/>
      <point x="99" y="690" type="curve" smooth="yes"/>
      <point x="113" y="690"/>
      <point x="124" y="678"/>
      <point x="124" y="664" type="curve" smooth="yes"/>
      <point x="124" y="650"/>
      <point x="113" y="638"/>
    </contour>
    <contour>
      <point x="227" y="638" type="curve" smooth="yes"/>
      <point x="212" y="638"/>
      <point x="201" y="650"/>
      <point x="201" y="664" type="curve" smooth="yes"/>
      <point x="201" y="678"/>
      <point x="212" y="690"/>
      <point x="227" y="690" type="curve" smooth="yes"/>
      <point x="242" y="690"/>
      <point x="253" y="678"/>
      <point x="253" y="664" type="curve" smooth="yes"/>
      <point x="253" y="650"/>
      <point x="242" y="638"/>
    </contour>
    <contour>
      <point x="41" y="0" type="line"/>
      <point x="123" y="523" type="line"/>
      <point x="158" y="523" type="line"/>
      <point x="75" y="0" type="line"/>
    </contour>
  </outline>
</glyph>
<glyph name="eth" format="2">
  <advance width="576"/>
  <unicode hex="00F0"/>
  <outline>
    <contour>
      <point x="178" y="589" type="line"/>
      <point x="166" y="612" type="line"/>
      <point x="313" y="691" type="line"/>
      <point x="279" y="720"/>
      <point x="240" y="747"/>
      <point x="199" y="773" type="curve"/>
      <point x="246" y="773" type="line"/>
      <point x="277" y="754"/>
      <point x="310" y="732"/>
      <point x="341" y="706" type="curve"/>
      <point x="461" y="770" type="line"/>
      <point x="473" y="747" type="line"/>
      <point x="362" y="687" type="line"/>
      <point x="457" y="600"/>
      <point x="535" y="476"/>
      <point x="535" y="305" type="curve" smooth="yes"/>
      <point x="535" y="129"/>
      <point x="432" y="-8"/>
      <point x="263" y="-8" type="curve" smooth="yes"/>
      <point x="128" y="-8"/>
      <point x="37" y="96"/>
      <point x="37" y="230" type="curve" smooth="yes"/>
      <point x="37" y="385"/>
      <point x="140" y="530"/>
      <point x="306" y="530" type="curve" smooth="yes"/>
      <point x="405" y="530"/>
      <point x="459" y="483"/>
      <point x="490" y="424" type="curve"/>
      <point x="461" y="528"/>
      <point x="406" y="606"/>
      <point x="334" y="672" type="curve"/>
    </contour>
    <contour>
      <point x="72" y="229" type="curve" smooth="yes"/>
      <point x="72" y="119"/>
      <point x="141" y="22"/>
      <point x="263" y="22" type="curve" smooth="yes"/>
      <point x="410" y="22"/>
      <point x="500" y="143"/>
      <point x="500" y="294" type="curve" smooth="yes"/>
      <point x="500" y="416"/>
      <point x="426" y="501"/>
      <point x="309" y="501" type="curve" smooth="yes"/>
      <point x="159" y="501"/>
      <point x="72" y="373"/>
    </contour>
  </outline>
</glyph>
<glyph name="ntilde" format="2">
  <advance width="567"/>
  <unicode hex="00F1"/>
  <outline>
    <contour>
      <point x="39" y="0" type="line"/>
      <point x="99" y="384" type="line" smooth="yes"/>
      <point x="110" y="453"/>
      <point x="112" y="490"/>
      <point x="114" y="523" type="curve"/>
      <point x="147" y="523" type="line"/>
      <point x="146" y="496"/>
      <point x="143" y="453"/>
      <point x="136" y="408" type="curve"/>
      <point x="171" y="475"/>
      <point x="242" y="531"/>
      <point x="338" y="531" type="curve" smooth="yes"/>
      <point x="452" y="531"/>
      <point x="521" y="459"/>
      <point x="498" y="311" type="curve" smooth="yes"/>
      <point x="449" y="0" type="line"/>
      <point x="414" y="0" type="line"/>
      <point x="464" y="316" type="line" smooth="yes"/>
      <point x="484" y="441"/>
      <point x="429" y="501"/>
      <point x="333" y="501" type="curve" smooth="yes"/>
      <point x="238" y="501"/>
      <point x="142" y="435"/>
      <point x="123" y="314" type="curve" smooth="yes"/>
      <point x="73" y="0" type="line"/>
    </contour>
    <contour>
      <point x="394" y="615" type="curve" smooth="yes"/>
      <point x="344" y="615"/>
      <point x="303" y="673"/>
      <point x="264" y="673" type="curve" smooth="yes"/>
      <point x="240" y="673"/>
      <point x="217" y="654"/>
      <point x="208" y="615" type="curve"/>
      <point x="180" y="615" type="line"/>
      <point x="192" y="674"/>
      <point x="225" y="703"/>
      <point x="265" y="703" type="curve" smooth="yes"/>
      <point x="313" y="703"/>
      <point x="355" y="644"/>
      <point x="394" y="644" type="curve" smooth="yes"/>
      <point x="417" y="644"/>
      <point x="441" y="664"/>
      <point x="449" y="703" type="curve"/>
      <point x="477" y="703" type="line"/>
      <point x="465" y="645"/>
      <point x="433" y="615"/>
    </contour>
  </outline>
</glyph>
<glyph name="otilde" format="2">
  <advance width="573"/>
  <unicode hex="00F5"/>
  <outline>
    <contour>
      <point x="265" y="-7" type="curve" smooth="yes"/>
      <point x="128" y="-7"/>
      <point x="37" y="98"/>
      <point x="37" y="229" type="curve" smooth="yes"/>
      <point x="37" y="390"/>
      <point x="143" y="530"/>
      <point x="310" y="530" type="curve" smooth="yes"/>
      <point x="451" y="530"/>
      <point x="535" y="422"/>
      <point x="535" y="294" type="curve" smooth="yes"/>
      <point x="535" y="125"/>
      <point x="431" y="-7"/>
    </contour>
    <contour>
      <point x="266" y="22" type="curve" smooth="yes"/>
      <point x="411" y="22"/>
      <point x="500" y="141"/>
      <point x="500" y="294" type="curve" smooth="yes"/>
      <point x="500" y="406"/>
      <point x="432" y="501"/>
      <point x="309" y="501" type="curve" smooth="yes"/>
      <point x="159" y="501"/>
      <point x="72" y="376"/>
      <point x="72" y="229" type="curve" smooth="yes"/>
      <point x="72" y="116"/>
      <point x="145" y="22"/>
    </contour>
    <contour>
      <point x="393" y="615" type="curve" smooth="yes"/>
      <point x="343" y="615"/>
      <point x="302" y="673"/>
      <point x="263" y="673" type="curve" smooth="yes"/>
      <point x="239" y="673"/>
      <point x="216" y="654"/>
      <point x="207" y="615" type="curve"/>
      <point x="179" y="615" type="line"/>
      <point x="191" y="674"/>
      <point x="224" y="703"/>
      <point x="264" y="703" type="curve" smooth="yes"/>
      <point x="312" y="703"/>
      <point x="354" y="644"/>
      <point x="393" y="644" type="curve" smooth="yes"/>
      <point x="416" y="644"/>
      <point x="440" y="664"/>
      <point x="448" y="703" type="curve"/>
      <point x="476" y="703" type="line"/>
      <point x="464" y="645"/>
      <point x="432" y="615"/>
    </contour>
  </outline>
</glyph>
<glyph name="odieresis" format="2">
  <advance width="573"/>
  <unicode hex="00F6"/>
  <outline>
    <contour>
      <point x="252" y="638" type="curve" smooth="yes"/>
      <point x="237" y="638"/>
      <point x="226" y="650"/>
      <point x="226" y="664" type="curve" smooth="yes"/>
      <point x="226" y="678"/>
      <point x="237" y="690"/>
      <point x="252" y="690" type="curve" smooth="yes"/>
      <point x="267" y="690"/>
      <point x="278" y="678"/>
      <point x="278" y="664" type="curve" smooth="yes"/>
      <point x="278" y="650"/>
      <point x="266" y="638"/>
    </contour>
    <contour>
      <point x="405" y="638" type="curve" smooth="yes"/>
      <point x="390" y="638"/>
      <point x="379" y="650"/>
      <point x="379" y="664" type="curve" smooth="yes"/>
      <point x="379" y="678"/>
      <point x="391" y="690"/>
      <point x="405" y="690" type="curve" smooth="yes"/>
      <point x="420" y="690"/>
      <point x="431" y="678"/>
      <point x="431" y="664" type="curve" smooth="yes"/>
      <point x="431" y="650"/>
      <point x="420" y="638"/>
    </contour>
    <contour>
      <point x="265" y="-7" type="curve" smooth="yes"/>
      <point x="128" y="-7"/>
      <point x="37" y="98"/>
      <point x="37" y="229" type="curve" smooth="yes"/>
      <point x="37" y="390"/>
      <point x="143" y="530"/>
      <point x="310" y="530" type="curve" smooth="yes"/>
      <point x="451" y="530"/>
      <point x="535" y="422"/>
      <point x="535" y="294" type="curve" smooth="yes"/>
      <point x="535" y="125"/>
      <point x="431" y="-7"/>
    </contour>
    <contour>
      <point x="266" y="22" type="curve" smooth="yes"/>
      <point x="411" y="22"/>
      <point x="500" y="141"/>
      <point x="500" y="294" type="curve" smooth="yes"/>
      <point x="500" y="406"/>
      <point x="432" y="501"/>
      <point x="309" y="501" type="curve" smooth="yes"/>
      <point x="159" y="501"/>
      <point x="72" y="376"/>
      <point x="72" y="229" type="curve" smooth="yes"/>
      <point x="72" y="116"/>
      <point x="145" y="22"/>
    </contour>
  </outline>
</glyph>
<glyph name="divide" format="2">
  <advance width="505"/>
  <unicode hex="00F7"/>
  <outline>
    <contour>
      <point x="46" y="327" type="line"/>
      <point x="51" y="357" type="line"/>
      <point x="482" y="357" type="line"/>
      <point x="477" y="327" type="line"/>
    </contour>
    <contour>
      <point x="241" y="143" type="curve" smooth="yes"/>
      <point x="225" y="143"/>
      <point x="212" y="156"/>
      <point x="212" y="172" type="curve" smooth="yes"/>
      <point x="212" y="188"/>
      <point x="225" y="201"/>
      <point x="241" y="201" type="curve" smooth="yes"/>
      <point x="257" y="201"/>
      <point x="270" y="188"/>
      <point x="270" y="172" type="curve" smooth="yes"/>
      <point x="270" y="156"/>
      <point x="257" y="143"/>
    </contour>
    <contour>
      <point x="288" y="484" type="curve" smooth="yes"/>
      <point x="271" y="484"/>
      <point x="259" y="497"/>
      <point x="259" y="512" type="curve" smooth="yes"/>
      <point x="259" y="528"/>
      <point x="271" y="541"/>
      <point x="288" y="541" type="curve" smooth="yes"/>
      <point x="304" y="541"/>
      <point x="316" y="528"/>
      <point x="316" y="512" type="curve" smooth="yes"/>
      <point x="316" y="497"/>
      <point x="304" y="484"/>
    </contour>
  </outline>
</glyph>
<glyph name="ydieresis" format="2">
  <advance width="486"/>
  <unicode hex="00FF"/>
  <outline>
    <contour>
      <point x="70" y="-182" type="line"/>
      <point x="196" y="42" type="line"/>
      <point x="65" y="523" type="line"/>
      <point x="99" y="523" type="line"/>
      <point x="220" y="80" type="line"/>
      <point x="465" y="523" type="line"/>
      <point x="502" y="523" type="line"/>
      <point x="107" y="-182" type="line"/>
    </contour>
    <contour>
      <point x="228" y="638" type="curve" smooth="yes"/>
      <point x="213" y="638"/>
      <point x="202" y="650"/>
      <point x="202" y="664" type="curve" smooth="yes"/>
      <point x="202" y="678"/>
      <point x="213" y="690"/>
      <point x="228" y="690" type="curve" smooth="yes"/>
      <point x="243" y="690"/>
      <point x="254" y="678"/>
      <point x="254" y="664" type="curve" smooth="yes"/>
      <point x="254" y="650"/>
      <point x="242" y="638"/>
    </contour>
    <contour>
      <point x="381" y="638" type="curve" smooth="yes"/>
      <point x="366" y="638"/>
      <point x="355" y="650"/>
      <point x="355" y="664" type="curve" smooth="yes"/>
      <point x="355" y="678"/>
      <point x="367" y="690"/>
      <point x="381" y="690" type="curve" smooth="yes"/>
      <point x="396" y="690"/>
      <point x="407" y="678"/>
      <point x="407" y="664" type="curve" smooth="yes"/>
      <point x="407" y="650"/>
      <point x="396" y="638"/>
    </contour>
  </outline>
</glyph>
<glyph name="Abreve" format="2">
  <advance width="635"/>
  <unicode hex="0102"/>
  <outline>
    <contour>
      <point x="530" y="0" type="line"/>
      <point x="480" y="228" type="line"/>
      <point x="141" y="228" type="line"/>
      <point x="22" y="0" type="line"/>
      <point x="-14" y="0" type="line"/>
      <point x="361" y="715" type="line"/>
      <point x="409" y="715" type="line"/>
      <point x="565" y="0" type="line"/>
    </contour>
    <contour>
      <point x="380" y="687" type="line"/>
      <point x="156" y="258" type="line"/>
      <point x="473" y="258" type="line"/>
    </contour>
    <contour>
      <point x="390" y="773" type="curve" smooth="yes"/>
      <point x="322" y="773"/>
      <point x="276" y="822"/>
      <point x="275" y="890" type="curve"/>
      <point x="305" y="890" type="line"/>
      <point x="307" y="838"/>
      <point x="339" y="802"/>
      <point x="391" y="802" type="curve" smooth="yes"/>
      <point x="442" y="802"/>
      <point x="483" y="837"/>
      <point x="493" y="890" type="curve"/>
      <point x="522" y="890" type="line"/>
      <point x="513" y="820"/>
      <point x="454" y="773"/>
    </contour>
  </outline>
</glyph>
<glyph name="Aogonek" format="2">
  <advance width="635"/>
  <unicode hex="0104"/>
  <outline>
    <contour>
      <point x="432" y="-112" type="curve" smooth="yes"/>
      <point x="432" y="-56"/>
      <point x="492" y="-18"/>
      <point x="529" y="2" type="curve"/>
      <point x="480" y="228" type="line"/>
      <point x="141" y="228" type="line"/>
      <point x="22" y="0" type="line"/>
      <point x="-14" y="0" type="line"/>
      <point x="361" y="715" type="line"/>
      <point x="409" y="715" type="line"/>
      <point x="565" y="0" type="line"/>
      <point x="528" y="-21"/>
      <point x="465" y="-58"/>
      <point x="465" y="-109" type="curve" smooth="yes"/>
      <point x="465" y="-135"/>
      <point x="480" y="-155"/>
      <point x="519" y="-155" type="curve" smooth="yes"/>
      <point x="535" y="-155"/>
      <point x="548" y="-153"/>
      <point x="565" y="-147" type="curve"/>
      <point x="560" y="-174" type="line"/>
      <point x="548" y="-178"/>
      <point x="532" y="-182"/>
      <point x="513" y="-182" type="curve" smooth="yes"/>
      <point x="460" y="-182"/>
      <point x="431" y="-154"/>
    </contour>
    <contour>
      <point x="380" y="687" type="line"/>
      <point x="156" y="258" type="line"/>
      <point x="473" y="258" type="line"/>
    </contour>
  </outline>
</glyph>
<glyph name="Cdotaccent" format="2">
  <advance width="724"/>
  <unicode hex="010A"/>
  <outline>
    <contour>
      <point x="371" y="-7" type="curve" smooth="yes"/>
      <point x="180" y="-7"/>
      <point x="59" y="115"/>
      <point x="59" y="312" type="curve" smooth="yes"/>
      <point x="59" y="534"/>
      <point x="205" y="722"/>
      <point x="435" y="722" type="curve" smooth="yes"/>
      <point x="568" y="722"/>
      <point x="682" y="645"/>
      <point x="700" y="506" type="curve"/>
      <point x="667" y="506" type="line"/>
      <point x="645" y="625"/>
      <point x="555" y="692"/>
      <point x="434" y="692" type="curve" smooth="yes"/>
      <point x="223" y="692"/>
      <point x="97" y="519"/>
      <point x="97" y="312" type="curve" smooth="yes"/>
      <point x="97" y="132"/>
      <point x="199" y="24"/>
      <point x="371" y="24" type="curve" smooth="yes"/>
      <point x="502" y="24"/>
      <point x="604" y="97"/>
      <point x="646" y="225" type="curve"/>
      <point x="681" y="225" type="line"/>
      <point x="637" y="76"/>
      <point x="515" y="-7"/>
    </contour>
    <contour>
      <point x="435" y="787" type="curve" smooth="yes"/>
      <point x="420" y="787"/>
      <point x="409" y="799"/>
      <point x="409" y="813" type="curve" smooth="yes"/>
      <point x="409" y="828"/>
      <point x="421" y="840"/>
      <point x="436" y="840" type="curve" smooth="yes"/>
      <point x="451" y="840"/>
      <point x="462" y="828"/>
      <point x="462" y="814" type="curve" smooth="yes"/>
      <point x="462" y="800"/>
      <point x="450" y="787"/>
    </contour>
  </outline>
</glyph>
<glyph name="Dcaron" format="2">
  <advance width="682"/>
  <unicode hex="010E"/>
  <outline>
    <contour>
      <point x="521" y="891" type="line"/>
      <point x="395" y="771" type="line"/>
      <point x="361" y="771" type="line"/>
      <point x="266" y="891" type="line"/>
      <point x="295" y="891" type="line"/>
      <point x="381" y="800" type="line"/>
      <point x="490" y="891" type="line"/>
    </contour>
    <contour>
      <point x="52" y="0" type="line"/>
      <point x="165" y="715" type="line"/>
      <point x="337" y="715" type="line" smooth="yes"/>
      <point x="553" y="715"/>
      <point x="654" y="584"/>
      <point x="654" y="411" type="curve" smooth="yes"/>
      <point x="654" y="158"/>
      <point x="497" y="0"/>
      <point x="247" y="0" type="curve" smooth="yes"/>
    </contour>
    <contour>
      <point x="92" y="31" type="line"/>
      <point x="246" y="31" type="line" smooth="yes"/>
      <point x="475" y="31"/>
      <point x="618" y="172"/>
      <point x="618" y="411" type="curve" smooth="yes"/>
      <point x="618" y="563"/>
      <point x="531" y="685"/>
      <point x="336" y="685" type="curve" smooth="yes"/>
      <point x="196" y="685" type="line"/>
    </contour>
  </outline>
</glyph>
<glyph name="dcroat" format="2">
  <advance width="597"/>
  <unicode hex="0111"/>
  <outline>
    <contour>
      <point x="348" y="629" type="line"/>
      <point x="352" y="656" type="line"/>
      <point x="544" y="656" type="line"/>
      <point x="563" y="773" type="line"/>
      <point x="597" y="773" type="line"/>
      <point x="578" y="656" type="line"/>
      <point x="658" y="656" type="line"/>
      <point x="654" y="629" type="line"/>
      <point x="574" y="629" type="line"/>
      <point x="501" y="169" type="line" smooth="yes"/>
      <point x="487" y="82"/>
      <point x="485" y="33"/>
      <point x="484" y="0" type="curve"/>
      <point x="451" y="0" type="line"/>
      <point x="451" y="34"/>
      <point x="457" y="91"/>
      <point x="463" y="129" type="curve"/>
      <point x="426" y="51"/>
      <point x="353" y="-8"/>
      <point x="253" y="-8" type="curve" smooth="yes"/>
      <point x="130" y="-8"/>
      <point x="38" y="81"/>
      <point x="38" y="224" type="curve" smooth="yes"/>
      <point x="38" y="390"/>
      <point x="139" y="531"/>
      <point x="301" y="531" type="curve" smooth="yes"/>
      <point x="428" y="531"/>
      <point x="485" y="440"/>
      <point x="498" y="369" type="curve"/>
      <point x="540" y="629" type="line"/>
    </contour>
    <contour>
      <point x="302" y="501" type="curve" smooth="yes"/>
      <point x="159" y="501"/>
      <point x="73" y="377"/>
      <point x="73" y="225" type="curve" smooth="yes"/>
      <point x="73" y="95"/>
      <point x="152" y="22"/>
      <point x="255" y="22" type="curve" smooth="yes"/>
      <point x="399" y="22"/>
      <point x="484" y="152"/>
      <point x="485" y="291" type="curve" smooth="yes"/>
      <point x="487" y="424"/>
      <point x="411" y="501"/>
    </contour>
  </outline>
</glyph>
<glyph name="Ebreve" format="2">
  <advance width="568"/>
  <unicode hex="0114"/>
  <outline>
    <contour>
      <point x="52" y="0" type="line"/>
      <point x="165" y="715" type="line"/>
      <point x="566" y="715" type="line"/>
      <point x="561" y="685" type="line"/>
      <point x="196" y="685" type="line"/>
      <point x="148" y="384" type="line"/>
      <point x="450" y="384" type="line"/>
      <point x="445" y="353" type="line"/>
      <point x="144" y="353" type="line"/>
      <point x="92" y="31" type="line"/>
      <point x="482" y="31" type="line"/>
      <point x="476" y="0" type="line"/>
    </contour>
    <contour>
      <point x="370" y="773" type="curve" smooth="yes"/>
      <point x="302" y="773"/>
      <point x="256" y="822"/>
      <point x="255" y="890" type="curve"/>
      <point x="285" y="890" type="line"/>
      <point x="287" y="838"/>
      <point x="319" y="802"/>
      <point x="371" y="802" type="curve" smooth="yes"/>
      <point x="422" y="802"/>
      <point x="463" y="837"/>
      <point x="473" y="890" type="curve"/>
      <point x="502" y="890" type="line"/>
      <point x="493" y="820"/>
      <point x="434" y="773"/>
    </contour>
  </outline>
</glyph>
<glyph name="ebreve" format="2">
  <advance width="535"/>
  <unicode hex="0115"/>
  <outline>
    <contour>
      <point x="74" y="217" type="curve" smooth="yes"/>
      <point x="74" y="93"/>
      <point x="136" y="22"/>
      <point x="257" y="22" type="curve" smooth="yes"/>
      <point x="346" y="22"/>
      <point x="411" y="63"/>
      <point x="443" y="144" type="curve"/>
      <point x="477" y="144" type="line"/>
      <point x="443" y="43"/>
      <point x="361" y="-8"/>
      <point x="256" y="-8" type="curve" smooth="yes"/>
      <point x="113" y="-8"/>
      <point x="38" y="80"/>
      <point x="38" y="218" type="curve" smooth="yes"/>
      <point x="38" y="385"/>
      <point x="140" y="530"/>
      <point x="302" y="530" type="curve" smooth="yes"/>
      <point x="452" y="530"/>
      <point x="520" y="425"/>
      <point x="497" y="278" type="curve" smooth="yes"/>
      <point x="495" y="264" type="line"/>
      <point x="76" y="264" type="line"/>
      <point x="75" y="249"/>
      <point x="74" y="233"/>
    </contour>
    <contour>
      <point x="301" y="501" type="curve" smooth="yes"/>
      <point x="182" y="501"/>
      <point x="103" y="414"/>
      <point x="80" y="293" type="curve"/>
      <point x="465" y="293" type="line"/>
      <point x="480" y="415"/>
      <point x="431" y="501"/>
    </contour>
    <contour>
      <point x="313" y="614" type="curve" smooth="yes"/>
      <point x="246" y="614"/>
      <point x="205" y="660"/>
      <point x="204" y="728" type="curve"/>
      <point x="234" y="728" type="line"/>
      <point x="236" y="676"/>
      <point x="264" y="643"/>
      <point x="314" y="643" type="curve" smooth="yes"/>
      <point x="363" y="643"/>
      <point x="400" y="675"/>
      <point x="410" y="728" type="curve"/>
      <point x="439" y="728" type="line"/>
      <point x="429" y="658"/>
      <point x="375" y="614"/>
    </contour>
  </outline>
</glyph>
<glyph name="Edotaccent" format="2">
  <advance width="568"/>
  <unicode hex="0116"/>
  <outline>
    <contour>
      <point x="369" y="787" type="curve" smooth="yes"/>
      <point x="354" y="787"/>
      <point x="343" y="799"/>
      <point x="343" y="813" type="curve" smooth="yes"/>
      <point x="343" y="828"/>
      <point x="355" y="840"/>
      <point x="370" y="840" type="curve" smooth="yes"/>
      <point x="385" y="840"/>
      <point x="396" y="828"/>
      <point x="396" y="814" type="curve" smooth="yes"/>
      <point x="396" y="800"/>
      <point x="384" y="787"/>
    </contour>
    <contour>
      <point x="52" y="0" type="line"/>
      <point x="165" y="715" type="line"/>
      <point x="566" y="715" type="line"/>
      <point x="561" y="685" type="line"/>
      <point x="196" y="685" type="line"/>
      <point x="148" y="384" type="line"/>
      <point x="450" y="384" type="line"/>
      <point x="445" y="353" type="line"/>
      <point x="144" y="353" type="line"/>
      <point x="92" y="31" type="line"/>
      <point x="482" y="31" type="line"/>
      <point x="476" y="0" type="line"/>
    </contour>
  </outline>
</glyph>
<glyph name="edotaccent" format="2">
  <advance width="535"/>
  <unicode hex="0117"/>
  <outline>
    <contour>
      <point x="74" y="217" type="curve" smooth="yes"/>
      <point x="74" y="93"/>
      <point x="136" y="22"/>
      <point x="257" y="22" type="curve" smooth="yes"/>
      <point x="346" y="22"/>
      <point x="411" y="63"/>
      <point x="443" y="144" type="curve"/>
      <point x="477" y="144" type="line"/>
      <point x="443" y="43"/>
      <point x="361" y="-8"/>
      <point x="256" y="-8" type="curve" smooth="yes"/>
      <point x="113" y="-8"/>
      <point x="38" y="80"/>
      <point x="38" y="218" type="curve" smooth="yes"/>
      <point x="38" y="385"/>
      <point x="140" y="530"/>
      <point x="302" y="530" type="curve" smooth="yes"/>
      <point x="452" y="530"/>
      <point x="520" y="425"/>
      <point x="497" y="278" type="curve" smooth="yes"/>
      <point x="495" y="264" type="line"/>
      <point x="76" y="264" type="line"/>
      <point x="75" y="249"/>
      <point x="74" y="233"/>
    </contour>
    <contour>
      <point x="301" y="501" type="curve" smooth="yes"/>
      <point x="182" y="501"/>
      <point x="103" y="414"/>
      <point x="80" y="293" type="curve"/>
      <point x="465" y="293" type="line"/>
      <point x="480" y="415"/>
      <point x="431" y="501"/>
    </contour>
    <contour>
      <point x="318" y="637" type="curve" smooth="yes"/>
      <point x="303" y="637"/>
      <point x="292" y="649"/>
      <point x="292" y="664" type="curve" smooth="yes"/>
      <point x="292" y="678"/>
      <point x="304" y="690"/>
      <point x="319" y="690" type="curve" smooth="yes"/>
      <point x="334" y="690"/>
      <point x="345" y="678"/>
      <point x="345" y="664" type="curve" smooth="yes"/>
      <point x="345" y="650"/>
      <point x="333" y="637"/>
    </contour>
  </outline>
</glyph>
<glyph name="Eogonek" format="2">
  <advance width="568"/>
  <unicode hex="0118"/>
  <outline>
    <contour>
      <point x="52" y="0" type="line"/>
      <point x="165" y="715" type="line"/>
      <point x="566" y="715" type="line"/>
      <point x="561" y="685" type="line"/>
      <point x="196" y="685" type="line"/>
      <point x="148" y="384" type="line"/>
      <point x="450" y="384" type="line"/>
      <point x="445" y="353" type="line"/>
      <point x="144" y="353" type="line"/>
      <point x="92" y="31" type="line"/>
      <point x="481" y="31" type="line"/>
      <point x="476" y="0" type="line"/>
      <point x="423" y="0" type="line"/>
      <point x="384" y="-21"/>
      <point x="322" y="-58"/>
      <point x="322" y="-110" type="curve" smooth="yes"/>
      <point x="322" y="-135"/>
      <point x="337" y="-155"/>
      <point x="375" y="-155" type="curve" smooth="yes"/>
      <point x="391" y="-155"/>
      <point x="405" y="-153"/>
      <point x="421" y="-147" type="curve"/>
      <point x="416" y="-174" type="line"/>
      <point x="404" y="-178"/>
      <point x="388" y="-182"/>
      <point x="370" y="-182" type="curve" smooth="yes"/>
      <point x="316" y="-182"/>
      <point x="288" y="-154"/>
      <point x="288" y="-113" type="curve" smooth="yes"/>
      <point x="288" y="-58"/>
      <point x="347" y="-19"/>
      <point x="380" y="0" type="curve"/>
    </contour>
  </outline>
</glyph>
<glyph name="eogonek" format="2">
  <advance width="535"/>
  <unicode hex="0119"/>
  <outline>
    <contour>
      <point x="299" y="-182" type="curve" smooth="yes"/>
      <point x="245" y="-182"/>
      <point x="217" y="-154"/>
      <point x="217" y="-112" type="curve" smooth="yes"/>
      <point x="217" y="-59"/>
      <point x="271" y="-23"/>
      <point x="304" y="-4" type="curve"/>
      <point x="286" y="-7"/>
      <point x="275" y="-8"/>
      <point x="256" y="-8" type="curve" smooth="yes"/>
      <point x="113" y="-8"/>
      <point x="38" y="80"/>
      <point x="38" y="218" type="curve" smooth="yes"/>
      <point x="38" y="385"/>
      <point x="140" y="530"/>
      <point x="302" y="530" type="curve" smooth="yes"/>
      <point x="452" y="530"/>
      <point x="520" y="425"/>
      <point x="497" y="278" type="curve" smooth="yes"/>
      <point x="495" y="264" type="line"/>
      <point x="76" y="264" type="line"/>
      <point x="74" y="248"/>
      <point x="74" y="233"/>
      <point x="74" y="217" type="curve" smooth="yes"/>
      <point x="74" y="93"/>
      <point x="136" y="22"/>
      <point x="257" y="22" type="curve" smooth="yes"/>
      <point x="346" y="22"/>
      <point x="411" y="63"/>
      <point x="443" y="144" type="curve"/>
      <point x="477" y="144" type="line"/>
      <point x="461" y="99"/>
      <point x="438" y="66"/>
      <point x="404" y="39" type="curve" smooth="yes"/>
      <point x="336" y="-15"/>
      <point x="251" y="-48"/>
      <point x="251" y="-109" type="curve" smooth="yes"/>
      <point x="251" y="-135"/>
      <point x="266" y="-155"/>
      <point x="304" y="-155" type="curve" smooth="yes"/>
      <point x="320" y="-155"/>
      <point x="334" y="-153"/>
      <point x="350" y="-147" type="curve"/>
      <point x="346" y="-174" type="line"/>
      <point x="333" y="-178"/>
      <point x="318" y="-182"/>
    </contour>
    <contour>
      <point x="301" y="501" type="curve" smooth="yes"/>
      <point x="181" y="501"/>
      <point x="103" y="413"/>
      <point x="81" y="293" type="curve"/>
      <point x="465" y="293" type="line"/>
      <point x="480" y="415"/>
      <point x="431" y="501"/>
    </contour>
  </outline>
</glyph>
<glyph name="Ecaron" format="2">
  <advance width="568"/>
  <unicode hex="011A"/>
  <outline>
    <contour>
      <point x="508" y="891" type="line"/>
      <point x="382" y="771" type="line"/>
      <point x="348" y="771" type="line"/>
      <point x="253" y="891" type="line"/>
      <point x="282" y="891" type="line"/>
      <point x="368" y="800" type="line"/>
      <point x="477" y="891" type="line"/>
    </contour>
    <contour>
      <point x="52" y="0" type="line"/>
      <point x="165" y="715" type="line"/>
      <point x="566" y="715" type="line"/>
      <point x="561" y="685" type="line"/>
      <point x="196" y="685" type="line"/>
      <point x="148" y="384" type="line"/>
      <point x="450" y="384" type="line"/>
      <point x="445" y="353" type="line"/>
      <point x="144" y="353" type="line"/>
      <point x="92" y="31" type="line"/>
      <point x="482" y="31" type="line"/>
      <point x="476" y="0" type="line"/>
    </contour>
  </outline>
</glyph>
<glyph name="gcircumflex" format="2">
  <advance width="601"/>
  <unicode hex="011D"/>
  <outline>
    <contour>
      <point x="199" y="600" type="line"/>
      <point x="326" y="729" type="line"/>
      <point x="359" y="729" type="line"/>
      <point x="453" y="600" type="line"/>
      <point x="424" y="600" type="line"/>
      <point x="340" y="701" type="line"/>
      <point x="230" y="600" type="line"/>
    </contour>
    <contour>
      <point x="259" y="46" type="curve" smooth="yes"/>
      <point x="396" y="47"/>
      <point x="491" y="170"/>
      <point x="491" y="315" type="curve" smooth="yes"/>
      <point x="491" y="421"/>
      <point x="426" y="501"/>
      <point x="308" y="501" type="curve" smooth="yes"/>
      <point x="169" y="502"/>
      <point x="79" y="385"/>
      <point x="79" y="240" type="curve" smooth="yes"/>
      <point x="79" y="130"/>
      <point x="142" y="46"/>
    </contour>
    <contour>
      <point x="562" y="523" type="line"/>
      <point x="482" y="18" type="line" smooth="yes"/>
      <point x="460" y="-121"/>
      <point x="369" y="-186"/>
      <point x="236" y="-186" type="curve" smooth="yes"/>
      <point x="112" y="-186"/>
      <point x="26" y="-129"/>
      <point x="12" y="-30" type="curve"/>
      <point x="47" y="-30" type="line"/>
      <point x="60" y="-110"/>
      <point x="129" y="-157"/>
      <point x="235" y="-157" type="curve" smooth="yes"/>
      <point x="354" y="-157"/>
      <point x="429" y="-98"/>
      <point x="448" y="20" type="curve" smooth="yes"/>
      <point x="469" y="151" type="line"/>
      <point x="434" y="84"/>
      <point x="364" y="18"/>
      <point x="256" y="18" type="curve" smooth="yes"/>
      <point x="127" y="18"/>
      <point x="44" y="107"/>
      <point x="44" y="239" type="curve" smooth="yes"/>
      <point x="44" y="399"/>
      <point x="150" y="531"/>
      <point x="308" y="531" type="curve" smooth="yes"/>
      <point x="417" y="531"/>
      <point x="485" y="469"/>
      <point x="505" y="382" type="curve"/>
      <point x="527" y="523" type="line"/>
    </contour>
  </outline>
</glyph>
<glyph name="Gbreve" format="2">
  <advance width="751"/>
  <unicode hex="011E"/>
  <outline>
    <contour>
      <point x="439" y="773" type="curve" smooth="yes"/>
      <point x="371" y="773"/>
      <point x="325" y="822"/>
      <point x="324" y="890" type="curve"/>
      <point x="354" y="890" type="line"/>
      <point x="356" y="838"/>
      <point x="388" y="802"/>
      <point x="440" y="802" type="curve" smooth="yes"/>
      <point x="491" y="802"/>
      <point x="532" y="837"/>
      <point x="542" y="890" type="curve"/>
      <point x="571" y="890" type="line"/>
      <point x="562" y="820"/>
      <point x="503" y="773"/>
    </contour>
    <contour>
      <point x="386" y="-7" type="curve" smooth="yes"/>
      <point x="178" y="-7"/>
      <point x="61" y="132"/>
      <point x="61" y="316" type="curve" smooth="yes"/>
      <point x="61" y="539"/>
      <point x="213" y="722"/>
      <point x="433" y="722" type="curve" smooth="yes"/>
      <point x="568" y="722"/>
      <point x="688" y="657"/>
      <point x="706" y="519" type="curve"/>
      <point x="670" y="519" type="line"/>
      <point x="655" y="635"/>
      <point x="553" y="692"/>
      <point x="433" y="692" type="curve" smooth="yes"/>
      <point x="231" y="692"/>
      <point x="98" y="525"/>
      <point x="98" y="316" type="curve" smooth="yes"/>
      <point x="98" y="149"/>
      <point x="199" y="24"/>
      <point x="386" y="24" type="curve" smooth="yes"/>
      <point x="548" y="24"/>
      <point x="654" y="119"/>
      <point x="674" y="310" type="curve"/>
      <point x="443" y="310" type="line"/>
      <point x="448" y="341" type="line"/>
      <point x="714" y="341" type="line"/>
      <point x="695" y="95"/>
      <point x="566" y="-7"/>
    </contour>
  </outline>
</glyph>
<glyph name="Gdotaccent" format="2">
  <advance width="751"/>
  <unicode hex="0120"/>
  <outline>
    <contour>
      <point x="445" y="787" type="curve" smooth="yes"/>
      <point x="430" y="787"/>
      <point x="419" y="799"/>
      <point x="419" y="813" type="curve" smooth="yes"/>
      <point x="419" y="828"/>
      <point x="431" y="840"/>
      <point x="446" y="840" type="curve" smooth="yes"/>
      <point x="461" y="840"/>
      <point x="472" y="828"/>
      <point x="472" y="814" type="curve" smooth="yes"/>
      <point x="472" y="800"/>
      <point x="460" y="787"/>
    </contour>
    <contour>
      <point x="386" y="-7" type="curve" smooth="yes"/>
      <point x="178" y="-7"/>
      <point x="61" y="132"/>
      <point x="61" y="316" type="curve" smooth="yes"/>
      <point x="61" y="539"/>
      <point x="213" y="722"/>
      <point x="433" y="722" type="curve" smooth="yes"/>
      <point x="568" y="722"/>
      <point x="688" y="657"/>
      <point x="706" y="519" type="curve"/>
      <point x="670" y="519" type="line"/>
      <point x="655" y="635"/>
      <point x="553" y="692"/>
      <point x="433" y="692" type="curve" smooth="yes"/>
      <point x="231" y="692"/>
      <point x="98" y="525"/>
      <point x="98" y="316" type="curve" smooth="yes"/>
      <point x="98" y="149"/>
      <point x="199" y="24"/>
      <point x="386" y="24" type="curve" smooth="yes"/>
      <point x="548" y="24"/>
      <point x="654" y="119"/>
      <point x="674" y="310" type="curve"/>
      <point x="443" y="310" type="line"/>
      <point x="448" y="341" type="line"/>
      <point x="714" y="341" type="line"/>
      <point x="695" y="95"/>
      <point x="566" y="-7"/>
    </contour>
  </outline>
</glyph>
<glyph name="Gcommaaccent" format="2">
  <advance width="751"/>
  <unicode hex="0122"/>
  <outline>
    <contour>
      <point x="272" y="-195" type="line"/>
      <point x="249" y="-183" type="line"/>
      <point x="317" y="-44" type="line"/>
      <point x="351" y="-54" type="line"/>
    </contour>
    <contour>
      <point x="386" y="-7" type="curve" smooth="yes"/>
      <point x="178" y="-7"/>
      <point x="61" y="132"/>
      <point x="61" y="316" type="curve" smooth="yes"/>
      <point x="61" y="539"/>
      <point x="213" y="722"/>
      <point x="433" y="722" type="curve" smooth="yes"/>
      <point x="568" y="722"/>
      <point x="688" y="657"/>
      <point x="706" y="519" type="curve"/>
      <point x="670" y="519" type="line"/>
      <point x="655" y="635"/>
      <point x="553" y="692"/>
      <point x="433" y="692" type="curve" smooth="yes"/>
      <point x="231" y="692"/>
      <point x="98" y="525"/>
      <point x="98" y="316" type="curve" smooth="yes"/>
      <point x="98" y="149"/>
      <point x="199" y="24"/>
      <point x="386" y="24" type="curve" smooth="yes"/>
      <point x="548" y="24"/>
      <point x="654" y="119"/>
      <point x="674" y="310" type="curve"/>
      <point x="443" y="310" type="line"/>
      <point x="448" y="341" type="line"/>
      <point x="714" y="341" type="line"/>
      <point x="695" y="95"/>
      <point x="566" y="-7"/>
    </contour>
  </outline>
</glyph>
<glyph name="hcircumflex" format="2">
  <advance width="567"/>
  <unicode hex="0125"/>
  <outline>
    <contour>
      <point x="39" y="0" type="line"/>
      <point x="161" y="773" type="line"/>
      <point x="195" y="773" type="line"/>
      <point x="138" y="410" type="line"/>
      <point x="172" y="474"/>
      <point x="242" y="531"/>
      <point x="338" y="531" type="curve" smooth="yes"/>
      <point x="452" y="531"/>
      <point x="521" y="459"/>
      <point x="498" y="311" type="curve" smooth="yes"/>
      <point x="449" y="0" type="line"/>
      <point x="414" y="0" type="line"/>
      <point x="464" y="316" type="line" smooth="yes"/>
      <point x="484" y="441"/>
      <point x="429" y="501"/>
      <point x="333" y="501" type="curve" smooth="yes"/>
      <point x="238" y="501"/>
      <point x="142" y="435"/>
      <point x="123" y="314" type="curve" smooth="yes"/>
      <point x="73" y="0" type="line"/>
    </contour>
    <contour>
      <point x="229" y="813" type="line"/>
      <point x="356" y="933" type="line"/>
      <point x="389" y="933" type="line"/>
      <point x="485" y="813" type="line"/>
      <point x="456" y="813" type="line"/>
      <point x="370" y="904" type="line"/>
      <point x="261" y="813" type="line"/>
    </contour>
  </outline>
</glyph>
<glyph name="Hbar" format="2">
  <advance width="709"/>
  <unicode hex="0126"/>
  <outline>
    <contour>
      <point x="49" y="522" type="line"/>
      <point x="53" y="550" type="line"/>
      <point x="139" y="550" type="line"/>
      <point x="165" y="715" type="line"/>
      <point x="201" y="715" type="line"/>
      <point x="175" y="550" type="line"/>
      <point x="624" y="550" type="line"/>
      <point x="650" y="715" type="line"/>
      <point x="686" y="715" type="line"/>
      <point x="660" y="550" type="line"/>
      <point x="746" y="550" type="line"/>
      <point x="742" y="522" type="line"/>
      <point x="655" y="522" type="line"/>
      <point x="573" y="0" type="line"/>
      <point x="537" y="0" type="line"/>
      <point x="592" y="345" type="line"/>
      <point x="142" y="345" type="line"/>
      <point x="88" y="0" type="line"/>
      <point x="52" y="0" type="line"/>
      <point x="134" y="522" type="line"/>
    </contour>
    <contour>
      <point x="147" y="376" type="line"/>
      <point x="596" y="376" type="line"/>
      <point x="619" y="522" type="line"/>
      <point x="170" y="522" type="line"/>
    </contour>
  </outline>
</glyph>
<glyph name="hbar" format="2">
  <advance width="567"/>
  <unicode hex="0127"/>
  <outline>
    <contour>
      <point x="58" y="629" type="line"/>
      <point x="63" y="656" type="line"/>
      <point x="142" y="656" type="line"/>
      <point x="161" y="773" type="line"/>
      <point x="195" y="773" type="line"/>
      <point x="176" y="656" type="line"/>
      <point x="368" y="656" type="line"/>
      <point x="363" y="629" type="line"/>
      <point x="172" y="629" type="line"/>
      <point x="138" y="410" type="line"/>
      <point x="172" y="474"/>
      <point x="242" y="531"/>
      <point x="338" y="531" type="curve" smooth="yes"/>
      <point x="452" y="531"/>
      <point x="521" y="459"/>
      <point x="498" y="311" type="curve" smooth="yes"/>
      <point x="449" y="0" type="line"/>
      <point x="414" y="0" type="line"/>
      <point x="464" y="316" type="line" smooth="yes"/>
      <point x="485" y="442"/>
      <point x="430" y="501"/>
      <point x="333" y="501" type="curve" smooth="yes"/>
      <point x="238" y="501"/>
      <point x="142" y="435"/>
      <point x="123" y="314" type="curve" smooth="yes"/>
      <point x="73" y="0" type="line"/>
      <point x="39" y="0" type="line"/>
      <point x="138" y="629" type="line"/>
    </contour>
  </outline>
</glyph>
<glyph name="Itilde" format="2">
  <advance width="234"/>
  <unicode hex="0128"/>
  <outline>
    <contour>
      <point x="57" y="0" type="line"/>
      <point x="170" y="715" type="line"/>
      <point x="206" y="715" type="line"/>
      <point x="93" y="0" type="line"/>
    </contour>
    <contour>
      <point x="264" y="774" type="curve" smooth="yes"/>
      <point x="214" y="774"/>
      <point x="173" y="833"/>
      <point x="134" y="833" type="curve" smooth="yes"/>
      <point x="111" y="833"/>
      <point x="87" y="814"/>
      <point x="79" y="774" type="curve"/>
      <point x="51" y="774" type="line"/>
      <point x="63" y="833"/>
      <point x="95" y="863"/>
      <point x="135" y="863" type="curve" smooth="yes"/>
      <point x="184" y="863"/>
      <point x="225" y="804"/>
      <point x="265" y="804" type="curve" smooth="yes"/>
      <point x="288" y="804"/>
      <point x="311" y="823"/>
      <point x="320" y="862" type="curve"/>
      <point x="347" y="862" type="line"/>
      <point x="336" y="804"/>
      <point x="303" y="774"/>
    </contour>
  </outline>
</glyph>
<glyph name="itilde" format="2">
  <advance width="200"/>
  <unicode hex="0129"/>
  <outline>
    <contour>
      <point x="41" y="0" type="line"/>
      <point x="123" y="523" type="line"/>
      <point x="158" y="523" type="line"/>
      <point x="75" y="0" type="line"/>
    </contour>
    <contour>
      <point x="222" y="615" type="curve" smooth="yes"/>
      <point x="172" y="615"/>
      <point x="131" y="673"/>
      <point x="92" y="673" type="curve" smooth="yes"/>
      <point x="68" y="673"/>
      <point x="45" y="654"/>
      <point x="36" y="615" type="curve"/>
      <point x="8" y="615" type="line"/>
      <point x="20" y="674"/>
      <point x="53" y="703"/>
      <point x="93" y="703" type="curve" smooth="yes"/>
      <point x="141" y="703"/>
      <point x="183" y="644"/>
      <point x="222" y="644" type="curve" smooth="yes"/>
      <point x="245" y="644"/>
      <point x="269" y="664"/>
      <point x="277" y="703" type="curve"/>
      <point x="305" y="703" type="line"/>
      <point x="293" y="645"/>
      <point x="261" y="615"/>
    </contour>
  </outline>
</glyph>
<glyph name="Imacron" format="2">
  <advance width="234"/>
  <unicode hex="012A"/>
  <outline>
    <contour>
      <point x="57" y="0" type="line"/>
      <point x="170" y="715" type="line"/>
      <point x="206" y="715" type="line"/>
      <point x="93" y="0" type="line"/>
    </contour>
    <contour>
      <point x="84" y="794" type="line"/>
      <point x="88" y="823" type="line"/>
      <point x="324" y="823" type="line"/>
      <point x="320" y="794" type="line"/>
    </contour>
  </outline>
</glyph>
<glyph name="imacron" format="2">
  <advance width="200"/>
  <unicode hex="012B"/>
  <outline>
    <contour>
      <point x="80" y="647" type="line"/>
      <point x="85" y="675" type="line"/>
      <point x="246" y="675" type="line"/>
      <point x="241" y="647" type="line"/>
    </contour>
    <contour>
      <point x="41" y="0" type="line"/>
      <point x="123" y="523" type="line"/>
      <point x="158" y="523" type="line"/>
      <point x="75" y="0" type="line"/>
    </contour>
  </outline>
</glyph>
<glyph name="Ibreve" format="2">
  <advance width="234"/>
  <unicode hex="012C"/>
  <outline>
    <contour>
      <point x="57" y="0" type="line"/>
      <point x="170" y="715" type="line"/>
      <point x="206" y="715" type="line"/>
      <point x="93" y="0" type="line"/>
    </contour>
    <contour>
      <point x="196" y="773" type="curve" smooth="yes"/>
      <point x="128" y="773"/>
      <point x="82" y="822"/>
      <point x="81" y="890" type="curve"/>
      <point x="111" y="890" type="line"/>
      <point x="113" y="838"/>
      <point x="145" y="802"/>
      <point x="197" y="802" type="curve" smooth="yes"/>
      <point x="248" y="802"/>
      <point x="289" y="837"/>
      <point x="299" y="890" type="curve"/>
      <point x="328" y="890" type="line"/>
      <point x="319" y="820"/>
      <point x="260" y="773"/>
    </contour>
  </outline>
</glyph>
<glyph name="ibreve" format="2">
  <advance width="200"/>
  <unicode hex="012D"/>
  <outline>
    <contour>
      <point x="41" y="0" type="line"/>
      <point x="123" y="523" type="line"/>
      <point x="158" y="523" type="line"/>
      <point x="75" y="0" type="line"/>
    </contour>
    <contour>
      <point x="155" y="614" type="curve" smooth="yes"/>
      <point x="88" y="614"/>
      <point x="47" y="660"/>
      <point x="46" y="728" type="curve"/>
      <point x="76" y="728" type="line"/>
      <point x="78" y="676"/>
      <point x="106" y="643"/>
      <point x="156" y="643" type="curve" smooth="yes"/>
      <point x="205" y="643"/>
      <point x="242" y="675"/>
      <point x="252" y="728" type="curve"/>
      <point x="281" y="728" type="line"/>
      <point x="271" y="658"/>
      <point x="217" y="614"/>
    </contour>
  </outline>
</glyph>
<glyph name="Iogonek" format="2">
  <advance width="234"/>
  <unicode hex="012E"/>
  <outline>
    <contour>
      <point x="55" y="-182" type="curve" smooth="yes"/>
      <point x="2" y="-182"/>
      <point x="-27" y="-154"/>
      <point x="-27" y="-112" type="curve" smooth="yes"/>
      <point x="-27" y="-58"/>
      <point x="27" y="-18"/>
      <point x="58" y="3" type="curve"/>
      <point x="170" y="715" type="line"/>
      <point x="206" y="715" type="line"/>
      <point x="93" y="2" type="line"/>
      <point x="59" y="-24"/>
      <point x="7" y="-61"/>
      <point x="7" y="-109" type="curve" smooth="yes"/>
      <point x="7" y="-135"/>
      <point x="22" y="-155"/>
      <point x="61" y="-155" type="curve" smooth="yes"/>
      <point x="77" y="-155"/>
      <point x="90" y="-153"/>
      <point x="107" y="-147" type="curve"/>
      <point x="102" y="-174" type="line"/>
      <point x="90" y="-178"/>
      <point x="74" y="-182"/>
    </contour>
  </outline>
</glyph>
<glyph name="iogonek" format="2">
  <advance width="200"/>
  <unicode hex="012F"/>
  <outline>
    <contour>
      <point x="42" y="3" type="curve"/>
      <point x="123" y="523" type="line"/>
      <point x="158" y="523" type="line"/>
      <point x="76" y="2" type="line"/>
      <point x="42" y="-24"/>
      <point x="-7" y="-60"/>
      <point x="-7" y="-109" type="curve" smooth="yes"/>
      <point x="-7" y="-135"/>
      <point x="9" y="-155"/>
      <point x="46" y="-155" type="curve" smooth="yes"/>
      <point x="62" y="-155"/>
      <point x="76" y="-153"/>
      <point x="92" y="-147" type="curve"/>
      <point x="88" y="-174" type="line"/>
      <point x="75" y="-178"/>
      <point x="60" y="-182"/>
      <point x="41" y="-182" type="curve" smooth="yes"/>
      <point x="-12" y="-182"/>
      <point x="-41" y="-154"/>
      <point x="-41" y="-112" type="curve" smooth="yes"/>
      <point x="-41" y="-58"/>
      <point x="11" y="-18"/>
    </contour>
    <contour>
      <point x="161" y="637" type="curve" smooth="yes"/>
      <point x="146" y="637"/>
      <point x="135" y="649"/>
      <point x="135" y="664" type="curve" smooth="yes"/>
      <point x="135" y="678"/>
      <point x="147" y="690"/>
      <point x="162" y="690" type="curve" smooth="yes"/>
      <point x="177" y="690"/>
      <point x="188" y="678"/>
      <point x="188" y="664" type="curve" smooth="yes"/>
      <point x="188" y="650"/>
      <point x="176" y="637"/>
    </contour>
  </outline>
</glyph>
<glyph name="Idotaccent" format="2">
  <advance width="234"/>
  <unicode hex="0130"/>
  <outline>
    <contour>
      <point x="57" y="0" type="line"/>
      <point x="170" y="715" type="line"/>
      <point x="206" y="715" type="line"/>
      <point x="93" y="0" type="line"/>
    </contour>
    <contour>
      <point x="200" y="787" type="curve" smooth="yes"/>
      <point x="185" y="787"/>
      <point x="174" y="799"/>
      <point x="174" y="813" type="curve" smooth="yes"/>
      <point x="174" y="828"/>
      <point x="186" y="840"/>
      <point x="201" y="840" type="curve" smooth="yes"/>
      <point x="216" y="840"/>
      <point x="227" y="828"/>
      <point x="227" y="814" type="curve" smooth="yes"/>
      <point x="227" y="800"/>
      <point x="215" y="787"/>
    </contour>
  </outline>
</glyph>
<glyph name="IJ" format="2">
  <advance width="590"/>
  <unicode hex="0132"/>
  <outline>
    <contour>
      <point x="47" y="0" type="line"/>
      <point x="160" y="715" type="line"/>
      <point x="196" y="715" type="line"/>
      <point x="83" y="0" type="line"/>
    </contour>
    <contour>
      <point x="304" y="-5" type="curve" smooth="yes"/>
      <point x="244" y="-5"/>
      <point x="209" y="10"/>
      <point x="187" y="23" type="curve"/>
      <point x="192" y="54" type="line"/>
      <point x="221" y="38"/>
      <point x="255" y="25"/>
      <point x="303" y="25" type="curve" smooth="yes"/>
      <point x="380" y="25"/>
      <point x="430" y="65"/>
      <point x="446" y="162" type="curve" smooth="yes"/>
      <point x="533" y="715" type="line"/>
      <point x="569" y="715" type="line"/>
      <point x="481" y="159" type="line" smooth="yes"/>
      <point x="463" y="40"/>
      <point x="395" y="-5"/>
    </contour>
  </outline>
</glyph>
<glyph name="ij" format="2">
  <advance width="401"/>
  <unicode hex="0133"/>
  <outline>
    <contour>
      <point x="161" y="637" type="curve" smooth="yes"/>
      <point x="146" y="637"/>
      <point x="135" y="649"/>
      <point x="135" y="664" type="curve" smooth="yes"/>
      <point x="135" y="678"/>
      <point x="147" y="690"/>
      <point x="162" y="690" type="curve" smooth="yes"/>
      <point x="177" y="690"/>
      <point x="188" y="678"/>
      <point x="188" y="664" type="curve" smooth="yes"/>
      <point x="188" y="650"/>
      <point x="176" y="637"/>
    </contour>
    <contour>
      <point x="41" y="0" type="line"/>
      <point x="123" y="523" type="line"/>
      <point x="158" y="523" type="line"/>
      <point x="75" y="0" type="line"/>
    </contour>
    <contour>
      <point x="135" y="-186" type="curve"/>
      <point x="140" y="-156" type="line"/>
      <point x="198" y="-153"/>
      <point x="220" y="-126"/>
      <point x="230" y="-67" type="curve" smooth="yes"/>
      <point x="323" y="523" type="line"/>
      <point x="358" y="523" type="line"/>
      <point x="264" y="-69" type="line" smooth="yes"/>
      <point x="251" y="-151"/>
      <point x="213" y="-183"/>
    </contour>
    <contour>
      <point x="361" y="637" type="curve" smooth="yes"/>
      <point x="346" y="637"/>
      <point x="335" y="649"/>
      <point x="335" y="664" type="curve" smooth="yes"/>
      <point x="335" y="678"/>
      <point x="347" y="690"/>
      <point x="362" y="690" type="curve" smooth="yes"/>
      <point x="377" y="690"/>
      <point x="388" y="678"/>
      <point x="388" y="664" type="curve" smooth="yes"/>
      <point x="388" y="650"/>
      <point x="376" y="637"/>
    </contour>
  </outline>
</glyph>
<glyph name="Jcircumflex" format="2">
  <advance width="389"/>
  <unicode hex="0134"/>
  <outline>
    <contour>
      <point x="234" y="771" type="line"/>
      <point x="361" y="891" type="line"/>
      <point x="394" y="891" type="line"/>
      <point x="490" y="771" type="line"/>
      <point x="461" y="771" type="line"/>
      <point x="375" y="862" type="line"/>
      <point x="266" y="771" type="line"/>
    </contour>
    <contour>
      <point x="114" y="-5" type="curve" smooth="yes"/>
      <point x="54" y="-5"/>
      <point x="19" y="10"/>
      <point x="-3" y="23" type="curve"/>
      <point x="2" y="54" type="line"/>
      <point x="31" y="38"/>
      <point x="65" y="25"/>
      <point x="113" y="25" type="curve" smooth="yes"/>
      <point x="190" y="25"/>
      <point x="240" y="65"/>
      <point x="256" y="162" type="curve" smooth="yes"/>
      <point x="343" y="715" type="line"/>
      <point x="379" y="715" type="line"/>
      <point x="291" y="159" type="line" smooth="yes"/>
      <point x="273" y="40"/>
      <point x="205" y="-5"/>
    </contour>
  </outline>
</glyph>
<glyph name="kcommaaccent" format="2">
  <advance width="467"/>
  <unicode hex="0137"/>
  <outline>
    <contour>
      <point x="142" y="-195" type="line"/>
      <point x="119" y="-183" type="line"/>
      <point x="187" y="-44" type="line"/>
      <point x="221" y="-54" type="line"/>
    </contour>
    <contour>
      <point x="366" y="0" type="line"/>
      <point x="121" y="282" type="line"/>
      <point x="427" y="523" type="line"/>
      <point x="472" y="523" type="line"/>
      <point x="163" y="281" type="line"/>
      <point x="407" y="0" type="line"/>
    </contour>
    <contour>
      <point x="39" y="0" type="line"/>
      <point x="161" y="773" type="line"/>
      <point x="195" y="773" type="line"/>
      <point x="73" y="0" type="line"/>
    </contour>
  </outline>
</glyph>
<glyph name="Lacute" format="2">
  <advance width="528"/>
  <unicode hex="0139"/>
  <outline>
    <contour>
      <point x="173" y="771" type="line"/>
      <point x="251" y="891" type="line"/>
      <point x="294" y="891" type="line"/>
      <point x="204" y="771" type="line"/>
    </contour>
    <contour>
      <point x="52" y="0" type="line"/>
      <point x="165" y="715" type="line"/>
      <point x="201" y="715" type="line"/>
      <point x="92" y="31" type="line"/>
      <point x="453" y="31" type="line"/>
      <point x="448" y="0" type="line"/>
    </contour>
  </outline>
</glyph>
<glyph name="lacute" format="2">
  <advance width="201"/>
  <unicode hex="013A"/>
  <outline>
    <contour>
      <point x="172" y="813" type="line"/>
      <point x="250" y="933" type="line"/>
      <point x="293" y="933" type="line"/>
      <point x="203" y="813" type="line"/>
    </contour>
    <contour>
      <point x="41" y="0" type="line"/>
      <point x="163" y="773" type="line"/>
      <point x="198" y="773" type="line"/>
      <point x="76" y="0" type="line"/>
    </contour>
  </outline>
</glyph>
<glyph name="Lcommaaccent" format="2">
  <advance width="528"/>
  <unicode hex="013B"/>
  <outline>
    <contour>
      <point x="180" y="-195" type="line"/>
      <point x="157" y="-183" type="line"/>
      <point x="225" y="-44" type="line"/>
      <point x="259" y="-54" type="line"/>
    </contour>
    <contour>
      <point x="52" y="0" type="line"/>
      <point x="165" y="715" type="line"/>
      <point x="201" y="715" type="line"/>
      <point x="92" y="31" type="line"/>
      <point x="453" y="31" type="line"/>
      <point x="448" y="0" type="line"/>
    </contour>
  </outline>
</glyph>
<glyph name="lcommaaccent" format="2">
  <advance width="201"/>
  <unicode hex="013C"/>
  <outline>
    <contour>
      <point x="-7" y="-195" type="line"/>
      <point x="-30" y="-183" type="line"/>
      <point x="38" y="-44" type="line"/>
      <point x="72" y="-54" type="line"/>
    </contour>
    <contour>
      <point x="41" y="0" type="line"/>
      <point x="163" y="773" type="line"/>
      <point x="198" y="773" type="line"/>
      <point x="76" y="0" type="line"/>
    </contour>
  </outline>
</glyph>
<glyph name="lcaron" format="2">
  <advance width="201"/>
  <unicode hex="013E"/>
  <outline>
    <contour>
      <point x="231" y="619" type="line"/>
      <point x="270" y="773" type="line"/>
      <point x="307" y="773" type="line"/>
      <point x="258" y="619" type="line"/>
    </contour>
    <contour>
      <point x="41" y="0" type="line"/>
      <point x="163" y="773" type="line"/>
      <point x="198" y="773" type="line"/>
      <point x="76" y="0" type="line"/>
    </contour>
  </outline>
</glyph>
<glyph name="Ldot" format="2">
  <advance width="528"/>
  <unicode hex="013F"/>
  <outline>
    <contour>
      <point x="52" y="0" type="line"/>
      <point x="165" y="715" type="line"/>
      <point x="201" y="715" type="line"/>
      <point x="92" y="31" type="line"/>
      <point x="453" y="31" type="line"/>
      <point x="448" y="0" type="line"/>
    </contour>
    <contour>
      <point x="440" y="342" type="curve" smooth="yes"/>
      <point x="424" y="342"/>
      <point x="411" y="355"/>
      <point x="411" y="371" type="curve" smooth="yes"/>
      <point x="411" y="387"/>
      <point x="423" y="400"/>
      <point x="440" y="400" type="curve" smooth="yes"/>
      <point x="456" y="400"/>
      <point x="469" y="387"/>
      <point x="469" y="371" type="curve" smooth="yes"/>
      <point x="469" y="355"/>
      <point x="456" y="342"/>
    </contour>
  </outline>
</glyph>
<glyph name="ldot" format="2">
  <advance width="249"/>
  <unicode hex="0140"/>
  <outline>
    <contour>
      <point x="41" y="0" type="line"/>
      <point x="163" y="773" type="line"/>
      <point x="198" y="773" type="line"/>
      <point x="76" y="0" type="line"/>
    </contour>
    <contour>
      <point x="241" y="348" type="curve" smooth="yes"/>
      <point x="225" y="348"/>
      <point x="212" y="361"/>
      <point x="212" y="377" type="curve" smooth="yes"/>
      <point x="212" y="393"/>
      <point x="224" y="406"/>
      <point x="241" y="406" type="curve" smooth="yes"/>
      <point x="257" y="406"/>
      <point x="270" y="393"/>
      <point x="270" y="377" type="curve" smooth="yes"/>
      <point x="270" y="361"/>
      <point x="257" y="348"/>
    </contour>
  </outline>
</glyph>
<glyph name="Lslash" format="2">
  <advance width="539"/>
  <unicode hex="0141"/>
  <outline>
    <contour>
      <point x="29" y="263" type="line"/>
      <point x="34" y="294" type="line"/>
      <point x="115" y="322" type="line"/>
      <point x="177" y="715" type="line"/>
      <point x="213" y="715" type="line"/>
      <point x="152" y="336" type="line"/>
      <point x="403" y="424" type="line"/>
      <point x="399" y="393" type="line"/>
      <point x="147" y="304" type="line"/>
      <point x="104" y="31" type="line"/>
      <point x="464" y="31" type="line"/>
      <point x="460" y="0" type="line"/>
      <point x="64" y="0" type="line"/>
      <point x="110" y="291" type="line"/>
    </contour>
  </outline>
</glyph>
<glyph name="lslash" format="2">
  <advance width="224"/>
  <unicode hex="0142"/>
  <outline>
    <contour>
      <point x="29" y="344" type="line"/>
      <point x="35" y="377" type="line"/>
      <point x="120" y="429" type="line"/>
      <point x="175" y="773" type="line"/>
      <point x="209" y="773" type="line"/>
      <point x="158" y="452" type="line"/>
      <point x="248" y="507" type="line"/>
      <point x="243" y="474" type="line"/>
      <point x="153" y="419" type="line"/>
      <point x="87" y="0" type="line"/>
      <point x="53" y="0" type="line"/>
      <point x="115" y="396" type="line"/>
    </contour>
  </outline>
</glyph>
<glyph name="Nacute" format="2">
  <advance width="707"/>
  <unicode hex="0143"/>
  <outline>
    <contour>
      <point x="423" y="771" type="line"/>
      <point x="501" y="891" type="line"/>
      <point x="544" y="891" type="line"/>
      <point x="454" y="771" type="line"/>
    </contour>
    <contour>
      <point x="52" y="0" type="line"/>
      <point x="165" y="715" type="line"/>
      <point x="214" y="715" type="line"/>
      <point x="543" y="48" type="line"/>
      <point x="649" y="715" type="line"/>
      <point x="684" y="715" type="line"/>
      <point x="571" y="0" type="line"/>
      <point x="528" y="0" type="line"/>
      <point x="194" y="678" type="line"/>
      <point x="87" y="0" type="line"/>
    </contour>
  </outline>
</glyph>
